<?xml version="1.0" encoding="UTF-8"?> <svg xmlns="http://www.w3.org/2000/svg" width="148" height="44" viewBox="0 0 148 44" fill="none"><g clip-path="url(#clip0_1841_583)"><path d="M29.9264 21.2462C29.9386 20.2915 30.1923 19.3554 30.6636 18.5249C31.1349 17.6945 31.8086 16.9968 32.622 16.4967C32.1053 15.7587 31.4236 15.1514 30.631 14.723C29.8385 14.2945 28.9571 14.0568 28.0566 14.0286C26.1357 13.827 24.2736 15.178 23.2947 15.178C22.2969 15.178 20.7899 14.0487 19.167 14.082C18.1173 14.1159 17.0942 14.4212 16.1976 14.968C15.3009 15.5149 14.5612 16.2847 14.0505 17.2024C11.8383 21.0326 13.4884 26.6617 15.6075 29.7578C16.6678 31.2738 17.907 32.9673 19.5284 32.9072C21.115 32.8414 21.7075 31.8954 23.6228 31.8954C25.5202 31.8954 26.0762 32.9072 27.7304 32.869C29.433 32.8414 30.5056 31.3462 31.5287 29.8158C32.2905 28.7356 32.8767 27.5417 33.2656 26.2784C32.2765 25.86 31.4324 25.1598 30.8386 24.2649C30.2448 23.37 29.9275 22.3201 29.9264 21.2462Z" fill="black"></path><path d="M26.8011 11.9929C27.7294 10.8785 28.1867 9.44613 28.076 8C26.6578 8.14894 25.3477 8.82676 24.4069 9.89838C23.9469 10.4219 23.5946 11.0309 23.3701 11.6907C23.1456 12.3505 23.0534 13.048 23.0986 13.7435C23.808 13.7507 24.5098 13.597 25.1511 13.2938C25.7924 12.9906 26.3566 12.5457 26.8011 11.9929Z" fill="black"></path><path d="M48.9618 29.2221H43.7551L42.5047 32.9142H40.2993L45.2311 19.2544H47.5224L52.4541 32.9142H50.2111L48.9618 29.2221ZM44.2944 27.5184H48.4215L46.387 21.5264H46.33L44.2944 27.5184Z" fill="black"></path><path d="M63.1048 27.9348C63.1048 31.0296 61.4483 33.018 58.9486 33.018C58.3154 33.0512 57.6857 32.9053 57.1315 32.5971C56.5773 32.289 56.1211 31.831 55.8152 31.2756H55.7679V36.2084H53.7236V22.9548H55.7023V24.6112H55.7399C56.06 24.0585 56.5239 23.6029 57.0823 23.2928C57.6407 22.9829 58.2726 22.83 58.911 22.8506C61.4387 22.8506 63.1048 24.8486 63.1048 27.9348ZM61.0036 27.9348C61.0036 25.9185 59.9616 24.593 58.3718 24.593C56.8099 24.593 55.7593 25.9465 55.7593 27.9348C55.7593 29.9415 56.8099 31.2853 58.3718 31.2853C59.9617 31.2853 61.0036 29.9694 61.0036 27.9348Z" fill="black"></path><path d="M74.0668 27.9348C74.0668 31.0296 72.4098 33.018 69.9101 33.018C69.2769 33.0512 68.6471 32.9053 68.093 32.5972C67.5388 32.289 67.0826 31.831 66.7766 31.2756H66.7293V36.2084H64.6851V22.9548H66.6638V24.6112H66.7014C67.0215 24.0585 67.4854 23.6029 68.0437 23.2928C68.6022 22.9829 69.2342 22.83 69.8725 22.8506C72.4002 22.8506 74.0668 24.8486 74.0668 27.9348ZM71.9651 27.9348C71.9651 25.9185 70.9231 24.593 69.3333 24.593C67.7714 24.593 66.7208 25.9465 66.7208 27.9348C66.7208 29.9415 67.7714 31.2853 69.3333 31.2853C70.9231 31.2853 71.9651 29.9694 71.9651 27.9348Z" fill="black"></path><path d="M81.3098 29.1082C81.4608 30.4628 82.7772 31.3522 84.5753 31.3522C86.2979 31.3522 87.538 30.4628 87.538 29.2413C87.538 28.1811 86.79 27.5463 85.0197 27.1112L83.2494 26.6847C80.7414 26.0789 79.5769 24.9059 79.5769 23.0024C79.5769 20.6455 81.631 19.0267 84.546 19.0267C87.4338 19.0267 89.4124 20.6455 89.4791 23.0024H87.4155C87.2916 21.6392 86.1652 20.8163 84.5181 20.8163C82.871 20.8163 81.7446 21.6489 81.7446 22.8605C81.7446 23.8263 82.464 24.3945 84.2248 24.8295L85.7296 25.1991C88.5324 25.8619 89.6962 26.9877 89.6962 28.9857C89.6962 31.5412 87.6612 33.1418 84.4235 33.1418C81.3941 33.1418 79.3488 31.5788 79.2168 29.1081L81.3098 29.1082Z" fill="black"></path><path d="M94.11 20.5983V22.9551H96.004V24.5739H94.11V30.0642C94.11 30.9172 94.489 31.3146 95.322 31.3146C95.546 31.3107 95.771 31.2949 95.994 31.2673V32.8765C95.62 32.9465 95.24 32.9781 94.859 32.971C92.8424 32.971 92.0562 32.2137 92.0562 30.2823V24.5739H90.6079V22.9551H92.0562V20.5983H94.11Z" fill="black"></path><path d="M97.1011 27.9351C97.1011 24.8017 98.9461 22.8326 101.824 22.8326C104.711 22.8326 106.548 24.8016 106.548 27.9351C106.548 31.0773 104.721 33.0377 101.824 33.0377C98.9281 33.0377 97.1011 31.0773 97.1011 27.9351ZM104.466 27.9351C104.466 25.7857 103.48 24.517 101.824 24.517C100.168 24.517 99.1831 25.7954 99.1831 27.9351C99.1831 30.0933 100.168 31.3523 101.824 31.3523C103.48 31.3523 104.466 30.0933 104.466 27.9351Z" fill="black"></path><path d="M108.233 22.9547H110.183V24.6498H110.23C110.362 24.1203 110.672 23.6525 111.108 23.3248C111.545 22.9972 112.081 22.8297 112.625 22.8505C112.861 22.8496 113.096 22.8752 113.326 22.9268V24.8388C113.029 24.748 112.719 24.7063 112.408 24.7153C112.111 24.7033 111.814 24.7556 111.539 24.8688C111.264 24.982 111.018 25.1533 110.816 25.371C110.613 25.5886 110.46 25.8475 110.368 26.1299C110.274 26.4122 110.244 26.7113 110.277 27.0066V32.9137H108.233V22.9547Z" fill="black"></path><path d="M122.752 29.9891C122.477 31.797 120.716 33.0377 118.464 33.0377C115.566 33.0377 113.768 31.0965 113.768 27.9824C113.768 24.8586 115.576 22.8326 118.378 22.8326C121.133 22.8326 122.866 24.7254 122.866 27.745V28.4454H115.832V28.569C115.799 28.9355 115.845 29.3047 115.967 29.6521C116.088 29.9996 116.281 30.3172 116.535 30.584C116.788 30.8508 117.095 31.0606 117.436 31.1996C117.776 31.3385 118.143 31.4034 118.511 31.3898C118.994 31.4351 119.479 31.3232 119.893 31.0708C120.307 30.8185 120.629 30.439 120.811 29.9891H122.752ZM115.841 27.0167H120.821C120.839 26.6872 120.789 26.3574 120.674 26.0481C120.559 25.7387 120.381 25.4565 120.151 25.2192C119.922 24.9818 119.646 24.7944 119.341 24.6688C119.036 24.5432 118.708 24.482 118.378 24.4891C118.045 24.4871 117.715 24.551 117.407 24.6772C117.099 24.8034 116.819 24.9894 116.583 25.2245C116.347 25.4594 116.16 25.7388 116.033 26.0464C115.906 26.354 115.84 26.6838 115.841 27.0167Z" fill="black"></path><path d="M44.0388 8.97286C44.4673 8.94206 44.8974 9.00681 45.298 9.16242C45.6984 9.31796 46.0595 9.56048 46.3549 9.87251C46.6504 10.1844 46.8729 10.5581 47.0064 10.9665C47.14 11.3749 47.1812 11.8078 47.1271 12.2341C47.1271 14.331 45.9938 15.5363 44.0388 15.5363H41.668V8.97286H44.0388ZM42.6874 14.6081H43.9249C44.2312 14.6264 44.5376 14.5762 44.822 14.4611C45.1064 14.346 45.3615 14.169 45.5689 13.9428C45.7762 13.7168 45.9305 13.4473 46.0206 13.1539C46.1106 12.8607 46.1342 12.551 46.0895 12.2475C46.131 11.9452 46.105 11.6375 46.0136 11.3463C45.9222 11.0552 45.7674 10.7879 45.5606 10.5636C45.3537 10.3392 45.0998 10.1635 44.817 10.0488C44.5342 9.93411 44.2296 9.88344 43.9249 9.90038H42.6874V14.6081Z" fill="black"></path><path d="M48.2791 13.0576C48.248 12.732 48.2852 12.4036 48.3885 12.0933C48.4916 11.783 48.6586 11.4978 48.8786 11.2558C49.0985 11.0138 49.3666 10.8205 49.6656 10.6882C49.9646 10.5559 50.288 10.4875 50.615 10.4875C50.942 10.4875 51.2654 10.5559 51.5645 10.6882C51.8634 10.8205 52.1315 11.0138 52.3515 11.2558C52.5714 11.4978 52.7384 11.783 52.8416 12.0933C52.9448 12.4036 52.9821 12.732 52.9509 13.0576C52.9827 13.3834 52.9458 13.7123 52.8429 14.023C52.7399 14.3338 52.5731 14.6196 52.3531 14.8621C52.1331 15.1045 51.8648 15.2983 51.5655 15.4308C51.2661 15.5634 50.9424 15.6319 50.615 15.6319C50.2877 15.6319 49.9639 15.5634 49.6645 15.4308C49.3652 15.2983 49.0969 15.1045 48.8769 14.8621C48.6569 14.6196 48.4901 14.3338 48.3871 14.023C48.2842 13.7123 48.2474 13.3834 48.2791 13.0576ZM51.9454 13.0576C51.9454 11.9839 51.4631 11.356 50.6166 11.356C49.7669 11.356 49.2889 11.9839 49.2889 13.0576C49.2889 14.1398 49.767 14.7629 50.6166 14.7629C51.4631 14.7629 51.9454 14.1355 51.9454 13.0576Z" fill="black"></path><path d="M59.1604 15.5363H58.1465L57.1227 11.8883H57.0454L56.026 15.5363H55.0216L53.6562 10.5832H54.6477L55.535 14.3628H55.6081L56.6264 10.5832H57.5643L58.5826 14.3628H58.6599L59.5429 10.5832H60.5205L59.1604 15.5363Z" fill="black"></path><path d="M61.6685 10.5827H62.6095V11.3695H62.6825C62.8065 11.0869 63.0155 10.85 63.2804 10.6918C63.5454 10.5336 63.8531 10.462 64.1606 10.487C64.4017 10.4689 64.6437 10.5053 64.8687 10.5934C65.0937 10.6815 65.2961 10.8191 65.4608 10.996C65.6254 11.1729 65.7482 11.3846 65.8199 11.6155C65.8916 11.8463 65.9104 12.0902 65.8751 12.3293V15.5358H64.8976V12.5748C64.8976 11.7788 64.5517 11.3829 63.8287 11.3829C63.6651 11.3753 63.5017 11.4032 63.3499 11.4646C63.198 11.526 63.0612 11.6195 62.9489 11.7388C62.8365 11.858 62.7513 12 62.699 12.1553C62.6467 12.3105 62.6286 12.4752 62.646 12.6382V15.5359H61.6685V10.5827Z" fill="black"></path><path d="M67.4326 8.64954H68.4102V15.5363H67.4326V8.64954Z" fill="black"></path><path d="M69.7698 13.0576C69.7387 12.7321 69.776 12.4036 69.8792 12.0934C69.9825 11.7831 70.1495 11.4978 70.3694 11.2558C70.5894 11.0138 70.8575 10.8205 71.1565 10.6882C71.4556 10.5559 71.779 10.4875 72.106 10.4875C72.433 10.4875 72.7564 10.5559 73.0554 10.6882C73.3545 10.8205 73.6226 11.0138 73.8426 11.2558C74.0625 11.4978 74.2295 11.7831 74.3328 12.0934C74.436 12.4036 74.4733 12.7321 74.4421 13.0576C74.4738 13.3835 74.437 13.7124 74.334 14.0231C74.231 14.3339 74.0641 14.6197 73.8441 14.8621C73.6241 15.1046 73.3558 15.2983 73.0565 15.4309C72.7571 15.5635 72.4333 15.632 72.106 15.632C71.7786 15.632 71.4548 15.5635 71.1554 15.4309C70.8561 15.2983 70.5878 15.1046 70.3678 14.8621C70.1478 14.6197 69.9809 14.3339 69.878 14.0231C69.7749 13.7124 69.7381 13.3835 69.7698 13.0576ZM73.4361 13.0576C73.4361 11.984 72.9538 11.3561 72.1073 11.3561C71.2576 11.3561 70.7796 11.984 70.7796 13.0576C70.7796 14.1399 71.2577 14.7629 72.1073 14.7629C72.9538 14.7629 73.4361 14.1356 73.4361 13.0576Z" fill="black"></path><path d="M75.4702 14.1356C75.4702 13.244 76.1342 12.7299 77.3126 12.6569L78.6539 12.5796V12.152C78.6539 11.6289 78.3085 11.3335 77.6404 11.3335C77.0941 11.3335 76.7164 11.5338 76.6079 11.884H75.6614C75.7613 11.0332 76.5617 10.4875 77.6852 10.4875C78.9267 10.4875 79.6277 11.1057 79.6277 12.152V15.5363H78.6862V14.8402H78.6091C78.4522 15.0899 78.2315 15.2935 77.9704 15.4301C77.7086 15.5667 77.416 15.6316 77.1212 15.6179C76.9129 15.6396 76.7032 15.6174 76.5045 15.5528C76.3058 15.4883 76.1224 15.3827 75.967 15.243C75.8115 15.1034 75.6867 14.9327 75.6012 14.742C75.5156 14.5511 75.471 14.3446 75.4702 14.1356ZM78.6539 13.7123V13.2982L77.4446 13.3755C76.7626 13.4212 76.4532 13.6532 76.4532 14.0899C76.4532 14.5357 76.8396 14.7951 77.3713 14.7951C77.5275 14.8109 77.6844 14.7951 77.834 14.7488C77.9836 14.7026 78.1229 14.6266 78.2425 14.5256C78.362 14.4246 78.4603 14.3005 78.5307 14.1608C78.6018 14.0211 78.6436 13.8686 78.6539 13.7123Z" fill="black"></path><path d="M80.9116 13.0576C80.9116 11.4925 81.7168 10.501 82.9679 10.501C83.2774 10.4867 83.5846 10.5609 83.8538 10.7147C84.1229 10.8686 84.3422 11.0959 84.4866 11.37H84.56V8.64954H85.5375V15.5363H84.601V14.7538H84.5233C84.3678 15.026 84.1405 15.2505 83.8662 15.4028C83.592 15.5551 83.2818 15.6295 82.9679 15.6179C81.708 15.618 80.9116 14.6265 80.9116 13.0576ZM81.9214 13.0576C81.9214 14.1082 82.4172 14.7404 83.2451 14.7404C84.0694 14.7404 84.5783 14.0991 84.5783 13.0619C84.5783 12.0296 84.0635 11.3791 83.2451 11.3791C82.4223 11.3791 81.9214 12.0156 81.9214 13.0576Z" fill="black"></path><path d="M89.5827 13.0576C89.5519 12.732 89.5886 12.4036 89.692 12.0933C89.7954 11.783 89.9626 11.4978 90.1826 11.2558C90.4019 11.0138 90.6703 10.8205 90.9695 10.6882C91.2687 10.5559 91.5921 10.4875 91.9184 10.4875C92.2455 10.4875 92.5689 10.5559 92.8681 10.6882C93.1673 10.8205 93.4349 11.0138 93.6549 11.2558C93.8749 11.4978 94.042 11.783 94.146 12.0933C94.248 12.4036 94.286 12.732 94.255 13.0576C94.286 13.3834 94.25 13.7123 94.146 14.023C94.044 14.3338 93.8771 14.6196 93.6571 14.8621C93.4371 15.1045 93.1687 15.2983 92.8695 15.4308C92.5696 15.5634 92.2462 15.6319 91.9184 15.6319C91.5913 15.6319 91.2679 15.5634 90.968 15.4308C90.6688 15.2983 90.4004 15.1045 90.1804 14.8621C89.9604 14.6196 89.7939 14.3338 89.6905 14.023C89.5879 13.7123 89.5512 13.3834 89.5827 13.0576ZM93.2494 13.0576C93.2494 11.9839 92.7669 11.356 91.9206 11.356C91.0707 11.356 90.5925 11.9839 90.5925 13.0576C90.5925 14.1398 91.0707 14.7629 91.9206 14.7629C92.7669 14.7629 93.2494 14.1355 93.2494 13.0576Z" fill="black"></path><path d="M95.5659 10.5827H96.5069V11.3695H96.5799C96.7039 11.0869 96.9129 10.85 97.1779 10.6918C97.4429 10.5336 97.7509 10.462 98.0579 10.487C98.2989 10.4689 98.5409 10.5053 98.7659 10.5934C98.9909 10.6815 99.1939 10.8191 99.3579 10.996C99.5229 11.1729 99.6449 11.3846 99.7169 11.6155C99.7889 11.8463 99.8079 12.0902 99.7719 12.3293V15.5358H98.7949V12.5748C98.7949 11.7788 98.4489 11.3829 97.7259 11.3829C97.5629 11.3753 97.3989 11.4032 97.2469 11.4646C97.0959 11.526 96.9589 11.6195 96.8459 11.7388C96.7339 11.858 96.6489 12 96.5959 12.1553C96.5439 12.3105 96.5259 12.4752 96.5429 12.6382V15.5359H95.5659V10.5827Z" fill="black"></path><path d="M105.296 9.34991V10.6057H106.369V11.4291H105.296V13.9761C105.296 14.4949 105.509 14.7221 105.996 14.7221C106.121 14.7217 106.245 14.7142 106.369 14.6995V15.5138C106.193 15.5452 106.015 15.5619 105.837 15.5637C104.75 15.5637 104.317 15.1813 104.317 14.2264V11.4291H103.531V10.6057H104.317V9.34991H105.296Z" fill="black"></path><path d="M107.706 8.64954H108.674V11.3791H108.751C108.882 11.0939 109.096 10.8556 109.367 10.6968C109.636 10.5381 109.95 10.4665 110.262 10.4919C110.502 10.4788 110.742 10.5188 110.964 10.609C111.186 10.6993 111.386 10.8376 111.549 11.0139C111.712 11.1903 111.834 11.4005 111.906 11.6294C111.979 11.8584 112 12.1004 111.968 12.3384V15.5363H110.989V12.5796C110.989 11.7884 110.621 11.3877 109.93 11.3877C109.762 11.3739 109.593 11.397 109.435 11.4554C109.276 11.5138 109.133 11.6059 109.015 11.7255C108.896 11.8452 108.804 11.9893 108.747 12.1479C108.69 12.3064 108.668 12.4755 108.683 12.6435V15.5363H107.706V8.64954Z" fill="black"></path><path d="M117.667 14.199C117.534 14.6517 117.247 15.0433 116.855 15.3052C116.462 15.5673 115.99 15.6829 115.521 15.632C115.194 15.6407 114.87 15.5781 114.57 15.4488C114.271 15.3195 114.003 15.1266 113.785 14.8833C113.567 14.6401 113.405 14.3524 113.31 14.0402C113.214 13.728 113.188 13.3988 113.233 13.0754C113.189 12.751 113.216 12.4211 113.311 12.108C113.407 11.7948 113.568 11.5058 113.784 11.2604C114.001 11.015 114.267 10.819 114.567 10.6857C114.865 10.5524 115.189 10.4848 115.516 10.4876C116.895 10.4876 117.727 11.4292 117.727 12.9846V13.3257H114.229V13.3805C114.213 13.5622 114.236 13.7452 114.296 13.9176C114.355 14.09 114.45 14.2481 114.575 14.3817C114.699 14.5154 114.849 14.6215 115.017 14.6934C115.185 14.7654 115.365 14.8015 115.548 14.7995C115.782 14.8275 116.019 14.7854 116.228 14.6785C116.438 14.5716 116.611 14.4047 116.726 14.199H117.667ZM114.229 12.6028H116.731C116.742 12.4365 116.72 12.2695 116.664 12.1125C116.608 11.9555 116.52 11.812 116.405 11.6911C116.29 11.5703 116.151 11.4748 115.997 11.4109C115.843 11.3468 115.678 11.3158 115.511 11.3196C115.343 11.3174 115.175 11.3492 115.018 11.4129C114.861 11.4767 114.719 11.5711 114.6 11.6907C114.48 11.8103 114.386 11.9526 114.322 12.1092C114.258 12.2659 114.226 12.4336 114.229 12.6028Z" fill="black"></path><rect x="0.5" y="0.5" width="147" height="43" rx="11.5" stroke="black"></rect></g><defs><clipPath id="clip0_1841_583"><rect width="148" height="44" fill="white"></rect></clipPath></defs></svg> 