<?xml version="1.0" encoding="UTF-8"?> <svg xmlns="http://www.w3.org/2000/svg" width="8" height="7" viewBox="0 0 8 7" fill="none"><path d="M7.15996 1.57473C7.15996 1.57473 7.15996 1.56394 7.15996 1.55316C7.15996 0.248074 6.94424 0 6.28631 0H4.88415C4.22621 0 4.02128 0.248074 4.0105 1.55316C4.0105 1.55316 4.0105 1.56394 4.0105 1.57473C4.0105 1.57473 4.0105 1.58552 4.0105 1.5963C4.0105 2.90139 4.22621 3.14946 4.88415 3.14946H6.28631C6.94424 3.14946 7.14917 2.90139 7.15996 1.5963C7.15996 1.5963 7.15996 1.58552 7.15996 1.57473ZM5.59601 2.5131H4.69001C4.69001 2.5131 4.62529 2.32974 4.62529 1.57473C4.62529 0.819723 4.67922 0.657935 4.69001 0.636364H6.48045C6.48045 0.636364 6.54517 0.819723 6.54517 1.57473C6.54517 2.32974 6.49124 2.49153 6.48045 2.5131H5.59601Z" fill="#656572"></path><path d="M3.30949 1.57473C3.30949 1.57473 3.30949 1.56394 3.30949 1.55316C3.30949 0.248074 3.09378 0 2.43584 0H1.03369C0.375751 0 0.17082 0.248074 0.160034 1.55316C0.160034 1.55316 0.160034 1.56394 0.160034 1.57473C0.160034 1.57473 0.160034 1.58552 0.160034 1.5963C0.160034 2.90139 0.375751 3.14946 1.03369 3.14946H2.43584C3.09378 3.14946 3.29871 2.90139 3.30949 1.5963C3.30949 1.5963 3.30949 1.58552 3.30949 1.57473ZM1.74555 2.5131H0.839541C0.839541 2.5131 0.774826 2.32974 0.774826 1.57473C0.774826 0.819723 0.828755 0.657935 0.839541 0.636364H2.62999C2.62999 0.636364 2.6947 0.819723 2.6947 1.57473C2.6947 2.32974 2.64077 2.49153 2.62999 2.5131H1.74555Z" fill="#656572"></path><path d="M3.30949 5.42529C3.30949 5.42529 3.30949 5.4145 3.30949 5.40371C3.30949 4.09863 3.09378 3.85056 2.43584 3.85056H1.03369C0.375751 3.85056 0.17082 4.09863 0.160034 5.40371C0.160034 5.40371 0.160034 5.4145 0.160034 5.42529C0.160034 5.42529 0.160034 5.43607 0.160034 5.44686C0.160034 6.75194 0.375751 7.00002 1.03369 7.00002H2.43584C3.09378 7.00002 3.29871 6.75194 3.30949 5.44686C3.30949 5.44686 3.30949 5.43607 3.30949 5.42529ZM1.74555 6.36365H0.839541C0.839541 6.36365 0.774826 6.18029 0.774826 5.42529C0.774826 4.67028 0.828755 4.50849 0.839541 4.48692H2.62999C2.62999 4.48692 2.6947 4.67028 2.6947 5.42529C2.6947 6.18029 2.64077 6.34208 2.62999 6.36365H1.74555Z" fill="#656572"></path><path d="M7.15996 5.42529C7.15996 5.42529 7.15996 5.4145 7.15996 5.40371C7.15996 4.09863 6.94424 3.85056 6.28631 3.85056H4.88415C4.22621 3.85056 4.02128 4.09863 4.0105 5.40371C4.0105 5.40371 4.0105 5.4145 4.0105 5.42529C4.0105 5.42529 4.0105 5.43607 4.0105 5.44686C4.0105 6.75194 4.22621 7.00002 4.88415 7.00002H6.28631C6.94424 7.00002 7.14917 6.75194 7.15996 5.44686C7.15996 5.44686 7.15996 5.43607 7.15996 5.42529ZM5.59601 6.36365H4.69001C4.69001 6.36365 4.62529 6.18029 4.62529 5.42529C4.62529 4.67028 4.67922 4.50849 4.69001 4.48692H6.48045C6.48045 4.48692 6.54517 4.67028 6.54517 5.42529C6.54517 6.18029 6.49124 6.34208 6.48045 6.36365H5.59601Z" fill="#656572"></path></svg> 