<?xml version="1.0" encoding="UTF-8"?> <svg xmlns="http://www.w3.org/2000/svg" width="29" height="9" viewBox="0 0 29 9" fill="none"><path d="M10.4 4.05999C10.48 4.03999 10.55 4.00999 10.61 3.96999C10.67 3.92999 10.71 3.87999 10.73 3.81999C10.76 3.75999 10.77 3.67999 10.77 3.58999V3.41999C10.77 3.31999 10.76 3.23999 10.73 3.17999C10.7 3.11999 10.66 3.06999 10.61 3.02999C10.56 2.98999 10.49 2.95999 10.41 2.94999C10.33 2.92999 10.24 2.92999 10.13 2.92999H9.40002V4.07999H10.11C10.22 4.07999 10.31 4.07999 10.39 4.04999L10.4 4.05999Z" fill="#E41F28"></path><path d="M10.7 4.89001C10.63 4.85001 10.55 4.82001 10.46 4.81001C10.37 4.79001 10.27 4.79001 10.15 4.79001H9.40002V6.09001H10.16C10.27 6.09001 10.37 6.09001 10.46 6.07001C10.55 6.05001 10.63 6.03001 10.69 5.99001C10.75 5.95001 10.8 5.89001 10.84 5.82001C10.87 5.75001 10.89 5.66001 10.89 5.56001V5.35001C10.89 5.23001 10.87 5.14001 10.84 5.07001C10.81 5.00001 10.76 4.95001 10.69 4.91001L10.7 4.89001Z" fill="#E41F28"></path><path d="M26.69 0H2.16004C0.990039 0 0.0400391 0.95 0.0400391 2.12V6.89C0.0400391 8.06 0.990039 9.01 2.16004 9.01H26.69C27.86 9.01 28.81 8.06 28.81 6.89V2.12C28.81 0.95 27.86 0 26.69 0ZM4.25004 6.81V2.2L7.32004 4.5L4.25004 6.8V6.81ZM11.99 5.65C11.99 5.87 11.95 6.06 11.88 6.22C11.81 6.38 11.7 6.52 11.56 6.62C11.42 6.73 11.25 6.81 11.05 6.86C10.85 6.91 10.62 6.94 10.35 6.94H8.35004V2.08H10.38C10.61 2.08 10.81 2.1 10.99 2.15C11.17 2.19 11.32 2.26 11.44 2.35C11.56 2.44 11.66 2.56 11.72 2.71C11.79 2.86 11.82 3.03 11.82 3.23V3.42C11.82 3.54 11.8 3.66 11.76 3.77C11.72 3.88 11.67 3.97 11.61 4.05C11.55 4.13 11.47 4.2 11.38 4.25C11.29 4.3 11.19 4.35 11.08 4.38C11.23 4.42 11.36 4.46 11.47 4.52C11.58 4.58 11.67 4.65 11.75 4.74C11.82 4.83 11.88 4.93 11.92 5.04C11.96 5.16 11.98 5.28 11.98 5.41V5.65H11.99ZM16.17 5.22C16.17 5.46 16.15 5.66 16.1 5.85C16.05 6.03 15.98 6.19 15.9 6.32C15.81 6.45 15.71 6.57 15.6 6.66C15.48 6.75 15.36 6.82 15.22 6.88C15.08 6.94 14.94 6.98 14.79 7C14.64 7.03 14.49 7.04 14.35 7.04C14.21 7.04 14.06 7.03 13.92 7C13.77 6.97 13.63 6.93 13.5 6.88C13.36 6.82 13.24 6.75 13.12 6.66C13 6.57 12.9 6.46 12.81 6.32C12.72 6.19 12.65 6.03 12.61 5.84C12.56 5.66 12.54 5.44 12.54 5.21V2.08H13.6V5.16C13.6 5.29 13.61 5.41 13.63 5.53C13.65 5.65 13.69 5.75 13.74 5.83C13.8 5.92 13.88 5.98 13.98 6.03C14.08 6.08 14.21 6.1 14.37 6.1C14.53 6.1 14.65 6.07 14.75 6.02C14.85 5.97 14.93 5.9 14.98 5.82C15.04 5.74 15.07 5.64 15.1 5.52C15.12 5.4 15.13 5.28 15.13 5.15V2.08H16.18V5.21L16.17 5.22ZM20.43 5.64C20.43 5.88 20.39 6.08 20.3 6.26C20.21 6.44 20.09 6.58 19.92 6.7C19.75 6.81 19.56 6.9 19.34 6.96C19.12 7.02 18.87 7.05 18.6 7.05C18.29 7.05 18.01 7.01 17.77 6.94C17.53 6.87 17.33 6.77 17.17 6.64C17.01 6.51 16.9 6.34 16.82 6.15C16.74 5.95 16.7 5.73 16.7 5.49V5.45H17.77C17.77 5.56 17.79 5.66 17.83 5.75C17.87 5.84 17.92 5.92 18 5.98C18.07 6.04 18.16 6.09 18.27 6.12C18.37 6.15 18.49 6.17 18.61 6.17C18.73 6.17 18.83 6.17 18.92 6.14C19.01 6.12 19.09 6.09 19.15 6.05C19.21 6.01 19.26 5.96 19.29 5.89C19.32 5.83 19.34 5.75 19.34 5.66V5.48C19.34 5.37 19.3 5.28 19.23 5.21C19.16 5.14 19.06 5.08 18.95 5.03C18.83 4.98 18.7 4.94 18.55 4.91C18.4 4.88 18.25 4.84 18.09 4.79C17.93 4.75 17.78 4.69 17.63 4.63C17.48 4.57 17.34 4.49 17.22 4.39C17.1 4.29 17.01 4.16 16.94 4.02C16.87 3.87 16.84 3.69 16.84 3.47V3.32C16.84 3.09 16.89 2.89 16.98 2.73C17.07 2.57 17.2 2.43 17.36 2.32C17.53 2.21 17.72 2.13 17.93 2.08C18.14 2.03 18.38 2 18.63 2C18.92 2 19.18 2.04 19.39 2.11C19.61 2.18 19.79 2.29 19.93 2.42C20.08 2.55 20.19 2.71 20.26 2.89C20.34 3.07 20.37 3.26 20.37 3.47V3.69H19.29V3.52C19.29 3.41 19.27 3.32 19.24 3.24C19.21 3.16 19.16 3.1 19.1 3.05C19.04 3 18.97 2.96 18.88 2.93C18.79 2.9 18.7 2.88 18.59 2.88C18.5 2.88 18.41 2.89 18.33 2.91C18.25 2.93 18.18 2.96 18.12 3C18.06 3.04 18.01 3.09 17.98 3.15C17.95 3.21 17.93 3.28 17.93 3.35V3.47C17.93 3.59 17.97 3.68 18.04 3.74C18.11 3.81 18.21 3.86 18.32 3.91C18.44 3.95 18.57 3.99 18.73 4.02C18.88 4.05 19.04 4.08 19.19 4.12C19.34 4.16 19.5 4.21 19.65 4.27C19.8 4.33 19.94 4.41 20.05 4.51C20.17 4.61 20.26 4.73 20.33 4.88C20.4 5.03 20.44 5.22 20.44 5.44V5.65L20.43 5.64ZM24.61 2.36V5.64C24.61 5.88 24.57 6.08 24.48 6.26C24.39 6.44 24.27 6.58 24.1 6.7C23.93 6.81 23.74 6.9 23.52 6.96C23.3 7.02 23.13 7.05 22.86 7.05C22.55 7.05 22.27 7.01 22.03 6.94C21.79 6.87 21.59 6.77 21.43 6.64C21.27 6.51 21.16 6.34 21.08 6.15C21 5.95 20.96 5.73 20.96 5.49V5.45H22.03C22.03 5.56 22.05 5.66 22.09 5.75C22.13 5.84 22.18 5.92 22.26 5.98C22.33 6.04 22.42 6.09 22.53 6.12C22.63 6.15 22.75 6.17 22.87 6.17C22.99 6.17 23.06 6.17 23.15 6.14C23.24 6.12 23.32 6.09 23.38 6.05C23.44 6.01 23.49 5.96 23.52 5.89C23.55 5.83 23.57 5.75 23.57 5.66V4.95C23.46 4.99 23.35 5.02 23.24 5.04C23.09 5.07 22.94 5.08 22.8 5.08C22.66 5.08 22.51 5.07 22.37 5.04C22.22 5.01 22.08 4.97 21.95 4.92C21.81 4.86 21.69 4.79 21.57 4.7C21.45 4.61 21.35 4.5 21.26 4.36C21.17 4.23 21.1 4.07 21.06 3.88C21.01 3.7 20.99 3.48 20.99 3.25V2.09H22.05V3.19C22.05 3.32 22.06 3.44 22.08 3.56C22.1 3.68 22.14 3.78 22.19 3.86C22.25 3.95 22.33 4.01 22.43 4.06C22.53 4.11 22.66 4.13 22.82 4.13C22.98 4.13 23.1 4.1 23.2 4.05C23.3 4 23.38 3.93 23.43 3.85C23.49 3.77 23.52 3.67 23.55 3.55C23.57 3.45 23.58 3.35 23.58 3.24V2.36V2.08H24.63V2.36H24.61Z" fill="#E41F28"></path></svg> 