<?xml version="1.0" encoding="UTF-8"?> <svg xmlns="http://www.w3.org/2000/svg" width="29" height="10" viewBox="0 0 29 10" fill="none"><path d="M26.39 9.22C26.39 9.05 26.52 8.92 26.69 8.91C26.86 8.91 26.99 9.05 26.99 9.21C26.99 9.38 26.86 9.51 26.69 9.51C26.53 9.51 26.4 9.38 26.39 9.22ZM24.98 9.22C24.98 9.06 25.12 8.92 25.28 8.92C25.45 8.92 25.59 9.06 25.59 9.22C25.59 9.39 25.45 9.52 25.28 9.52C25.12 9.52 24.98 9.39 24.98 9.22ZM23.58 9.22C23.58 9.06 23.71 8.92 23.88 8.92C24.04 8.92 24.18 9.06 24.18 9.22C24.18 9.39 24.04 9.52 23.88 9.52C23.71 9.52 23.58 9.39 23.58 9.22ZM22.17 9.22C22.17 9.06 22.31 8.92 22.47 8.92C22.64 8.92 22.77 9.06 22.77 9.22C22.77 9.39 22.64 9.52 22.47 9.52C22.31 9.52 22.17 9.39 22.17 9.22ZM20.76 9.22C20.76 9.06 20.9 8.92 21.06 8.92C21.23 8.92 21.36 9.06 21.36 9.22C21.36 9.39 21.23 9.52 21.06 9.52C20.9 9.52 20.76 9.39 20.76 9.22ZM19.36 9.22C19.36 9.06 19.49 8.92 19.65 8.92C19.82 8.92 19.96 9.06 19.96 9.22C19.96 9.39 19.82 9.52 19.65 9.52C19.49 9.52 19.36 9.39 19.36 9.22ZM17.95 9.22C17.95 9.06 18.08 8.92 18.25 8.92C18.41 8.92 18.55 9.06 18.55 9.22C18.55 9.39 18.41 9.52 18.25 9.52C18.08 9.52 17.95 9.39 17.95 9.22ZM16.54 9.22C16.54 9.06 16.68 8.92 16.84 8.92C17.01 8.92 17.14 9.06 17.14 9.22C17.14 9.39 17.01 9.52 16.84 9.52C16.68 9.52 16.54 9.39 16.54 9.22ZM15.13 9.22C15.13 9.06 15.27 8.92 15.43 8.92C15.6 8.92 15.73 9.06 15.73 9.22C15.73 9.39 15.6 9.52 15.43 9.52C15.27 9.52 15.13 9.39 15.13 9.22ZM13.73 9.22C13.73 9.06 13.86 8.92 14.02 8.92C14.19 8.92 14.32 9.06 14.32 9.22C14.32 9.39 14.19 9.52 14.02 9.52C13.86 9.52 13.73 9.39 13.73 9.22ZM12.32 9.22C12.32 9.06 12.45 8.92 12.62 8.92C12.78 8.92 12.92 9.06 12.92 9.22C12.92 9.39 12.78 9.52 12.62 9.52C12.45 9.52 12.32 9.39 12.32 9.22ZM10.91 9.22C10.91 9.06 11.04 8.92 11.21 8.92C11.38 8.92 11.51 9.06 11.51 9.22C11.51 9.39 11.38 9.52 11.21 9.52C11.04 9.52 10.91 9.39 10.91 9.22ZM9.5 9.22C9.5 9.06 9.64 8.92 9.8 8.92C9.97 8.92 10.1 9.06 10.1 9.22C10.1 9.39 9.97 9.52 9.8 9.52C9.64 9.52 9.5 9.39 9.5 9.22ZM8.1 9.22C8.1 9.06 8.23 8.92 8.4 8.92C8.56 8.92 8.69 9.06 8.69 9.22C8.69 9.39 8.56 9.52 8.4 9.52C8.23 9.52 8.1 9.39 8.1 9.22ZM6.69 9.22C6.69 9.06 6.82 8.92 6.99 8.92C7.15 8.92 7.29 9.06 7.29 9.22C7.29 9.39 7.15 9.52 6.99 9.52C6.82 9.52 6.69 9.39 6.69 9.22ZM5.28 9.22C5.28 9.06 5.41 8.92 5.58 8.92C5.75 8.92 5.88 9.06 5.88 9.22C5.88 9.39 5.75 9.52 5.58 9.52C5.41 9.52 5.28 9.39 5.28 9.22ZM3.87 9.22C3.87 9.06 4.01 8.92 4.17 8.92C4.34 8.92 4.47 9.06 4.47 9.22C4.47 9.39 4.34 9.52 4.17 9.52C4.01 9.52 3.87 9.39 3.87 9.22ZM2.46 9.22C2.46 9.06 2.6 8.92 2.76 8.92C2.93 8.92 3.06 9.06 3.06 9.22C3.06 9.39 2.93 9.52 2.76 9.52C2.6 9.52 2.46 9.39 2.46 9.22ZM1.26 9.34C1.11 9.28 1.04 9.1 1.1 8.95C1.17 8.8 1.34 8.72 1.49 8.79C1.65 8.85 1.72 9.03 1.66 9.18C1.61 9.3 1.49 9.37 1.38 9.37C1.38 9.37 1.3 9.37 1.26 9.34ZM27.76 8.94C27.65 8.82 27.66 8.63 27.78 8.52C27.91 8.41 28.1 8.42 28.21 8.54C28.32 8.67 28.31 8.86 28.18 8.97C28.12 9.02 28.05 9.04 27.98 9.04C27.9 9.04 27.82 9.01 27.76 8.94ZM0.13 8.19C0.07 8.04 0.15 7.87 0.3 7.81C0.45 7.75 0.63 7.81 0.69 7.98C0.75 8.13 0.67 8.3 0.52 8.37C0.52 8.37 0.45 8.39 0.41 8.39C0.29 8.39 0.18 8.31 0.13 8.19ZM28.25 7.49C28.25 7.33 28.38 7.19 28.55 7.19C28.72 7.19 28.85 7.33 28.85 7.49C28.85 7.66 28.72 7.79 28.55 7.79C28.38 7.79 28.25 7.66 28.25 7.49ZM0 6.69C0 6.52 0.13 6.39 0.3 6.39C0.47 6.39 0.6 6.52 0.6 6.69C0.6 6.86 0.47 6.99 0.3 6.99C0.13 6.99 0 6.86 0 6.69ZM28.25 6.08C28.25 5.92 28.38 5.78 28.55 5.78C28.72 5.78 28.85 5.92 28.85 6.08C28.85 6.25 28.72 6.38 28.55 6.38C28.38 6.38 28.25 6.25 28.25 6.08ZM0 5.28C0 5.12 0.13 4.98 0.3 4.98C0.47 4.98 0.6 5.12 0.6 5.28C0.6 5.45 0.47 5.58 0.3 5.58C0.13 5.58 0 5.45 0 5.28ZM28.25 4.68C28.25 4.51 28.38 4.38 28.55 4.38C28.72 4.38 28.85 4.51 28.85 4.68C28.85 4.84 28.72 4.98 28.55 4.98C28.38 4.98 28.25 4.84 28.25 4.68ZM0 3.88C0 3.71 0.13 3.58 0.3 3.58C0.47 3.58 0.6 3.71 0.6 3.88C0.6 4.04 0.47 4.18 0.3 4.18C0.13 4.18 0 4.04 0 3.88ZM28.25 3.27C28.25 3.1 28.38 2.97 28.55 2.97C28.72 2.97 28.85 3.1 28.85 3.27C28.85 3.44 28.72 3.57 28.55 3.57C28.38 3.57 28.25 3.44 28.25 3.27ZM0 2.47C0 2.3 0.13 2.17 0.3 2.17C0.47 2.17 0.6 2.3 0.6 2.47C0.6 2.64 0.47 2.77 0.3 2.77C0.13 2.77 0 2.64 0 2.47ZM28.16 1.98C28.1 1.83 28.18 1.66 28.34 1.6C28.49 1.54 28.66 1.6 28.72 1.77C28.78 1.92 28.72 2.1 28.55 2.15C28.55 2.15 28.48 2.18 28.44 2.18C28.32 2.18 28.21 2.1 28.16 1.98ZM0.64 1.42C0.52 1.3 0.54 1.11 0.66 1C0.78 0.890002 0.97 0.900003 1.08 1.03C1.19 1.15 1.18 1.34 1.06 1.45C1 1.5 0.93 1.52 0.86 1.52C0.78 1.52 0.69 1.49 0.64 1.42ZM27.36 1.18C27.21 1.11 27.14 0.930003 27.2 0.780003C27.27 0.630003 27.45 0.560001 27.6 0.630001C27.75 0.690001 27.82 0.870002 27.76 1.02C27.71 1.13 27.6 1.2 27.48 1.2C27.48 1.2 27.4 1.19 27.36 1.18ZM1.85 0.740002C1.85 0.570002 1.98 0.440002 2.14 0.440002H2.17C2.33 0.440002 2.47 0.570002 2.47 0.740002C2.47 0.900002 2.33 1.04 2.17 1.04H2.15C1.98 1.04 1.85 0.900002 1.85 0.740002ZM25.8 0.740002C25.8 0.570002 25.93 0.440002 26.1 0.440002C26.26 0.440002 26.4 0.570002 26.4 0.740002C26.4 0.900002 26.26 1.04 26.1 1.04C25.93 1.04 25.8 0.900002 25.8 0.740002ZM24.39 0.740002C24.39 0.570002 24.52 0.440002 24.69 0.440002C24.85 0.440002 24.99 0.570002 24.99 0.740002C24.99 0.900002 24.85 1.04 24.69 1.04C24.52 1.04 24.39 0.900002 24.39 0.740002ZM22.98 0.740002C22.98 0.570002 23.11 0.440002 23.28 0.440002C23.44 0.440002 23.58 0.570002 23.58 0.740002C23.58 0.900002 23.44 1.04 23.28 1.04C23.11 1.04 22.98 0.900002 22.98 0.740002ZM21.57 0.740002C21.57 0.570002 21.71 0.440002 21.87 0.440002C22.04 0.440002 22.17 0.570002 22.17 0.740002C22.17 0.900002 22.04 1.04 21.87 1.04C21.71 1.04 21.57 0.900002 21.57 0.740002ZM20.16 0.740002C20.16 0.570002 20.3 0.440002 20.47 0.440002C20.63 0.440002 20.77 0.570002 20.77 0.740002C20.77 0.900002 20.63 1.04 20.47 1.04C20.3 1.04 20.16 0.900002 20.16 0.740002ZM18.76 0.740002C18.76 0.570002 18.89 0.440002 19.06 0.440002C19.22 0.440002 19.36 0.570002 19.36 0.740002C19.36 0.900002 19.22 1.04 19.06 1.04C18.89 1.04 18.76 0.900002 18.76 0.740002ZM17.35 0.740002C17.35 0.570002 17.48 0.440002 17.65 0.440002C17.81 0.440002 17.95 0.570002 17.95 0.740002C17.95 0.900002 17.81 1.04 17.65 1.04C17.48 1.04 17.35 0.900002 17.35 0.740002ZM15.94 0.740002C15.94 0.570002 16.08 0.440002 16.24 0.440002C16.41 0.440002 16.54 0.570002 16.54 0.740002C16.54 0.900002 16.41 1.04 16.24 1.04C16.08 1.04 15.94 0.900002 15.94 0.740002ZM14.53 0.740002C14.53 0.570002 14.67 0.440002 14.84 0.440002C15 0.440002 15.14 0.570002 15.14 0.740002C15.14 0.900002 15 1.04 14.84 1.04C14.67 1.04 14.53 0.900002 14.53 0.740002ZM13.13 0.740002C13.13 0.570002 13.26 0.440002 13.43 0.440002C13.59 0.440002 13.73 0.570002 13.73 0.740002C13.73 0.900002 13.59 1.04 13.43 1.04C13.26 1.04 13.13 0.900002 13.13 0.740002ZM11.72 0.740002C11.72 0.570002 11.85 0.440002 12.02 0.440002C12.19 0.440002 12.32 0.570002 12.32 0.740002C12.32 0.900002 12.19 1.04 12.02 1.04C11.85 1.04 11.72 0.900002 11.72 0.740002ZM10.31 0.740002C10.31 0.570002 10.45 0.440002 10.61 0.440002C10.78 0.440002 10.91 0.570002 10.91 0.740002C10.91 0.900002 10.78 1.04 10.61 1.04C10.45 1.04 10.31 0.900002 10.31 0.740002ZM8.9 0.740002C8.9 0.570002 9.04 0.440002 9.21 0.440002C9.37 0.440002 9.51 0.570002 9.51 0.740002C9.51 0.900002 9.37 1.04 9.21 1.04C9.04 1.04 8.9 0.900002 8.9 0.740002ZM7.5 0.740002C7.5 0.570002 7.63 0.440002 7.8 0.440002C7.96 0.440002 8.1 0.570002 8.1 0.740002C8.1 0.900002 7.96 1.04 7.8 1.04C7.63 1.04 7.5 0.900002 7.5 0.740002ZM6.09 0.740002C6.09 0.570002 6.22 0.440002 6.39 0.440002C6.56 0.440002 6.69 0.570002 6.69 0.740002C6.69 0.900002 6.56 1.04 6.39 1.04C6.22 1.04 6.09 0.900002 6.09 0.740002ZM4.68 0.740002C4.68 0.570002 4.82 0.440002 4.98 0.440002C5.15 0.440002 5.28 0.570002 5.28 0.740002C5.28 0.900002 5.15 1.04 4.98 1.04C4.82 1.04 4.68 0.900002 4.68 0.740002ZM3.27 0.740002C3.27 0.570002 3.41 0.440002 3.57 0.440002C3.74 0.440002 3.87 0.570002 3.87 0.740002C3.87 0.900002 3.74 1.04 3.57 1.04C3.41 1.04 3.27 0.900002 3.27 0.740002Z" fill="black"></path><path d="M3.82005 7.00999C3.59005 6.90999 3.40005 6.77999 3.25005 6.59999C3.10005 6.41999 2.99005 6.19999 2.91005 5.94999C2.83005 5.69999 2.80005 5.41999 2.80005 5.11999V4.78999C2.80005 4.49999 2.84005 4.22999 2.91005 3.97999C2.98005 3.72999 3.09005 3.51999 3.24005 3.33999C3.39005 3.15999 3.58005 3.01999 3.80005 2.91999C4.03005 2.81999 4.29005 2.76999 4.60005 2.76999C4.86005 2.76999 5.10005 2.80999 5.30005 2.89999C5.50005 2.98999 5.68005 3.09999 5.82005 3.23999C5.96005 3.37999 6.06005 3.53999 6.13005 3.71999C6.20005 3.89999 6.23005 4.07999 6.23005 4.25999V4.36999H5.59005V4.26999C5.59005 4.15999 5.57005 4.04999 5.53005 3.93999C5.49005 3.82999 5.43005 3.72999 5.34005 3.64999C5.25005 3.56999 5.15005 3.48999 5.03005 3.42999C4.91005 3.36999 4.77005 3.34999 4.60005 3.34999C4.39005 3.34999 4.21005 3.38999 4.06005 3.45999C3.91005 3.52999 3.80005 3.62999 3.71005 3.74999C3.62005 3.86999 3.56005 4.01999 3.51005 4.18999C3.46005 4.35999 3.45005 4.54999 3.45005 4.76999V5.07999C3.45005 5.30999 3.47005 5.51999 3.52005 5.70999C3.57005 5.89999 3.64005 6.04999 3.73005 6.17999C3.82005 6.30999 3.94005 6.40999 4.09005 6.47999C4.24005 6.54999 4.42005 6.58999 4.63005 6.58999C4.78005 6.58999 4.91005 6.56999 5.03005 6.50999C5.15005 6.45999 5.25005 6.39999 5.34005 6.31999C5.43005 6.23999 5.49005 6.13999 5.54005 6.02999C5.59005 5.91999 5.61005 5.79999 5.61005 5.66999V5.55999H6.25005V5.66999C6.25005 5.87999 6.21005 6.06999 6.14005 6.24999C6.07005 6.42999 5.96005 6.58999 5.82005 6.71999C5.68005 6.84999 5.51005 6.95999 5.30005 7.02999C5.09005 7.09999 4.86005 7.14999 4.59005 7.14999C4.28005 7.14999 4.01005 7.09999 3.79005 7.00999H3.82005Z" fill="black"></path><path d="M8.03005 7.12C7.89005 7.09 7.76005 7.04999 7.65005 6.98999C7.54005 6.92999 7.43005 6.85999 7.34005 6.77999C7.25005 6.69999 7.17005 6.58999 7.11005 6.45999C7.05005 6.33999 7.00005 6.2 6.97005 6.04C6.94005 5.88 6.93005 5.70999 6.93005 5.50999V2.87H7.57005V5.46999C7.57005 5.63999 7.58005 5.78999 7.61005 5.92999C7.64005 6.06999 7.68005 6.17999 7.75005 6.27999C7.82005 6.37999 7.91005 6.44999 8.04005 6.50999C8.16005 6.56999 8.32005 6.59999 8.51005 6.59999C8.70005 6.59999 8.86005 6.56999 8.98005 6.50999C9.10005 6.44999 9.19005 6.37999 9.27005 6.27999C9.34005 6.17999 9.39005 6.06999 9.41005 5.92999C9.44005 5.78999 9.45005 5.63999 9.45005 5.46999V2.87H10.0801V5.50999C10.0801 5.69999 10.0701 5.88 10.0401 6.04C10.0101 6.2 9.96005 6.33999 9.90005 6.45999C9.84005 6.57999 9.76005 6.67999 9.67005 6.76999C9.58005 6.85999 9.47005 6.92999 9.36005 6.98999C9.24005 7.04999 9.12005 7.09 8.98005 7.12C8.84005 7.15 8.69005 7.15999 8.53005 7.15999C8.36005 7.15999 8.21005 7.15 8.07005 7.12H8.03005Z" fill="black"></path><path d="M11.6401 7.07998C11.4301 7.01998 11.2601 6.93998 11.1201 6.81998C10.9801 6.69998 10.8701 6.54998 10.7901 6.37998C10.7101 6.20998 10.6801 5.99998 10.6801 5.75998V5.62998H11.3301V5.74998C11.3301 5.88998 11.3601 6.00998 11.4101 6.11998C11.4601 6.22998 11.5401 6.31998 11.6301 6.38998C11.7201 6.45998 11.8301 6.51998 11.9501 6.55998C12.0701 6.59998 12.2001 6.60998 12.3501 6.60998C12.4801 6.60998 12.6001 6.59998 12.7101 6.57998C12.8201 6.55998 12.9201 6.52998 12.9901 6.47998C13.0701 6.42998 13.1301 6.36998 13.1701 6.28998C13.2101 6.20998 13.2301 6.10998 13.2301 5.98998V5.85998C13.2301 5.72998 13.2001 5.62998 13.1301 5.54998C13.0601 5.46998 12.9701 5.40998 12.8501 5.35998C12.7301 5.30998 12.6001 5.26998 12.4601 5.22998C12.3101 5.19998 12.1701 5.15998 12.0201 5.12998C11.8701 5.09998 11.7201 5.04998 11.5801 4.99998C11.4301 4.94998 11.3001 4.88998 11.1901 4.79998C11.0801 4.70998 10.9801 4.60998 10.9101 4.48998C10.8401 4.36998 10.8101 4.20998 10.8101 4.01998V3.93998C10.8101 3.72998 10.8501 3.54998 10.9401 3.39998C11.0301 3.24998 11.1401 3.13998 11.2801 3.04998C11.4201 2.95998 11.5901 2.88998 11.7701 2.84998C11.9501 2.80998 12.1501 2.78998 12.3501 2.78998C12.5801 2.78998 12.7801 2.81998 12.9601 2.87998C13.1401 2.93998 13.3001 3.02998 13.4301 3.13998C13.5601 3.24998 13.6601 3.38998 13.7301 3.54998C13.8001 3.70998 13.8401 3.87998 13.8401 4.07998V4.19998H13.1901V4.09998C13.1901 3.96998 13.1701 3.85998 13.1301 3.76998C13.0901 3.67998 13.0301 3.59998 12.9501 3.53998C12.8701 3.47998 12.7801 3.42998 12.6701 3.39998C12.5601 3.36998 12.4401 3.34998 12.3101 3.34998C12.2101 3.34998 12.1101 3.34998 12.0101 3.37998C11.9101 3.39998 11.8201 3.42998 11.7401 3.47998C11.6601 3.52998 11.6001 3.57998 11.5501 3.64998C11.5001 3.71998 11.4801 3.80998 11.4801 3.90998V3.98998C11.4801 4.10998 11.5201 4.20998 11.5901 4.27998C11.6601 4.34998 11.7501 4.40998 11.8701 4.45998C11.9901 4.50998 12.1101 4.54998 12.2601 4.57998C12.4101 4.60998 12.5501 4.64998 12.7001 4.67998C12.8501 4.71998 13.0001 4.75998 13.1401 4.80998C13.2901 4.85998 13.4201 4.92998 13.5301 5.00998C13.6401 5.08998 13.7401 5.20998 13.8101 5.33998C13.8801 5.46998 13.9101 5.63998 13.9101 5.82998V5.93998C13.9101 6.15998 13.8701 6.34998 13.7901 6.49998C13.7101 6.64998 13.6001 6.77998 13.4601 6.87998C13.3201 6.97998 13.1501 7.04998 12.9601 7.08998C12.7701 7.12998 12.5601 7.14998 12.3401 7.14998C12.0901 7.14998 11.8601 7.11998 11.6501 7.06998L11.6401 7.07998Z" fill="black"></path><path d="M15.3601 3.43999H14.1101V2.87H17.2701V3.43999H16.0001V7.06999H15.3601V3.43999Z" fill="black"></path><path d="M18.4801 7.00999C18.2501 6.90999 18.0501 6.77999 17.9001 6.59999C17.7501 6.41999 17.6301 6.20999 17.5501 5.95999C17.4701 5.70999 17.4301 5.42999 17.4301 5.12999V4.79999C17.4301 4.50999 17.4701 4.23999 17.5501 3.99999C17.6301 3.75999 17.7501 3.53999 17.9001 3.35999C18.0501 3.17999 18.2401 3.03999 18.4701 2.92999C18.7001 2.82999 18.9601 2.76999 19.2601 2.76999C19.5701 2.76999 19.8401 2.81999 20.0801 2.91999C20.3101 3.01999 20.5101 3.15999 20.6601 3.33999C20.8201 3.51999 20.9301 3.72999 21.0001 3.97999C21.0701 4.22999 21.1101 4.49999 21.1101 4.78999V5.11999C21.1101 5.41999 21.0701 5.68999 21.0001 5.93999C20.9301 6.18999 20.8101 6.39999 20.6501 6.57999C20.4901 6.75999 20.3001 6.89999 20.0701 6.99999C19.8401 7.09999 19.5801 7.14999 19.2801 7.14999C18.9801 7.14999 18.7001 7.09999 18.4701 7.00999H18.4801ZM19.8301 6.46999C19.9801 6.38999 20.1001 6.28999 20.2001 6.15999C20.3001 6.02999 20.3601 5.87999 20.4001 5.69999C20.4401 5.51999 20.4601 5.33999 20.4601 5.13999V4.81999C20.4601 4.60999 20.4401 4.40999 20.3901 4.22999C20.3401 4.04999 20.2701 3.89999 20.1801 3.76999C20.0801 3.63999 19.9601 3.53999 19.8101 3.45999C19.6601 3.37999 19.4901 3.34999 19.2801 3.34999C19.0701 3.34999 18.8901 3.38999 18.7401 3.45999C18.5901 3.52999 18.4601 3.63999 18.3701 3.76999C18.2801 3.89999 18.2001 4.05999 18.1601 4.23999C18.1201 4.41999 18.0901 4.61999 18.0901 4.83999V5.15999C18.0901 5.35999 18.1201 5.54999 18.1701 5.72999C18.2201 5.89999 18.2901 6.05999 18.3901 6.17999C18.4901 6.29999 18.6101 6.40999 18.7601 6.47999C18.9101 6.54999 19.0901 6.58999 19.2901 6.58999C19.4901 6.58999 19.6801 6.54999 19.8301 6.47999V6.46999Z" fill="black"></path><path d="M21.8601 7.06999V2.87H22.8401L23.9301 6.27999H23.8201L24.9201 2.87H25.8501V7.06999H25.2301V3.95999L25.2501 3.54999H25.2401L24.1001 7.07999H23.5901L22.4601 3.54999H22.4501L22.4701 3.95999V7.06999H21.8501H21.8601Z" fill="black"></path></svg> 