<?xml version="1.0" encoding="UTF-8"?> <svg xmlns="http://www.w3.org/2000/svg" width="148" height="44" viewBox="0 0 148 44" fill="none"><g clip-path="url(#clip0_1841_607)"><path d="M74.9542 24.9248C74.0309 24.9291 73.1288 25.207 72.3629 25.7233C71.597 26.2396 71.0012 26.9713 70.6507 27.8259C70.3002 28.6805 70.2109 29.6198 70.3937 30.5252C70.5766 31.4306 71.0235 32.2616 71.6782 32.9132C72.3329 33.5648 73.1659 34.0078 74.0719 34.1865C74.9783 34.3651 75.9177 34.2713 76.7705 33.9168C77.6234 33.5623 78.3523 32.9631 78.8649 32.1947C79.3775 31.4264 79.6511 30.5235 79.6511 29.5998C79.6599 28.9815 79.5448 28.3678 79.3116 27.795C79.0784 27.2224 78.7322 26.7024 78.2944 26.2662C77.8559 25.83 77.3345 25.4864 76.7603 25.256C76.1868 25.0255 75.5724 24.9129 74.9542 24.9248ZM74.9542 32.4378C74.3866 32.4775 73.8197 32.3454 73.3273 32.0587C72.8353 31.772 72.4408 31.3439 72.1954 30.83C71.9499 30.3162 71.8647 29.7404 71.9508 29.1775C72.0369 28.6146 72.2904 28.0906 72.6782 27.6737C73.0661 27.2568 73.5703 26.9662 74.1254 26.8397C74.6805 26.7131 75.2613 26.7565 75.7915 26.9642C76.3217 27.172 76.7771 27.5344 77.0983 28.0044C77.4203 28.4745 77.5927 29.0303 77.5942 29.5998C77.6118 29.9606 77.5575 30.3213 77.4336 30.6606C77.3096 31 77.1189 31.3111 76.8725 31.5756C76.6268 31.84 76.3298 32.0526 76.0005 32.2007C75.6713 32.3488 75.3157 32.4294 74.9542 32.4378ZM64.7132 24.9248C63.789 24.927 62.8862 25.203 62.1189 25.718C61.3515 26.233 60.754 26.9639 60.4019 27.8184C60.0497 28.6728 59.9587 29.6124 60.1404 30.5186C60.3219 31.4247 60.7681 32.2566 61.4223 32.9094C62.0766 33.562 62.9097 34.0062 63.8162 34.1857C64.7228 34.3652 65.6622 34.272 66.5158 33.9179C67.3694 33.5637 68.0989 32.9645 68.612 32.1959C69.1252 31.4273 69.3992 30.5239 69.3992 29.5998C69.4082 28.9815 69.2927 28.3678 69.0595 27.795C68.8264 27.2224 68.4803 26.7024 68.042 26.2662C67.6038 25.83 67.0822 25.4864 66.5085 25.256C65.9347 25.0255 65.3205 24.9129 64.7022 24.9248H64.7132ZM64.7132 32.4378C64.1448 32.4797 63.577 32.3496 63.0837 32.0644C62.5903 31.7791 62.1943 31.3519 61.9471 30.8385C61.6999 30.325 61.6131 29.749 61.6978 29.1854C61.7826 28.6219 62.0349 28.0969 62.4222 27.6788C62.8095 27.2607 63.3136 26.9689 63.8691 26.8414C64.4246 26.7139 65.0055 26.7566 65.5364 26.9638C66.0672 27.1711 66.5234 27.5334 66.8454 28.0035C67.1675 28.4737 67.3407 29.0299 67.3423 29.5998C67.36 29.9606 67.3052 30.3213 67.1812 30.6606C67.0574 31 66.8668 31.3111 66.6207 31.5756C66.3746 31.84 66.0782 32.0526 65.7487 32.2007C65.4191 32.3488 65.0634 32.4294 64.7022 32.4378H64.7132ZM52.5142 26.3658V28.3458H57.2663C57.1917 29.2784 56.804 30.1584 56.1662 30.8428C55.6908 31.327 55.1192 31.7064 54.4883 31.9565C53.8574 32.2066 53.1812 32.3218 52.5031 32.2948C51.1028 32.2948 49.7598 31.7385 48.7697 30.7483C47.7794 29.7581 47.2231 28.4151 47.2231 27.0148C47.2231 25.6144 47.7794 24.2714 48.7697 23.2812C49.7598 22.2911 51.1028 21.7348 52.5031 21.7348C53.8427 21.7129 55.1363 22.2232 56.1001 23.1538L57.4972 21.7568C56.8466 21.0979 56.0702 20.5763 55.2143 20.223C54.3583 19.8697 53.4401 19.6917 52.5142 19.6998C51.5362 19.6617 50.5607 19.8214 49.6461 20.1694C48.7314 20.5174 47.8963 21.0465 47.191 21.7249C46.4857 22.4033 45.9245 23.2171 45.5412 24.1176C45.158 25.0181 44.9604 25.9866 44.9604 26.9653C44.9604 27.9439 45.158 28.9125 45.5412 29.813C45.9245 30.7134 46.4857 31.5273 47.191 32.2057C47.8963 32.8841 48.7314 33.4131 49.6461 33.7611C50.5607 34.1091 51.5362 34.2688 52.5142 34.2308C53.4557 34.2733 54.3954 34.1137 55.2701 33.7627C56.1449 33.4116 56.9342 32.8774 57.5851 32.1958C58.7376 30.9296 59.3529 29.2651 59.3011 27.5538C59.3047 27.1369 59.2679 26.7206 59.1912 26.3108L52.5142 26.3658ZM102.355 27.9058C102.068 27.0618 101.531 26.3249 100.816 25.7925C100.101 25.2602 99.2421 24.9576 98.3511 24.9248C97.7497 24.9236 97.1543 25.0458 96.6013 25.284C96.0484 25.5221 95.5512 25.871 95.1383 26.3092C94.7262 26.7473 94.408 27.2654 94.2042 27.8314C93.9996 28.3974 93.9137 28.9992 93.9511 29.5998C93.9379 30.2146 94.0487 30.8258 94.2768 31.3968C94.5048 31.9679 94.8457 32.4871 95.2791 32.9235C95.7125 33.3599 96.2288 33.7045 96.7986 33.9366C97.3677 34.1687 97.9786 34.2838 98.5932 34.2748C99.3624 34.2789 100.121 34.0922 100.8 33.7313C101.48 33.3704 102.059 32.8465 102.487 32.2068L100.892 31.1068C100.654 31.5037 100.317 31.8319 99.9138 32.0595C99.5112 32.2869 99.0559 32.4059 98.5932 32.4048C98.1165 32.423 97.6457 32.2973 97.2416 32.0443C96.8376 31.7912 96.5193 31.4223 96.3272 30.9858L102.586 28.4008L102.355 27.9058ZM95.9751 29.4678C95.9531 29.1275 95.9986 28.7863 96.1101 28.464C96.2216 28.1416 96.3953 27.8448 96.6233 27.5907C96.8507 27.3366 97.1265 27.1306 97.4345 26.9844C97.7425 26.8383 98.0768 26.7551 98.4171 26.7398C98.772 26.7164 99.1262 26.7978 99.4349 26.9738C99.7437 27.1498 99.9945 27.4126 100.155 27.7298L95.9751 29.4678ZM90.8931 33.9998H92.9501V20.2498H90.8931V33.9998ZM87.5271 25.9698H87.4501C87.1399 25.6231 86.7607 25.346 86.3354 25.1564C85.9108 24.9669 85.451 24.8692 84.9861 24.8698C83.7841 24.9281 82.6504 25.4466 81.8203 26.318C80.9901 27.1894 80.5274 28.3467 80.5274 29.5503C80.5274 30.7538 80.9901 31.9112 81.8203 32.7825C82.6504 33.6539 83.7841 34.1725 84.9861 34.2308C85.4525 34.2386 85.9145 34.1442 86.3405 33.9542C86.7659 33.7641 87.145 33.483 87.4501 33.1308H87.5161V33.8018C87.5161 35.5948 86.5591 36.5518 85.0191 36.5518C84.5065 36.5397 84.0085 36.3754 83.5891 36.0796C83.1703 35.7838 82.8484 35.37 82.6651 34.8908L80.8722 35.6388C81.2095 36.4597 81.7851 37.1612 82.5235 37.6532C83.2627 38.1451 84.1317 38.4051 85.0191 38.3998C87.4281 38.3998 89.4191 36.9808 89.4191 33.5268V25.1998H87.5271V25.9698ZM85.1731 32.4378C84.4639 32.3752 83.8032 32.0492 83.3221 31.5238C82.8411 30.9985 82.5741 30.3121 82.5741 29.5998C82.5741 28.8875 82.8411 28.201 83.3221 27.6757C83.8032 27.1504 84.4639 26.8243 85.1731 26.7618C85.5251 26.7798 85.8698 26.8681 86.1866 27.0214C86.5042 27.1747 86.7871 27.39 87.0196 27.6544C87.2528 27.9189 87.4304 28.2273 87.5418 28.5614C87.6533 28.8955 87.6972 29.2485 87.6701 29.5998C87.7001 29.9525 87.6583 30.3077 87.5469 30.6438C87.4361 30.98 87.2579 31.29 87.0233 31.5554C86.7886 31.8206 86.5033 32.0356 86.1829 32.1873C85.8631 32.3389 85.5164 32.4241 85.1622 32.4378H85.1731ZM111.991 20.2498H107.074V33.9998H109.131V28.7858H112.002C112.589 28.8279 113.177 28.7487 113.731 28.5534C114.286 28.3579 114.794 28.0505 115.224 27.65C115.654 27.2496 115.997 26.7648 116.232 26.2259C116.466 25.687 116.587 25.1055 116.587 24.5178C116.587 23.93 116.466 23.3485 116.232 22.8096C115.997 22.2708 115.654 21.786 115.224 21.3855C114.794 20.9851 114.286 20.6776 113.731 20.4822C113.177 20.2867 112.589 20.2077 112.002 20.2498H111.991ZM111.991 26.8498H109.12V22.1638H112.035C112.66 22.1638 113.261 22.4124 113.703 22.8549C114.146 23.2974 114.395 23.8975 114.395 24.5233C114.395 25.149 114.146 25.7492 113.703 26.1917C113.261 26.6342 112.66 26.8828 112.035 26.8828L111.991 26.8498ZM124.674 24.8698C123.925 24.825 123.179 25 122.529 25.3733C121.878 25.7466 121.35 26.3018 121.011 26.9708L122.837 27.7298C123.017 27.3979 123.289 27.1257 123.622 26.946C123.954 26.7663 124.331 26.687 124.707 26.7178C124.968 26.6873 125.233 26.709 125.485 26.7819C125.738 26.8548 125.973 26.9772 126.178 27.1421C126.383 27.3069 126.553 27.5109 126.678 27.7421C126.804 27.9733 126.881 28.2271 126.907 28.4888V28.6318C126.246 28.282 125.51 28.1006 124.762 28.1038C122.793 28.1038 120.802 29.2038 120.802 31.1948C120.822 31.6193 120.926 32.0356 121.109 32.4191C121.292 32.8026 121.55 33.1455 121.868 33.4276C122.186 33.7096 122.558 33.925 122.96 34.0611C123.363 34.1971 123.788 34.2511 124.212 34.2198C124.73 34.257 125.249 34.1541 125.713 33.9217C126.177 33.6895 126.571 33.3365 126.852 32.8998H126.918V33.9998H128.898V28.7088C128.898 26.2998 127.072 24.9028 124.729 24.9028L124.674 24.8698ZM124.421 32.4048C123.75 32.4048 122.815 32.0638 122.815 31.2388C122.815 30.1388 123.981 29.7758 125.015 29.7758C125.668 29.7596 126.314 29.9192 126.885 30.2378C126.816 30.8333 126.534 31.3839 126.092 31.7882C125.649 32.1925 125.075 32.4232 124.476 32.4378L124.421 32.4048ZM136.114 25.1998L133.76 31.1618H133.694L131.252 25.1998H129.052L132.715 33.5378L130.625 38.1688H132.77L138.402 25.1998H136.114ZM117.623 33.9998H119.68V20.2498H117.623V33.9998Z" fill="black"></path><path d="M52.0935 12.3326C52.1122 12.736 52.0487 13.1392 51.9069 13.5173C51.7651 13.8955 51.5479 14.2409 51.2685 14.5326C50.9566 14.8566 50.5798 15.1113 50.1628 15.28C49.7458 15.4487 49.298 15.5276 48.8485 15.5116C48.1665 15.5063 47.5012 15.2998 46.9361 14.918C46.3709 14.5362 45.931 13.9961 45.6714 13.3654C45.4118 12.7347 45.3442 12.0414 45.4769 11.3724C45.6096 10.7034 45.9368 10.0885 46.4175 9.60463C46.7335 9.28204 47.1122 9.02779 47.5304 8.85751C47.9485 8.68723 48.3971 8.60451 48.8485 8.61463C49.3135 8.61302 49.774 8.70667 50.2015 8.88963C50.5995 9.05016 50.9539 9.30272 51.2355 9.62663L50.6525 10.2096C50.433 9.94849 50.1557 9.74199 49.8426 9.60639C49.5295 9.47087 49.1892 9.41001 48.8485 9.42863C48.5049 9.42695 48.1645 9.49463 47.8478 9.62766C47.531 9.76076 47.2443 9.95641 47.0049 10.203C46.7656 10.4494 46.5785 10.7418 46.4549 11.0624C46.3313 11.383 46.2736 11.7252 46.2855 12.0686C46.2783 12.5814 46.4231 13.0847 46.7017 13.5153C46.9802 13.9458 47.38 14.2843 47.8508 14.4878C48.3214 14.6913 48.8418 14.7509 49.3463 14.6591C49.8508 14.5672 50.3168 14.328 50.6855 13.9716C51.024 13.6048 51.2192 13.1284 51.2355 12.6296H48.8485V11.8376H52.0495C52.0789 12.0009 52.0935 12.1666 52.0935 12.3326ZM57.1315 9.58263H54.1615V11.6726H56.8675V12.4646H54.1615V14.5546H57.1315V15.3686H53.2815V8.76863H57.1315V9.58263ZM60.7395 15.3686H59.8925V9.58263H58.0445V8.76863H62.6315V9.58263H60.7395V15.3686ZM65.8655 15.3686V8.76863H66.7125V15.3686H65.8655ZM70.4745 15.3686H69.6275V9.58263H67.7795V8.76863H72.3115V9.58263H70.4745V15.3686ZM80.9022 14.5106C80.2598 15.1501 79.3893 15.5091 78.4822 15.5091C77.5758 15.5091 76.7053 15.1501 76.0622 14.5106C75.4374 13.8489 75.089 12.9733 75.089 12.0631C75.089 11.1529 75.4374 10.2773 76.0622 9.61563C76.3797 9.29634 76.7566 9.0429 77.1717 8.86998C77.5875 8.69706 78.0326 8.60803 78.4822 8.60803C78.9324 8.60803 79.3776 8.69706 79.7934 8.86998C80.2084 9.0429 80.5854 9.29634 80.9022 9.61563C81.5299 10.276 81.8797 11.1521 81.8797 12.0631C81.8797 12.9741 81.5299 13.8503 80.9022 14.5106ZM76.6892 13.9606C77.1658 14.4348 77.8104 14.7011 78.4822 14.7011C79.1546 14.7011 79.7992 14.4348 80.2752 13.9606C80.7452 13.4425 81.0056 12.7681 81.0056 12.0686C81.0056 11.3691 80.7452 10.6947 80.2752 10.1766C79.7992 9.70239 79.1546 9.43611 78.4822 9.43611C77.8104 9.43611 77.1658 9.70239 76.6892 10.1766C76.2198 10.6947 75.9595 11.3691 75.9595 12.0686C75.9595 12.7681 76.2198 13.4425 76.6892 13.9606ZM83.0692 15.3686V8.76863H84.1032L87.3152 13.9056V8.76863H88.1622V15.3686H87.2822L83.9272 9.98963V15.3686H83.0692Z" fill="black"></path><path fill-rule="evenodd" clip-rule="evenodd" d="M78.4823 8.71805C78.0474 8.71805 77.6162 8.80421 77.2144 8.97156C76.8125 9.13876 76.448 9.38362 76.1415 9.69213C75.5365 10.3332 75.1992 11.1815 75.1992 12.0631C75.1992 12.9446 75.5365 13.7928 76.1415 14.4339C76.7641 15.0521 77.6052 15.3991 78.4823 15.3991C79.3601 15.3991 80.202 15.052 80.8238 14.4337C81.431 13.7939 81.7698 12.9453 81.7698 12.0631C81.7698 11.1808 81.431 10.3321 80.8238 9.69228C80.5173 9.38369 80.1528 9.13876 79.751 8.97156C79.3491 8.80421 78.9179 8.71805 78.4823 8.71805ZM77.13 8.76843C77.5583 8.58993 78.0181 8.49805 78.4823 8.49805C78.9472 8.49805 79.407 8.58993 79.8353 8.76843C80.2643 8.94699 80.6537 9.20857 80.9808 9.53813L80.9822 9.53982C81.629 10.2206 81.9898 11.124 81.9898 12.0631C81.9898 13.0023 81.629 13.9056 80.9822 14.5864L80.98 14.5887C80.3164 15.2486 79.4188 15.6191 78.4823 15.6191C77.5466 15.6191 76.649 15.2486 75.9853 14.5886L75.9824 14.5862C75.3385 13.9042 74.9792 13.0014 74.9792 12.0631C74.9792 11.1248 75.3385 10.2221 75.9824 9.54011L75.9846 9.53806C76.3116 9.2085 76.701 8.94699 77.13 8.76843ZM48.8462 8.72457C48.4098 8.71489 47.9761 8.79475 47.5719 8.95939C47.1677 9.12402 46.8016 9.36983 46.4962 9.68157C46.0307 10.15 45.7134 10.7461 45.5849 11.3938C45.4564 12.0416 45.5219 12.7129 45.7732 13.3235C46.0245 13.9342 46.4505 14.4572 46.9977 14.8269C47.5449 15.1965 48.1891 15.3964 48.8495 15.4016H48.8525C49.2866 15.4171 49.7191 15.3409 50.1217 15.1781C50.5243 15.0152 50.8881 14.7693 51.1892 14.4565C51.4583 14.1755 51.6674 13.8429 51.804 13.4787C51.9406 13.1145 52.0018 12.7263 51.9837 12.3377L52.0937 12.3326H51.9837C51.9837 12.2037 51.9744 12.0751 51.956 11.9476H48.9587V12.5196H51.3493L51.3456 12.6332C51.3284 13.1585 51.1229 13.66 50.7665 14.0462L50.7622 14.0508C50.3779 14.4224 49.892 14.6715 49.3662 14.7673C48.8402 14.8631 48.2978 14.801 47.8072 14.5887C47.3166 14.3766 46.8998 14.0239 46.6094 13.5751C46.3195 13.127 46.1686 12.6033 46.1756 12.0697C46.1636 11.7125 46.2238 11.3564 46.3524 11.0228C46.4813 10.6884 46.6765 10.3835 46.9262 10.1263C47.1758 9.86916 47.4748 9.66507 47.8053 9.52625C48.1347 9.38795 48.4886 9.31733 48.8459 9.31857C49.2025 9.29965 49.5587 9.3636 49.8864 9.5055C50.1785 9.63193 50.4409 9.81717 50.6574 10.0493L51.0839 9.62283C50.8257 9.34835 50.5107 9.13289 50.1605 8.99165L50.1583 8.99077C49.7446 8.81367 49.299 8.72311 48.849 8.72465L48.8462 8.72457ZM52.2037 12.3301C52.2227 12.7476 52.1568 13.1646 52.01 13.5559C51.863 13.9481 51.6377 14.3063 51.3481 14.6087C51.0254 14.9439 50.6355 15.2075 50.2042 15.382C49.7734 15.5563 49.3107 15.6379 48.8462 15.6216C48.1431 15.6158 47.4573 15.4027 46.8746 15.0092C46.2915 14.6152 45.8376 14.058 45.5698 13.4073C45.302 12.7565 45.2322 12.0412 45.3691 11.351C45.506 10.6609 45.8435 10.0265 46.3393 9.52735C46.6657 9.1942 47.057 8.93152 47.489 8.75567C47.9206 8.57989 48.3837 8.49445 48.8497 8.50465C49.3288 8.50318 49.8032 8.59969 50.2438 8.78801C50.6576 8.95513 51.0259 9.21774 51.3187 9.55441L51.3859 9.63185L50.6456 10.3722L50.5684 10.2804C50.3598 10.0323 50.0964 9.83616 49.799 9.70739C49.5015 9.57861 49.1783 9.52075 48.8546 9.53843L48.8481 9.53879C48.5193 9.53718 48.1936 9.60179 47.8905 9.72909C47.5873 9.85647 47.313 10.0437 47.084 10.2796C46.8549 10.5154 46.6759 10.7952 46.5577 11.102C46.4394 11.4087 46.3842 11.7362 46.3956 12.0648L46.3957 12.0702C46.3888 12.5612 46.5274 13.0432 46.7942 13.4555C47.0609 13.8679 47.4438 14.1919 47.8945 14.3869C48.3452 14.5818 48.8436 14.6388 49.3267 14.5509C49.8088 14.4631 50.2542 14.2348 50.6069 13.8947C50.9005 13.5756 51.0797 13.1694 51.1187 12.7396H48.7387V11.7276H52.1416L52.1579 11.8181C52.1883 11.9871 52.2035 12.1584 52.2037 12.3301ZM53.1717 8.65865H57.2417V9.69265H54.2717V11.5626H56.9777V12.5746H54.2717V14.4446H57.2417V15.4786H53.1717V8.65865ZM53.3917 8.87865V15.2586H57.0217V14.6646H54.0517V12.3546H56.7577V11.7826H54.0517V9.47265H57.0217V8.87865H53.3917ZM57.9347 8.65865H62.7417V9.69265H60.8497V15.4786H59.7827V9.69265H57.9347V8.65865ZM58.1547 8.87865V9.47265H60.0027V15.2586H60.6297V9.47265H62.5217V8.87865H58.1547ZM65.7557 8.65865H66.8227V15.4786H65.7557V8.65865ZM65.9757 8.87865V15.2586H66.6027V8.87865H65.9757ZM67.6697 8.65865H72.4217V9.69265H70.5847V15.4786H69.5177V9.69265H67.6697V8.65865ZM67.8897 8.87865V9.47265H69.7377V15.2586H70.3647V9.47265H72.2017V8.87865H67.8897ZM82.9593 8.65865H84.1649L87.2053 13.5222V8.65865H88.2723V15.4786H87.2214L84.0373 10.3738V15.4786H82.9593V8.65865ZM83.1793 8.87865V15.2586H83.8173V9.60538L87.3439 15.2586H88.0523V8.87865H87.4253V14.289L84.0424 8.87865H83.1793ZM76.6123 10.0987C77.1088 9.60391 77.7812 9.32613 78.4823 9.32613C79.1841 9.32613 79.8566 9.60391 80.353 10.0987L80.3574 10.1026C80.8458 10.6409 81.1157 11.3418 81.1157 12.0686C81.1157 12.7955 80.8451 13.4962 80.3574 14.0345L80.353 14.0387C79.8566 14.5335 79.1841 14.8111 78.4823 14.8111C77.7812 14.8111 77.1088 14.5333 76.6123 14.0385L76.6893 13.9606L76.6079 14.0345C76.1195 13.4962 75.8496 12.7955 75.8496 12.0686C75.8496 11.3418 76.1195 10.641 76.6079 10.1027L76.6123 10.0987ZM76.7692 13.8847C77.2246 14.3371 77.8406 14.5911 78.4823 14.5911C79.1247 14.5911 79.7407 14.3371 80.1961 13.8847C80.6464 13.3871 80.8957 12.7399 80.8957 12.0686C80.8957 11.3974 80.6464 10.7502 80.1961 10.2526C79.7407 9.80008 79.1247 9.54613 78.4823 9.54613C77.8406 9.54613 77.2246 9.80015 76.7692 10.2526C76.319 10.7502 76.0696 11.3974 76.0696 12.0686C76.0696 12.7399 76.319 13.3871 76.7692 13.8847Z" fill="black"></path><path d="M11.545 35.9685L25.0207 21.9916L11.5563 8.03986C11.1967 8.25707 10.9741 8.75999 10.9741 9.4183V34.6034C10.979 35.2617 11.1935 35.7279 11.545 35.9685Z" fill="black"></path><path d="M25.5032 21.6054L29.5173 17.4416L13.171 8.14488C12.8958 7.979 12.5831 7.89137 12.2646 7.89093L25.5016 21.6037L25.5032 21.6054Z" fill="black"></path><path d="M25.5035 22.3788L12.2246 36.1519C12.5579 36.1577 12.8862 36.0674 13.1729 35.8912L29.5514 26.5694L25.5035 22.3788Z" fill="black"></path><path d="M35.4391 20.8151L29.9996 17.7156L25.876 21.9931L30.0302 26.2973L35.4375 23.2062C36.5874 22.5495 36.5874 21.4685 35.4391 20.8151Z" fill="black"></path><rect x="0.5" y="0.5" width="147" height="43" rx="11.5" stroke="black"></rect></g><defs><clipPath id="clip0_1841_607"><rect width="148" height="44" fill="white"></rect></clipPath></defs></svg> 