<?xml version="1.0" encoding="UTF-8"?> <svg xmlns="http://www.w3.org/2000/svg" width="70" height="92" viewBox="0 0 70 92" fill="none"><path fill-rule="evenodd" clip-rule="evenodd" d="M67.3292 65.8288L69.2131 58.8905C69.2131 58.8905 66.707 55.8369 64.4626 55.6115C67.1819 51.5267 63.554 45.9329 57.1766 49.1608C56.0005 51.6903 51.6602 58.7709 51.6602 58.7709C51.6602 58.7709 43.7256 62.3514 35.1861 66.1498C32.6878 65.0685 30.183 63.975 27.9188 62.9864C24.8477 61.6457 22.219 60.498 20.6486 59.8358C10.9477 55.7208 9.41473 48.1875 9.41473 48.1875L3.55956 50.2711C3.55956 50.2711 1.51506 55.928 3.38869 58.0782C-2.04435 59.2762 1.03704 66.2167 4.12284 66.4264C6.2976 66.5607 7.70129 66.1532 8.99942 65.7764C10.9502 65.2101 12.6625 64.713 16.3948 66.2275C17.7515 66.7732 21.3929 68.3136 25.9169 70.2362C21.0864 72.3398 17.0193 74.0727 15.342 74.6855C9.86103 76.6796 3.49983 72.303 3.49983 72.303L0.181641 77.5782C0.181641 77.5782 2.64308 81.5983 4.63093 83.1578C3.37353 91.6921 9.90782 93.1563 13.1751 88.7677C15.2545 86.1173 18.3593 82.3433 18.3593 82.3433C18.3593 82.3433 46.0913 69.2477 52.7165 67.1339C59.3416 65.0201 67.3292 65.8288 67.3292 65.8288ZM23.4916 54.7683L47.208 53.2818C47.56 42.2807 48.738 39.0087 59.4764 37.4153C64.9917 23.6927 63.0237 1.25787 37.6893 0.142815C12.3549 -0.972241 6.67226 22.5233 12.2413 36.8923C21.9102 39.445 23.4734 41.7299 23.4916 54.7683ZM49.7406 72.0413L47.3224 74.8487L44.3584 74.5292L42.672 77.3294L54.4658 82.424C54.4658 82.424 56.2777 85.9633 58.5131 90.6832C62.2016 92.9521 69.0501 87.6712 64.5478 82.5672C67.2343 81.9053 69.2177 77.0055 69.2177 77.0055L65.0001 71.4379C65.0001 71.4379 59.757 75.1887 49.7406 72.0413ZM25.342 33C25.342 33 30.9134 31 32.7705 25.6667C32.7705 25.6667 22.4789 27.8333 15.4372 20L14.8958 21.625C15.9436 30.9651 25.342 33 25.342 33ZM46.158 33C46.158 33 40.5866 31 38.7295 25.6667C38.7295 25.6667 49.0211 27.8333 56.0628 20L56.6042 21.625C55.5564 30.9651 46.158 33 46.158 33Z" fill="black"></path></svg> 