<?xml version="1.0" encoding="UTF-8"?> <svg xmlns="http://www.w3.org/2000/svg" width="351" height="229" viewBox="0 0 351 229" fill="none"><g clip-path="url(#clip0_2830_314)"><rect width="351" height="229" rx="13.3968" fill="white"></rect><path d="M153.77 70.7826C153.343 69.5001 153.343 68.2176 152.488 65.2251C152.254 64.3702 151.633 59.2406 151.633 56.2473C151.633 53.2547 152.06 51.1184 152.487 48.9814L152.488 48.9797C152.915 46.8421 155.48 44.7054 156.335 43.8496C157.019 43.1649 158.33 43.5643 158.9 43.8496C158.9 43.1371 159.071 41.3701 159.755 40.002C160.61 38.292 162.748 37.4378 165.741 36.1553C168.733 34.8728 180.276 37.0103 183.268 37.8653C186.261 38.7204 192.246 43.4229 194.383 44.7054C196.521 45.988 197.803 51.118 197.803 52.4005C197.803 53.6831 197.376 63.9432 196.948 65.2251C196.521 66.5069 196.948 66.5082 196.093 66.9351C195.238 67.3619 195.238 69.9283 195.238 70.7826C195.238 71.637 193.528 75.0583 192.673 75.4859C191.818 75.9134 191.818 72.4933 190.963 69.5008C190.108 66.5082 190.963 66.0807 190.536 64.3707C190.108 62.6607 189.253 60.5232 188.826 60.0956C188.398 59.6681 184.978 60.5232 182.616 60.0956C181.536 59.2406 181.986 57.9581 181.131 57.9581C180.276 57.9581 181.131 59.6681 179.848 60.0956C178.566 59.6681 178.138 58.8131 177.283 59.2406C176.428 59.6681 176.001 60.5232 175.146 60.0956C174.291 59.6681 173.436 58.8131 172.581 58.385C171.726 57.9568 171.726 58.8131 171.298 59.6681C170.871 60.5232 170.016 60.5232 169.161 60.0956C168.306 59.6681 166.596 58.385 166.168 58.385C165.741 58.385 164.458 60.5232 164.03 60.5232C163.603 60.5232 162.748 59.24 162.748 58.385C162.748 57.53 161.465 57.9575 161.038 58.385C160.61 58.8125 158.473 65.6526 158.045 66.9351C157.618 68.2176 156.763 71.6376 155.48 72.0651C154.198 72.4927 154.198 72.0651 153.77 70.7826Z" fill="white"></path><path d="M122.992 215.707V212.715L125.13 211.86L159.758 207.585L200.798 202.455L196.523 216.99C195.953 217.132 194.899 217.417 195.241 217.417C195.668 217.417 195.241 218.7 195.241 219.555C195.241 220.41 195.241 220.837 194.813 221.265C194.386 221.692 192.676 221.692 190.538 221.692C188.401 221.692 168.308 219.982 162.75 219.555C157.193 219.127 136.672 217.845 132.825 217.417C129.747 217.075 125.842 216.99 124.275 216.99L122.992 215.707Z" fill="#E9E9EA"></path><path d="M115.293 126.788C114.267 127.814 112.3 131.776 111.445 133.628V134.483C111.445 134.911 113.155 135.338 113.155 134.911C113.155 134.483 116.148 131.918 117.43 130.208C118.713 128.498 122.56 122.941 123.415 122.086C124.27 121.231 128.118 113.963 128.973 112.681C129.828 111.398 132.393 104.558 132.821 103.703C133.163 103.019 133.248 102.278 133.248 101.993C132.536 102.278 130.854 102.933 129.828 103.275C128.546 103.703 125.553 105.413 124.698 105.84C123.843 106.268 123.415 108.406 123.843 110.116C124.27 111.826 122.56 114.818 121.278 116.528C119.995 118.238 116.575 125.506 115.293 126.788Z" fill="#F5F5F7"></path><path d="M132.821 148.164C132.479 147.822 130.683 145.171 129.828 143.889C130.541 142.178 132.051 138.416 132.393 137.048C132.821 135.338 138.806 125.078 139.661 123.368C140.516 121.658 141.798 116.101 141.798 115.246C141.798 114.391 143.081 113.536 143.936 112.681C144.791 111.826 146.501 110.116 147.356 108.406C148.211 106.696 148.638 102.848 149.066 100.71C149.408 99.0004 149.208 98.2879 149.066 98.1454C151.488 97.2904 156.504 95.4949 157.188 95.1529C157.872 94.8108 159.753 94.1553 160.608 93.8703C160.751 96.0079 161.121 100.881 161.463 103.275C161.891 106.268 162.746 111.398 163.601 114.391C164.456 117.383 170.869 126.788 171.724 128.926C172.408 130.636 175.144 135.053 176.426 137.048C176.854 136.336 177.794 134.654 178.136 133.628C178.564 132.346 182.839 126.361 184.121 122.941C185.404 119.521 187.969 116.956 188.396 115.246C188.824 113.536 190.961 110.116 190.961 107.978C190.961 105.84 191.389 99.8554 191.389 98.5729C191.389 97.5469 189.964 95.2954 189.251 94.2978L188.824 92.1603L189.679 87.8853L190.534 88.3128C191.104 89.3103 192.415 91.5618 193.099 92.5878C193.954 93.8703 195.664 99.8554 195.664 101.138C195.664 102.42 196.946 108.406 196.946 110.543C196.946 112.681 198.656 114.391 199.511 115.246C200.367 116.101 201.649 116.101 202.504 116.101C203.188 116.101 205.069 118.951 205.924 120.376L210.627 133.201L217.039 151.156L215.757 156.286L208.062 178.516H137.951C138.236 176.521 138.806 172.446 138.806 172.104V157.141C138.806 156.115 138.521 150.159 138.378 147.309L134.958 151.156C134.388 150.301 133.163 148.506 132.821 148.164Z" fill="#F5F5F7"></path><path d="M209.772 100.71C209.43 99.6844 208.774 97.1479 208.489 96.0079C209.059 96.0079 210.87 96.8381 212.337 97.7179C214.474 99.0004 218.322 100.71 220.032 101.565C221.742 102.42 226.872 104.985 229.437 106.696C232.002 108.406 232.002 109.261 233.284 114.391C234.31 118.495 235.707 122.656 236.277 124.223C235.279 124.366 232.942 124.651 231.574 124.651C229.864 124.651 227.727 124.651 226.444 125.506C225.418 126.19 224.877 126.646 224.734 126.788C222.169 123.083 216.868 115.417 216.184 114.391C215.329 113.108 211.909 106.696 211.054 105.84C210.199 104.985 210.199 101.993 209.772 100.71Z" fill="#F5F5F7"></path><path d="M67.4167 56.6755C65.0227 53.9395 57.5841 43.5653 54.1641 38.7203L54.5916 37.8653H58.8666C59.0091 38.4353 59.3796 39.8318 59.7216 40.8578C60.1491 42.1403 61.0042 42.5678 61.8592 43.8503C62.7142 45.1329 63.5692 45.9879 63.9967 46.4154C64.4242 46.8429 65.7067 47.6979 66.5617 48.1254C67.4167 48.5529 66.9892 47.6979 66.9892 47.2704C66.9892 46.8429 66.9892 45.5604 66.1342 44.2779C65.2792 42.9953 65.2792 40.8578 64.4242 40.0028C63.5692 39.1478 64.4242 38.2928 64.8517 38.2928H72.9743C75.0263 38.2928 79.5294 37.4378 81.5244 37.0103C83.377 40.1453 87.5095 47.0994 89.2195 49.8354C91.3571 53.2555 97.7696 59.6681 99.9072 61.8056C102.045 63.9431 113.16 70.3557 115.725 72.0657C118.29 73.7758 122.137 74.2033 122.565 74.6308C122.992 75.0583 121.71 75.4858 120.427 76.3408C119.145 77.1958 113.587 78.4783 111.022 79.3333C108.457 80.1883 99.0522 81.8984 97.7696 81.8984C96.4871 81.8984 96.0596 83.1809 93.9221 81.4709C91.7846 79.7608 84.0895 73.3482 79.8144 70.7832C75.5394 68.2182 70.4093 60.0956 67.4167 56.6755Z" fill="#F5F5F7"></path><path d="M122.938 212.086L194.607 217.342C195.175 217.383 195.581 217.908 195.48 218.469L195.124 220.425C194.948 221.39 194.073 222.066 193.095 221.993L124.71 216.866C123.711 216.791 122.938 215.958 122.938 214.955V212.086ZM122.938 212.086L200.446 202.649" stroke="#C4C3C7" stroke-width="1.14969" stroke-linecap="round" stroke-linejoin="round"></path><path d="M299.23 210.422L198.848 221.093C197.816 221.203 197.011 220.217 197.326 219.228L226.863 126.47C227.165 125.522 228.021 124.859 229.015 124.805L328.068 119.388C329.761 119.295 331.012 120.942 330.468 122.548L301.245 208.809C300.945 209.694 300.159 210.323 299.23 210.422Z" fill="#E9E9EA"></path><path d="M198.848 221.093L299.23 210.422C300.159 210.323 300.945 209.694 301.245 208.809L330.468 122.548C331.012 120.942 329.761 119.295 328.068 119.388L229.015 124.805M198.848 221.093C197.816 221.203 197.011 220.217 197.326 219.228L226.863 126.47C227.165 125.522 228.021 124.859 229.015 124.805M198.848 221.093C197.326 221.326 195.508 220.607 195.796 218.499C196.083 216.392 224.634 128.392 225.161 126.907C225.688 125.422 226.689 124.932 229.015 124.805" stroke="#C4C3C7" stroke-width="1.14969" stroke-linecap="round" stroke-linejoin="round"></path><path d="M28.0859 227.175L53.5229 191.774H100.66L80.1096 229.331C78.0338 229.075 70.7875 228.286 58.4091 227.175C46.0308 226.064 33.036 226.712 28.0859 227.175Z" fill="#F5F5F7" stroke="#C4C3C7" stroke-width="1.14969" stroke-linecap="round" stroke-linejoin="round"></path><path d="M138.383 178.089C138.782 175.694 139.118 169.785 138.888 162.696C138.75 158.45 138.602 152.577 138.342 147.031M136.972 132.612C137.646 135.357 138.059 141.001 138.342 147.031M138.342 147.031C137.51 148.083 136.361 149.543 135.1 151.156M151.487 79.2469C150.417 79.1191 148.018 78.9403 146.984 79.2469C145.69 79.6301 136.78 89.4504 136.109 90.7917C135.439 92.133 135.439 92.2768 134.05 99.2707C133.884 100.105 133.685 100.952 133.454 101.81M142.912 88.1569C145.758 85.1683 150.502 80.2151 153.791 76.8516M145.594 90.2648C148.792 86.7411 154.5 80.4831 157.379 77.4212M148.373 92.66C150.656 90.2364 154.413 86.1268 157.001 82.9834M157.379 77.4212C158.309 76.4315 158.944 75.7757 159.103 75.654C159.918 75.0312 158.433 72.5402 157.379 73.3067C157.072 73.5295 155.669 74.9315 153.791 76.8516M157.379 77.4212C158.816 76.8888 160.349 76.8517 159.822 78.9595C159.665 79.5881 158.54 81.1151 157.001 82.9834M157.001 82.9834C157.814 82.9994 159.515 83.223 159.822 83.9894C160.205 84.9475 159.87 85.7619 159.103 86.5283C158.9 86.7312 158.248 87.4205 157.379 88.352M118.255 175.294C121.793 170.756 125.194 164.256 127.295 161.354C128.959 159.057 132.305 154.731 135.1 151.156M118.255 175.294C116.711 177.275 115.142 178.882 113.643 179.654C108.708 182.192 99.9899 186.264 96.0139 179.654C92.0379 173.043 93.7145 158.241 100.134 150.432C103.74 146.045 108.587 140.644 113.213 135.199M118.255 175.294C119.994 172.564 119.918 171.606 121.307 168.013C122.696 164.42 126.672 151.774 129.547 144.3C129.628 144.089 129.711 143.874 129.796 143.658M113.213 135.199C116.82 130.953 120.291 126.68 122.936 122.839C128.251 115.119 131.747 108.142 133.454 101.81M113.213 135.199L111.008 134.193C113.994 129.466 120.464 118.978 122.457 114.84C124.948 109.666 123.559 107.702 124.181 106.361C124.68 105.288 130.571 102.88 133.454 101.81M149.452 98.2648C149.64 97.4687 149.85 96.8408 150.097 96.4924C150.872 95.4003 154.963 90.9407 157.379 88.352M149.452 98.2648C148.84 100.862 148.469 105.248 147.846 107.558C147.032 110.576 143.391 113.019 142.481 113.594C141.57 114.169 142.097 118.337 139.75 122.456C137.469 126.459 132.701 136.251 129.796 143.658M149.452 98.2648L158.337 95.0073M158.337 95.0073C156.74 99.159 153.202 108.43 151.822 112.301C150.442 116.171 148.948 119.822 148.373 121.163L157.001 118.959C157.063 121.067 157.59 125.819 159.199 127.965C161.211 130.648 168.54 133.187 171.654 136.253C174.145 138.705 175.758 141.203 176.253 142.145M158.337 95.0073L160.924 93.7139M176.253 142.145L176.54 137.354M176.253 142.145C175.95 144.221 175.285 150.078 175.055 156.899C174.825 163.721 174.8 171.175 174.816 174.049M176.54 137.354C175.263 135.438 172.152 130.447 169.93 125.81C167.151 120.013 163.127 114.504 162.265 108.947M176.54 137.354C177.658 134.8 180.679 128.492 183.822 123.702C187.75 117.714 188.229 116.42 190.145 110.768C190.453 109.858 190.695 108.943 190.88 108.037M162.265 108.947C161.403 103.391 160.732 97.7379 160.924 93.7139M162.265 108.947C165.331 111.965 170.313 114.504 176.924 114.504C183.534 114.504 190.274 109.714 190.88 108.037M160.924 93.7139C159.868 92.1034 157.681 88.7763 157.379 88.352M160.924 93.7139C162.473 96.4924 166.433 102.547 169.882 104.54C174.193 107.031 179.75 106.169 182.768 102.624C185.786 99.0792 187.319 98.0253 188.756 93.7139M188.756 93.7139C189.219 94.0173 190.27 95.084 190.768 96.9235C191.29 98.853 191.847 103.312 190.88 108.037M188.756 93.7139C189.139 92.1741 189.915 88.7757 189.953 87.5001M178.504 141.857C179.399 140.069 182.222 135.592 186.361 131.989C190.5 128.387 193.419 125.889 194.361 125.091C194.313 122.6 194.294 117.417 194.6 116.612C194.983 115.606 196.804 116.133 197.426 116.372C197.925 116.564 201.69 119.71 203.51 121.259M217.115 151.869C215.566 147.271 211.759 136.051 208.923 127.965C205.379 117.858 203.989 117.522 203.031 116.612C202.073 115.702 200.157 116.995 198.145 113.881C196.133 110.768 196.181 102.911 195.606 99.7019C195.031 96.4924 192.828 92.7079 191.486 89.9774C191.081 89.1515 190.522 88.3036 189.953 87.5001M189.474 82.6002C189.091 82.2649 188.181 82.6481 187.654 83.4625C187.287 84.0305 188.644 85.6473 189.953 87.5001M189.474 82.6002C189.781 82.8685 195.255 90.1211 197.953 93.7139M189.474 82.6002C189.091 82.0573 188.334 80.7415 188.373 79.8218C188.421 78.6721 190.241 78.9116 190.768 79.5344M190.768 79.5344C191.189 80.0326 197.458 87.5024 200.54 91.175M190.768 79.5344C190.017 78.9116 188.564 77.4649 188.756 76.6601C188.995 75.6541 190.528 75.223 191.486 75.9416M191.486 75.9416C192.141 76.4326 194.339 78.6681 196.277 80.7837M191.486 75.9416C191.359 74.9995 191.103 72.253 191.103 68.8039M203.175 89.4026C202.297 88.205 200.157 85.3403 198.624 83.4625C198.017 82.7191 197.175 81.7643 196.277 80.7837M196.277 80.7837C196.66 80.5269 197.628 79.9176 198.432 79.5344C199.438 79.0553 201.115 80.7799 202.456 82.7918C203.644 84.573 206.821 90.6716 208.432 95.8696M225.019 127.055C222.001 122.52 215.477 112.732 213.522 109.858C211.079 106.265 210.265 103.343 208.971 97.8337C208.823 97.2017 208.641 96.5432 208.432 95.8696M208.432 95.8696C209.937 96.6041 214.126 98.581 218.84 100.612C224.732 103.151 229.714 105.642 232.157 111.007C234.111 115.299 235.471 121.477 235.855 124.223M191.103 68.8039C191.023 70.4166 191.199 73.9009 192.54 74.9356C192.953 75.2538 193.313 75.2096 193.625 74.9356M191.103 68.8039C190.934 63.9178 189.474 60.4206 188.133 59.5583C186.792 58.696 185.115 60.4206 183.534 60.8038C181.954 61.187 182.049 58.1691 181.331 57.7858C180.612 57.4026 181.906 60.4206 180.9 60.4206C179.894 60.4206 180.037 60.0373 178.552 59.175C177.067 58.3128 177.067 60.0373 175.822 60.4206C174.576 60.8038 173.091 58.4086 172.373 58.4086C171.654 58.4086 171.271 60.4206 169.594 60.4206C167.918 60.4206 166.912 58.217 166.001 58.4086C165.091 58.6002 164.708 61.2349 163.702 60.4206C162.897 59.7691 162.185 58.3926 161.93 57.7858C161.626 57.8976 160.895 58.5044 160.397 60.0373C159.774 61.9535 157.858 67.702 157.001 69.762C156.145 71.822 155.367 73.0193 154.217 71.4385C153.738 70.7795 153.35 69.621 153.019 68.1331M197.043 66.6003C195.941 66.4566 195.51 67.9895 195.271 69.762C195.09 71.0983 194.583 74.0959 193.625 74.9356M197.043 66.6003C198.145 66.744 199.343 70.6718 198.432 73.3067C197.522 75.9416 196.947 78.3368 195.989 78.0493C195.223 77.8194 194.094 75.8777 193.625 74.9356M197.043 66.6003C197.123 64.7959 197.398 59.9416 197.858 54.9596C198.432 48.7321 195.271 45.0914 192.54 43.2711C189.81 41.4507 183.918 35.319 171.271 35.6543C158.624 35.9897 158.864 42.0254 158.864 43.8458C157.922 43.5424 155.568 43.6254 153.69 46.3847C151.343 49.8338 151.295 55.4385 151.87 60.4206C152.205 63.3257 152.557 66.0517 153.019 68.1331M153.019 68.1331C150.912 67.8457 150.337 68.5642 150.193 71.2468C150.049 73.9295 151.008 76.9474 152.014 77.5702C152.818 78.0684 153.534 77.2987 153.791 76.8516M129.796 143.658L135.1 151.156" stroke="#C4C3C7" stroke-width="1.14969" stroke-linecap="round" stroke-linejoin="round"></path><path d="M179.125 96.0587C176.41 96.0587 170.722 96.0587 169.688 96.0587C168.653 96.0587 168.043 95.6116 167.867 95.388M172.61 82.1187C172.562 84.1306 172.562 85.8073 172.37 86.6216C172.179 87.436 170.789 88.5857 171.316 89.3521C171.738 89.9653 172.929 90.5018 173.472 90.6935" stroke="#C4C3C7" stroke-width="1.14969" stroke-linecap="round" stroke-linejoin="round"></path><path d="M178.028 79.1499H185.118M161.898 78.0501C163.479 79.583 169.019 79.1978 169.594 79.1499M162.459 71.1499C164.088 73.2098 168.974 74.8385 170.603 74.7906M176.208 74.5032C177.597 74.2158 181.573 74.9343 185.118 71.1499" stroke="#C4C3C7" stroke-width="1.14969" stroke-linecap="round" stroke-linejoin="round"></path><path d="M9.27344 16.3394C14.2874 21.4012 24.756 31.9944 26.5189 33.8722C28.7224 36.2195 30.4949 35.7405 31.453 33.8722C31.9479 32.9071 31.305 32.0442 30.5349 31.0459M24.7464 0.243652C28.946 3.2616 37.5751 9.82444 38.4948 11.9322C39.2298 13.6166 39.3383 13.7347 38.4948 14.0138M38.4948 14.0138C38.0189 14.1712 37.24 14.38 36.0996 14.9502C32.938 16.531 28.6266 24.8663 28.8661 27.6926C28.9819 29.0589 29.8141 30.1117 30.5349 31.0459M38.4948 14.0138L47.3571 20.7465C46.9651 20.7733 46.4715 20.8429 45.92 20.9672M30.5349 31.0459C31.9746 32.3074 35.1032 35.0411 36.0996 35.8842C37.3451 36.9381 39.5487 36.4111 38.4948 34.8303C38.183 34.3625 37.955 33.7101 37.8457 32.9141M37.8457 32.9141C37.5856 31.0203 37.9972 28.3134 39.5487 25.3453C40.9418 22.6804 43.8424 21.4353 45.92 20.9672M37.8457 32.9141C39.116 33.8882 41.7715 36.6411 42.2313 39.8602C42.8062 43.8842 44.1401 44.9175 45.6114 46.8418C46.7536 48.3356 48.6301 50.3991 51.169 50.7344C53.7079 51.0697 54.6385 50.926 54.6385 50.2075M54.6385 50.2075C55.3091 50.3831 56.9474 50.7344 58.1355 50.7344C59.3119 50.7344 60.4281 50.3436 60.3174 49.7763M54.6385 50.2075C54.6385 49.8672 53.0364 49.0294 51.169 47.6968C49.0932 46.2155 46.7186 41.6625 46.4664 41.2842M49.459 39.1467C49.8262 39.8173 51.2371 43.018 53.3065 44.7043C55.8933 46.812 58.9019 48.4829 59.9558 49.2973C60.1748 49.4665 60.2883 49.6275 60.3174 49.7763M60.3174 49.7763C61.0112 49.936 62.4276 50.1596 62.5426 49.7763M62.5426 49.7763C62.6863 49.2973 56.1771 41.7285 53.734 38.0399H58.8641C60.0165 40.8097 60.6111 42.3163 61.8566 43.8492C63.1021 45.3822 65.6564 48.5308 66.8061 47.9081C67.9558 47.2853 65.7043 43.2614 64.5546 39.5728C64.3963 39.0651 64.2345 38.552 64.0665 38.0399M62.5426 49.7763C64.7143 52.7144 69.3929 59.7691 75.7162 66.399C82.0395 73.0289 91.285 79.7323 95.1173 82.2552C96.9696 82.0636 101.46 81.5079 104.602 80.8181C107.745 80.1283 118.271 76.7303 123.141 75.1175C117.712 73.393 105.476 66.8393 98.1946 60.0945C90.9132 53.3496 84.0869 42.5667 81.6563 37.0339C81.289 37.0339 77.3502 38.1499 73.3993 38.2917C70.6908 38.3888 66.3369 38.3752 64.0665 38.0399M45.92 20.9672C49.6405 23.4325 57.5798 28.7178 59.5726 30.1357C61.7207 31.6642 63.0139 34.8314 64.0665 38.0399" stroke="#C4C3C7" stroke-width="1.14969" stroke-linecap="round" stroke-linejoin="round"></path><path d="M26.3323 132.399C26.3213 132.461 26.3124 132.523 26.3056 132.586C26.0152 135.256 29.2135 144.863 35.7975 150.73C41.0647 155.424 46.862 158.811 49.1023 159.918C50.31 156.644 54.1845 149.282 60.0212 146.019C65.8579 142.756 70.7356 140.809 72.4448 140.244C70.6922 138.822 66.5961 134.299 64.2328 127.579C61.8695 120.859 63.2592 115.637 64.2495 113.866C69.991 111.305 75.8355 110.347 78.2303 110.189C76.786 108.977 72.7317 106.544 68.069 106.514C62.2405 106.476 45.1305 115.012 37.3141 120.811C29.6135 126.525 26.9549 128.306 26.3323 132.399Z" fill="#F5F5F7"></path><path d="M26.3056 132.586C26.596 129.915 30.7894 127.913 33.9159 127.251C36.417 126.723 40.5667 128.262 42.3289 129.099C46.4135 125.65 56.1529 117.949 62.4341 114.733C63.0353 114.425 63.6418 114.136 64.2495 113.866M26.3056 132.586C26.0152 135.256 29.2135 144.863 35.7975 150.73C41.0647 155.424 46.862 158.811 49.1023 159.918C50.31 156.644 54.1845 149.282 60.0212 146.019C65.8579 142.756 70.7356 140.809 72.4448 140.244C70.6922 138.822 66.5961 134.299 64.2328 127.579C61.8695 120.859 63.2592 115.637 64.2495 113.866M26.3056 132.586C26.8761 128.358 29.4976 126.611 37.3141 120.811C45.1305 115.012 62.2405 106.476 68.069 106.514C72.7317 106.543 76.786 108.977 78.2303 110.189C75.8355 110.347 69.991 111.305 64.2495 113.866" stroke="#C4C3C7" stroke-width="1.14969" stroke-linecap="round" stroke-linejoin="round"></path><path d="M41.1641 178.407H95.2955M115.319 178.407H208.109M311.678 178.407H328.157" stroke="#C4C3C7" stroke-width="1.14969" stroke-linecap="round" stroke-linejoin="round"></path><path d="M160.13 210.715L199.513 206.302L196.948 214.424L160.178 212.419C159.131 212.362 159.087 210.832 160.13 210.715Z" fill="#F5F5F7" stroke="#C4C3C7" stroke-width="0.855012"></path><path d="M149.406 26.374L145.219 17.4365L150.234 22.8165L152.5 20.3644L157.812 31.3105L151.727 24.3458L149.406 26.374Z" fill="#EA5212"></path><path d="M196.232 23.5038L204.555 18.1987L199.867 23.866L202.591 25.7969L192.421 32.4767L198.543 25.5443L196.232 23.5038Z" fill="#EA5212"></path><path d="M173.052 18.5644L176.469 6.22852L176.368 15.228L179.983 13.9978L175.942 29.2221L176.392 17.8289L173.052 18.5644Z" fill="#EA5212"></path><path d="M265.793 59.6794C265.906 59.1866 266.788 56.0049 267.858 51.9768C268.928 47.9487 269.415 46.2878 269.524 45.8572C269.633 45.4266 269.865 44.8202 269.771 44.315C269.676 43.8097 269.275 42.9989 268.821 41.8892C268.757 41.7329 268.691 41.513 268.629 41.2417C268.025 40.979 266.671 40.343 266.085 39.9015C265.352 39.3497 265.579 36.1869 265.82 34.9524C266.06 33.7179 267.022 32.61 267.584 32.3981C268.034 32.2286 269.251 32.2943 269.803 32.3483C272.042 29.765 278.286 28.2029 284.375 28.7766C291.193 29.419 298.068 31.7466 302.232 33.6035C306.396 35.4604 308.106 38.1858 305.497 41.4221C302.888 44.6584 295.201 45.5958 292.841 46.4866C290.481 47.3774 289.787 49.1008 289.425 50.3405C289.063 51.5802 287.284 59.2334 286.506 62.2174C285.727 65.2014 285.76 66.8727 286.747 68.1934C287.733 69.514 296.035 75.9488 296.475 79.926C296.915 83.9031 292.782 85.8948 286.494 85.3009C280.206 84.707 268.96 80.5642 264.328 76.9348C262.035 75.1383 260.924 73.2968 260.48 71.5798C259.635 71.3637 258.09 70.687 257.811 70.2761C257.295 69.5166 257.771 65.6382 258.274 64.4694C258.777 63.3007 259.831 63.2224 260.249 63.26C260.584 63.29 261.712 63.5862 262.235 63.7305C263.076 62.5484 263.976 61.7071 264.423 61.4206C265.206 60.9181 265.68 60.1722 265.793 59.6794Z" fill="#F5F5F7"></path><path d="M260.48 71.5798C260.026 69.8282 260.266 68.2062 260.651 66.8935C261 65.7065 261.601 64.6217 262.235 63.7305M260.48 71.5798C260.924 73.2968 262.035 75.1383 264.328 76.9348C268.96 80.5642 280.206 84.707 286.494 85.3009C292.782 85.8948 296.915 83.9031 296.475 79.926C296.035 75.9488 287.733 69.514 286.747 68.1934C285.76 66.8727 285.727 65.2014 286.506 62.2174C287.284 59.2334 289.063 51.5802 289.425 50.3405C289.787 49.1008 290.481 47.3774 292.841 46.4866C295.201 45.5958 302.888 44.6584 305.497 41.4221C308.106 38.1858 306.396 35.4604 302.232 33.6035C298.068 31.7466 291.193 29.419 284.375 28.7766C278.286 28.2029 272.042 29.765 269.803 32.3483M260.48 71.5798C259.635 71.3637 258.09 70.687 257.811 70.2761C257.295 69.5166 257.771 65.6382 258.274 64.4694C258.777 63.3007 259.831 63.2224 260.249 63.26C260.584 63.29 261.712 63.5862 262.235 63.7305M262.235 63.7305C263.076 62.5484 263.976 61.7071 264.423 61.4206C265.206 60.9181 265.68 60.1722 265.793 59.6794C265.906 59.1866 266.788 56.0049 267.858 51.9768C268.928 47.9487 269.415 46.2878 269.524 45.8572C269.633 45.4266 269.865 44.8202 269.771 44.315C269.676 43.8097 269.275 42.9989 268.821 41.8892C268.757 41.7329 268.691 41.513 268.629 41.2417M268.629 41.2417C268.249 39.5875 268.003 36.023 269.178 33.318C269.324 32.9814 269.534 32.6576 269.803 32.3483M268.629 41.2417C268.025 40.979 266.671 40.343 266.085 39.9015C265.352 39.3497 265.579 36.1869 265.82 34.9524C266.061 33.7179 267.022 32.61 267.584 32.3981C268.034 32.2286 269.251 32.2943 269.803 32.3483" stroke="#C4C3C7" stroke-width="1.15" stroke-linecap="round"></path><path d="M270.46 72.3635C270.421 72.4284 270.393 72.4992 270.375 72.5739L269.493 76.2811C269.391 76.7116 269.676 77.1383 270.113 77.2083L272.859 77.6485C273.251 77.7114 273.626 77.4613 273.719 77.0744L273.16 76.9405L273.719 77.0744L274.644 73.2127C274.666 73.1187 274.67 73.0228 274.657 72.9299C274.746 72.9961 274.849 73.0428 274.959 73.0655L278.178 73.7298C278.587 73.8142 278.988 73.5529 279.075 73.1445L279.628 70.5726C279.715 70.1671 279.461 69.7665 279.058 69.672L278.927 70.2318L279.058 69.672L275.855 68.9225C275.729 68.893 275.599 68.8965 275.478 68.9304C275.513 68.8748 275.541 68.8145 275.561 68.7508L275.013 68.5774L275.561 68.7508L276.593 65.4881C276.715 65.1034 276.515 64.6906 276.138 64.5474L275.934 65.0849L276.138 64.5474L273.921 63.7054C273.533 63.5581 273.099 63.7486 272.944 64.1337L271.63 67.4153C271.557 67.598 271.557 67.8018 271.631 67.9841L272.164 67.7681L271.631 67.9841L272.227 69.4532L271.776 68.6714C271.667 68.4813 271.481 68.3477 271.266 68.3049L267.771 67.6092C267.339 67.5232 266.925 67.8206 266.868 68.2573L266.514 70.976C266.461 71.3828 266.74 71.7582 267.145 71.8248L270.355 72.3536C270.39 72.3593 270.425 72.3626 270.46 72.3635ZM272.576 71.0977C272.773 70.8748 272.825 70.5513 272.696 70.2744C272.94 70.441 273.274 70.4594 273.544 70.2819L274.451 69.6855L273.643 70.3444C273.332 70.598 273.271 71.0494 273.504 71.376L273.926 71.9671L273.287 71.31C273.099 71.1173 272.829 71.0416 272.576 71.0977Z" fill="#E9E9EA" stroke="#C4C3C7" stroke-width="1.15" stroke-linecap="round"></path><path d="M284.549 62.2245C283.932 63.5961 281.806 64.6993 279.676 63.422C278.357 62.6605 278.106 60.7081 278.888 59.3525C279.671 57.997 281.503 57.0731 283.192 57.8258C284.88 58.5786 285.167 60.8529 284.549 62.2245Z" fill="#E9E9EA"></path><path d="M283.108 52.8945C281.894 52.3361 280.862 50.8846 281.688 48.8242C282.523 46.8014 284.01 46.8041 285.533 47.3501C287.055 47.8961 287.827 49.1661 287.146 50.9768C286.465 52.7874 284.322 53.4529 283.108 52.8945Z" fill="#E9E9EA"></path><path d="M284.549 62.2245C283.932 63.5961 281.806 64.6993 279.676 63.422C278.357 62.6605 278.106 60.7081 278.888 59.3525C279.671 57.997 281.503 57.0731 283.192 57.8258C284.88 58.5786 285.167 60.8529 284.549 62.2245Z" stroke="#C4C3C7" stroke-width="1.15" stroke-linecap="round"></path><path d="M283.108 52.8945C281.894 52.3361 280.862 50.8846 281.688 48.8242C282.523 46.8014 284.01 46.8041 285.533 47.3501C287.055 47.8961 287.827 49.1661 287.146 50.9768C286.465 52.7874 284.322 53.4529 283.108 52.8945Z" stroke="#C4C3C7" stroke-width="1.15" stroke-linecap="round"></path><path d="M279.79 44.8539C279.087 45.0208 277.897 44.5218 277.438 43.3453C276.818 41.4097 279.066 40.2291 279.949 40.3529C280.833 40.4767 281.58 41.456 281.786 42.4551C281.993 43.4541 280.776 44.6195 279.79 44.8539Z" fill="#E9E9EA" stroke="#C4C3C7" stroke-width="1.15" stroke-linecap="round"></path><path d="M284.502 41.1667C283.128 40.9753 282.515 39.908 282.469 38.9414C282.397 37.8466 283.56 36.813 284.519 36.6772C285.478 36.5414 286.783 37.7226 286.877 38.6279C286.969 39.5184 285.876 41.3582 284.502 41.1667Z" fill="#E9E9EA" stroke="#C4C3C7" stroke-width="1.15" stroke-linecap="round"></path><path d="M279.443 36.954C278.438 36.4129 278.044 35.3954 278.718 34.1392C279.425 32.9151 280.343 32.5772 281.684 33.2737C283.025 33.9701 282.775 35.2513 282.243 36.1742C281.749 37.0293 280.447 37.4951 279.443 36.954Z" fill="#E9E9EA" stroke="#C4C3C7" stroke-width="1.15" stroke-linecap="round"></path><path d="M276.61 36.262C275.588 35.6719 274.329 35.7712 273.456 37.1342C272.583 38.4973 273.227 39.5559 274.166 40.141C275.105 40.726 276.722 40.2671 277.262 39.3319C277.913 38.2052 277.632 36.852 276.61 36.262Z" fill="#E9E9EA" stroke="#C4C3C7" stroke-width="1.15" stroke-linecap="round"></path><path d="M314.707 18.7785C311.911 20.2337 305.861 23.1392 300.991 23.6385C296.121 24.1379 294.365 23.7252 292.445 24.0289C290.525 24.3326 289.837 25.119 288.703 26.1112C287.796 26.905 287.881 26.5889 285.97 28.444C288.424 28.8203 289.779 28.9242 291.733 29.4619C291.733 29.4619 293.435 32.6028 293.692 32.1997C294.303 32.8928 295.478 33.2368 295.989 33.3221C295.317 33.7962 294.531 34.3088 293.694 34.8802C291.804 36.1695 287.643 38.3148 284.851 40.8984C282.06 43.482 280.849 45.4317 282.29 47.4876C283.731 49.5436 286.792 48.8821 289.363 47.7592C289.822 47.5585 290.276 47.3177 290.727 47.0483C291.673 48.0227 293.322 48.4138 295.028 48.0889C296.122 47.8808 297.154 47.4018 298.325 46.7405C298.892 47.3014 299.61 47.5029 300.767 47.3909C301.924 47.2789 302.535 46.921 303.647 46.1418C304.759 45.3626 305.6 44.2134 306.708 43.364C307.816 42.5145 308.746 41.6416 308.69 40.7988C308.645 40.1246 307.756 39.4894 307.317 39.2561C308.519 38.9501 309.151 38.5728 311.856 37.485C315.532 36.0067 317.852 31.6203 319.751 29.4133C320.921 27.0795 323.095 22.062 322.433 20.6632C321.772 19.2643 317.007 18.8238 314.707 18.7785Z" fill="white"></path><path d="M285.708 28.8799C287.619 27.0249 287.798 26.9049 288.705 26.1111C289.838 25.1189 290.527 24.3326 292.447 24.0289C294.367 23.7252 296.123 24.1378 300.993 23.6385C305.862 23.1392 311.913 20.2336 314.709 18.7784C319.743 15.7557 329.335 9.3333 333.502 6.49996M298.703 30.0686C298.636 30.2965 298.373 30.937 297.857 31.6766C297.499 32.1914 296.835 32.7264 295.991 33.3221M295.991 33.3221C295.319 33.7962 294.533 34.3087 293.696 34.8801C291.806 36.1694 287.645 38.3148 284.853 40.8983C282.062 43.4819 280.85 45.4316 282.292 47.4876C283.733 49.5435 286.794 48.882 289.365 47.7592C289.824 47.5585 290.278 47.3176 290.728 47.0482M295.991 33.3221C295.48 33.2368 294.305 32.8928 293.694 32.1996C293.084 31.5065 292.168 29.7119 291.974 28.5639M300.248 41.133C302.112 40.3916 304.01 39.8766 305.683 39.5874C306.384 39.4665 306.888 39.3659 307.319 39.256M300.248 41.133C299.16 41.5658 298.083 42.0758 297.069 42.663C294.809 43.9715 292.799 45.8106 290.728 47.0482M300.248 41.133C300.546 41.1885 301.237 41.4695 301.621 42.1495C302.1 42.9995 302.636 44.1632 300.465 45.4711C299.685 45.9411 298.984 46.3695 298.327 46.7404M290.728 47.0482C291.675 48.0227 293.323 48.4137 295.03 48.0889C296.124 47.8808 297.156 47.4017 298.327 46.7404M307.319 39.256C308.521 38.9501 309.153 38.5727 311.858 37.4849C315.534 36.0066 317.854 31.6203 319.753 29.4133C324.5 23.6385 334 18.5 340 16M307.319 39.256C307.758 39.4894 308.647 40.1246 308.692 40.7988C308.747 41.6416 307.818 42.5145 306.71 43.3639C305.602 44.2134 304.761 45.3625 303.649 46.1417C302.537 46.9209 301.925 47.2789 300.769 47.3909C299.612 47.5029 298.893 47.3013 298.327 46.7404" stroke="#C4C3C7" stroke-width="1.15" stroke-linecap="round"></path><path d="M273.923 59.2357C272.699 59.3121 272.304 59.3625 270.266 58.6365C269.82 58.4808 269.138 57.5247 269.266 56.8579C269.393 56.1912 271.344 49.4852 271.808 48.1434C272.401 46.4256 273.329 46.3072 273.767 46.3668C274.205 46.4264 275.347 46.6779 276.817 47.3656C278.287 48.0533 278.462 48.4759 278.518 49.9572C278.575 51.4385 277.751 53.8702 277.082 55.716C276.413 57.5617 275.148 59.1593 273.923 59.2357Z" fill="white" stroke="#C4C3C7" stroke-width="1.15" stroke-linecap="round"></path></g><defs><clipPath id="clip0_2830_314"><rect width="351" height="229" rx="13.3968" fill="white"></rect></clipPath></defs></svg> 