<?xml version="1.0" encoding="UTF-8"?> <svg xmlns="http://www.w3.org/2000/svg" width="20" height="26" viewBox="0 0 20 26" fill="none"><path d="M10 0C7.78906 0 5.87891 0.917969 4.6875 2.40625C3.49609 3.89453 3 5.82422 3 7.90625V9H6V7.90625C6 6.32812 6.39062 5.08594 7.03125 4.28125C7.67188 3.47656 8.54297 3 10 3C11.4609 3 12.3281 3.44922 12.9688 4.25C13.6094 5.05078 14 6.30859 14 7.90625V9H17V7.90625C17 5.8125 16.4727 3.86328 15.2812 2.375C14.0898 0.886719 12.207 0 10 0ZM3 10C1.34375 10 0 11.3438 0 13V23C0 24.6562 1.34375 26 3 26H17C18.6562 26 20 24.6562 20 23V13C20 11.3438 18.6562 10 17 10H3ZM10 15C11.1055 15 12 15.8945 12 17C12 17.7383 11.5977 18.3711 11 18.7188V21C11 21.5508 10.5508 22 10 22C9.44922 22 9 21.5508 9 21V18.7188C8.40234 18.3711 8 17.7383 8 17C8 15.8945 8.89453 15 10 15Z" fill="black"></path></svg> 