<?xml version="1.0" encoding="UTF-8"?> <svg xmlns="http://www.w3.org/2000/svg" id="_Слой_1" data-name="Слой 1" viewBox="0 0 1000 1000"><defs><style> .cls-1 { stroke: #fff; } .cls-1, .cls-2, .cls-3 { stroke-miterlimit: 10; stroke-width: 40px; } .cls-1, .cls-3 { fill: none; } .cls-2, .cls-3 { stroke: #000; } </style></defs><rect class="cls-2" x="324.68" y="50.97" width="350.64" height="587.83" rx="175.32" ry="175.32"></rect><path class="cls-3" d="m755.5,479.86c0,141.11-114.39,255.5-255.5,255.5h0c-141.11,0-255.5-114.39-255.5-255.5"></path><g><line class="cls-1" x1="303.73" y1="257.57" x2="434.35" y2="257.57"></line><line class="cls-1" x1="303.73" y1="344.89" x2="434.35" y2="344.89"></line><line class="cls-1" x1="303.73" y1="431.15" x2="434.35" y2="431.15"></line></g><g><line class="cls-1" x1="565.65" y1="257.57" x2="697.46" y2="257.57"></line><line class="cls-1" x1="565.65" y1="344.89" x2="697.46" y2="344.89"></line><line class="cls-1" x1="565.65" y1="431.15" x2="697.46" y2="431.15"></line></g><path class="cls-2" d="m500,750.4c0,138.32-14.26,153.21-140.57,153.21h-76.12c-10.21,0-18.49,8.28-18.49,18.49v6.39h470.37v-6.39c0-10.21-8.28-18.49-18.49-18.49h-76.12c-126.31,0-140.57-14.89-140.57-153.21"></path></svg> 