<?xml version="1.0" encoding="UTF-8"?> <svg xmlns="http://www.w3.org/2000/svg" width="55" height="47" viewBox="0 0 55 47" fill="none"><path d="M48.381 18.9693L30.9194 3.51441C29.0275 1.83992 26.1837 1.83992 24.2917 3.51441L6.83008 18.9693" stroke="black" stroke-width="3"></path><rect x="1.75293" y="16.6481" width="51.7041" height="29.3291" rx="3" fill="black" stroke="white" stroke-width="2"></rect><circle cx="27.6043" cy="7.09317" r="2.13846" fill="black"></circle><path d="M13.6684 36.4725C10.8109 36.4725 9.02098 34.6506 9.02098 31.7037C9.02098 28.7567 10.8173 26.9284 13.6684 26.9284C16.5194 26.9284 18.3157 28.7567 18.3157 31.7037C18.3157 34.6506 16.5194 36.4725 13.6684 36.4725ZM13.6684 34.3118C14.8062 34.3118 15.5542 33.2954 15.5542 31.7037C15.5542 30.1055 14.7998 29.0891 13.6684 29.0891C12.5369 29.0891 11.7826 30.1055 11.7826 31.7037C11.7826 33.2954 12.5305 34.3118 13.6684 34.3118ZM21.2494 36.4725C20.3864 36.4725 19.8942 35.9611 19.8942 35.0534V28.5074C19.8942 27.5997 20.3864 27.0882 21.2494 27.0882H24.1069C26.1589 27.0882 27.5397 28.3987 27.5397 30.4507C27.5397 32.4836 26.0758 33.794 23.9215 33.794H22.6046V35.0534C22.6046 35.9611 22.1124 36.4725 21.2494 36.4725ZM22.6046 31.7932H23.3653C24.2667 31.7932 24.8037 31.3393 24.8037 30.4571C24.8037 29.5813 24.2667 29.1275 23.3845 29.1275H22.6046V31.7932ZM30.3774 36.3127C29.5144 36.3127 29.0222 35.8013 29.0222 34.8935V28.5074C29.0222 27.5997 29.5144 27.0882 30.3774 27.0882H34.4623C35.191 27.0882 35.6577 27.4782 35.6577 28.1686C35.6577 28.859 35.1782 29.2489 34.4623 29.2489H31.7327V30.732H34.3536C34.9992 30.732 35.4211 31.0836 35.4211 31.7037C35.4211 32.3237 35.012 32.6753 34.3536 32.6753H31.7327V34.152H34.4623C35.1782 34.152 35.6577 34.5419 35.6577 35.2323C35.6577 35.9227 35.191 36.3127 34.4623 36.3127H30.3774ZM38.5977 36.4725C37.7859 36.4725 37.3192 35.9994 37.3192 35.1301V28.1814C37.3192 27.3631 37.7667 26.9284 38.5977 26.9284C39.09 26.9284 39.4671 27.1522 39.8571 27.67L42.983 31.8699H43.0342V28.2709C43.0342 27.4015 43.5072 26.9284 44.3127 26.9284C45.1245 26.9284 45.5912 27.4015 45.5912 28.2709V35.2196C45.5912 36.0314 45.1501 36.4725 44.3446 36.4725C43.8268 36.4725 43.4625 36.2552 43.0789 35.731L39.9274 31.4544H39.8762V35.1301C39.8762 35.9994 39.4032 36.4725 38.5977 36.4725Z" fill="white"></path></svg> 