<?xml version="1.0" encoding="UTF-8"?> <svg xmlns="http://www.w3.org/2000/svg" width="1920" height="457" viewBox="0 0 1920 457" fill="none"><rect width="1920" height="457" fill="white"></rect><path opacity="0.9" d="M459.74 347.203C445.831 347.203 426.766 347.203 417.504 340.375C407.797 333.231 402.068 323.59 399.522 309.998C393.792 279.336 391.023 244.723 391.023 204.167C391.023 163.611 393.792 128.998 399.522 98.336C402.068 84.7437 407.765 75.1026 417.504 67.9587C426.798 61.1309 445.831 61.1309 459.74 61.1309H1460.44C1474.35 61.1309 1493.42 61.1309 1502.68 67.9587C1512.39 75.1026 1518.12 84.7437 1520.66 98.336C1526.39 128.998 1529.19 163.611 1529.19 204.167C1529.19 244.723 1526.42 279.336 1520.66 309.998C1518.12 323.59 1512.42 333.231 1502.68 340.375C1493.39 347.203 1474.35 347.203 1460.44 347.203H459.74Z" stroke="#E9E9EF" stroke-width="4.69863" stroke-miterlimit="10"></path><path d="M657.419 10.5114C655.012 8.00957 651.718 6.58447 648.266 6.58447H504.458C501.006 6.58447 497.681 8.00957 495.306 10.5114L492.107 13.8683C490.967 15.0401 490.365 16.6235 490.365 18.2386V43.6688H662.391V18.207C662.391 16.5918 661.757 15.0084 660.649 13.8366L657.45 10.4797L657.419 10.5114Z" stroke="#E9E9EF" stroke-width="4.7002" stroke-miterlimit="10"></path><path d="M1245.92 9.30211V8.41538C1245.92 7.71867 1245.8 7.11696 1245.48 6.57859C1243.83 3.66505 1237.88 3 1229.36 3H691.811C683.292 3 677.338 3.66505 675.692 6.57859C675.388 6.89477 674.781 9.9416 674.781 13.5633" stroke="#E9E9EF" stroke-width="4.7002" stroke-miterlimit="10"></path><path d="M1245.92 9.33398V30.3621C1245.92 30.3621 1234.29 30.3621 1232.46 30.3621H688.739H674.75V12.797" stroke="#E9E9EF" stroke-width="4.7002" stroke-miterlimit="10"></path><path d="M688.89 43.2201V30.3861H1232.33L1232.33 46.0687" stroke="#E9E9EF" stroke-width="4.7002" stroke-miterlimit="10"></path><path d="M1424.96 6.58447H1281.15C1277.7 6.58447 1274.38 8.00957 1272 10.5114L1268.8 13.8683C1267.66 15.0401 1267.06 16.6235 1267.06 18.2386V43.6687H1439.05V18.207C1439.05 12.1403 1430.35 6.58447 1424.96 6.58447Z" stroke="#E9E9EF" stroke-width="4.7002" stroke-miterlimit="10"></path><mask id="path-7-inside-1_2793_1107" fill="white"><path d="M1426.48 24.001C1425.56 24.001 1424.8 24.6346 1424.8 25.4582V42.2167C1424.8 43.0086 1425.56 43.6739 1426.48 43.6739C1427.4 43.6739 1428.16 43.0403 1428.16 42.2167V25.4582C1428.16 24.6662 1427.4 24.001 1426.48 24.001Z"></path></mask><path d="M1426.48 24.001C1425.56 24.001 1424.8 24.6346 1424.8 25.4582V42.2167C1424.8 43.0086 1425.56 43.6739 1426.48 43.6739C1427.4 43.6739 1428.16 43.0403 1428.16 42.2167V25.4582C1428.16 24.6662 1427.4 24.001 1426.48 24.001Z" fill="#A5A5AD"></path><path d="M1426.48 28.7012C1427.08 28.7012 1427.76 28.494 1428.35 27.9894C1428.96 27.4659 1429.5 26.5763 1429.5 25.4582H1420.1C1420.1 21.3851 1423.67 19.3008 1426.48 19.3008V28.7012ZM1429.5 25.4582V42.2167H1420.1V25.4582H1429.5ZM1429.5 42.2167C1429.5 41.0494 1428.94 40.181 1428.38 39.6965C1427.82 39.2123 1427.14 38.9737 1426.48 38.9737V48.3741C1423.6 48.3741 1420.1 46.1972 1420.1 42.2167H1429.5ZM1426.48 38.9737C1425.87 38.9737 1425.19 39.1809 1424.6 39.6855C1423.99 40.209 1423.46 41.0986 1423.46 42.2167H1432.86C1432.86 46.2898 1429.29 48.3741 1426.48 48.3741V38.9737ZM1423.46 42.2167V25.4582H1432.86V42.2167H1423.46ZM1423.46 25.4582C1423.46 26.6255 1424.02 27.4938 1424.58 27.9784C1425.13 28.4626 1425.81 28.7012 1426.48 28.7012V19.3008C1429.36 19.3008 1432.86 21.4777 1432.86 25.4582H1423.46Z" fill="#E9E9EF" mask="url(#path-7-inside-1_2793_1107)"></path><mask id="path-9-inside-2_2793_1107" fill="white"><path d="M1414.27 24.001C1413.36 24.001 1412.6 24.6346 1412.6 25.4582V42.2167C1412.6 43.0086 1413.36 43.6739 1414.27 43.6739C1415.19 43.6739 1415.95 43.0403 1415.95 42.2167V25.4582C1415.95 24.6662 1415.19 24.001 1414.27 24.001Z"></path></mask><path d="M1414.27 24.001C1413.36 24.001 1412.6 24.6346 1412.6 25.4582V42.2167C1412.6 43.0086 1413.36 43.6739 1414.27 43.6739C1415.19 43.6739 1415.95 43.0403 1415.95 42.2167V25.4582C1415.95 24.6662 1415.19 24.001 1414.27 24.001Z" fill="#A5A5AD"></path><path d="M1414.27 28.7012C1414.88 28.7012 1415.56 28.494 1416.15 27.9894C1416.76 27.4659 1417.3 26.5763 1417.3 25.4582H1407.89C1407.89 21.3851 1411.47 19.3008 1414.27 19.3008V28.7012ZM1417.3 25.4582V42.2167H1407.89V25.4582H1417.3ZM1417.3 42.2167C1417.3 41.0494 1416.73 40.181 1416.18 39.6965C1415.62 39.2123 1414.94 38.9737 1414.27 38.9737V48.3741C1411.39 48.3741 1407.89 46.1972 1407.89 42.2167H1417.3ZM1414.27 38.9737C1413.67 38.9737 1412.99 39.1809 1412.4 39.6855C1411.79 40.209 1411.25 41.0986 1411.25 42.2167H1420.65C1420.65 46.2898 1417.08 48.3741 1414.27 48.3741V38.9737ZM1411.25 42.2167V25.4582H1420.65V42.2167H1411.25ZM1411.25 25.4582C1411.25 26.6255 1411.82 27.4938 1412.37 27.9784C1412.93 28.4626 1413.61 28.7012 1414.27 28.7012V19.3008C1417.15 19.3008 1420.65 21.4777 1420.65 25.4582H1411.25Z" fill="#E9E9EF" mask="url(#path-9-inside-2_2793_1107)"></path><mask id="path-11-inside-3_2793_1107" fill="white"><path d="M1402.04 24.001C1401.12 24.001 1400.36 24.6346 1400.36 25.4582V42.2167C1400.36 43.0086 1401.12 43.6739 1402.04 43.6739C1402.96 43.6739 1403.72 43.0403 1403.72 42.2167V25.4582C1403.72 24.6662 1402.96 24.001 1402.04 24.001Z"></path></mask><path d="M1402.04 24.001C1401.12 24.001 1400.36 24.6346 1400.36 25.4582V42.2167C1400.36 43.0086 1401.12 43.6739 1402.04 43.6739C1402.96 43.6739 1403.72 43.0403 1403.72 42.2167V25.4582C1403.72 24.6662 1402.96 24.001 1402.04 24.001Z" fill="#A5A5AD"></path><path d="M1402.04 28.7012C1402.65 28.7012 1403.33 28.494 1403.91 27.9894C1404.53 27.4659 1405.06 26.5764 1405.06 25.4582H1395.66C1395.66 21.3851 1399.23 19.3008 1402.04 19.3008V28.7012ZM1405.06 25.4582V42.2167H1395.66V25.4582H1405.06ZM1405.06 42.2167C1405.06 41.0493 1404.5 40.181 1403.94 39.6965C1403.38 39.2123 1402.71 38.9737 1402.04 38.9737V48.3741C1399.16 48.3741 1395.66 46.1972 1395.66 42.2167H1405.06ZM1402.04 38.9737C1401.43 38.9737 1400.75 39.1809 1400.16 39.6855C1399.55 40.209 1399.02 41.0986 1399.02 42.2167H1408.42C1408.42 46.2898 1404.85 48.3741 1402.04 48.3741V38.9737ZM1399.02 42.2167V25.4582H1408.42V42.2167H1399.02ZM1399.02 25.4582C1399.02 26.6255 1399.58 27.4938 1400.14 27.9784C1400.69 28.4626 1401.37 28.7012 1402.04 28.7012V19.3008C1404.92 19.3008 1408.42 21.4777 1408.42 25.4582H1399.02Z" fill="#E9E9EF" mask="url(#path-11-inside-3_2793_1107)"></path><mask id="path-13-inside-4_2793_1107" fill="white"><path d="M1389.78 24.001C1388.86 24.001 1388.1 24.6346 1388.1 25.4582V42.2167C1388.1 43.0086 1388.86 43.6739 1389.78 43.6739C1390.7 43.6739 1391.46 43.0403 1391.46 42.2167V25.4582C1391.46 24.6662 1390.7 24.001 1389.78 24.001Z"></path></mask><path d="M1389.78 24.001C1388.86 24.001 1388.1 24.6346 1388.1 25.4582V42.2167C1388.1 43.0086 1388.86 43.6739 1389.78 43.6739C1390.7 43.6739 1391.46 43.0403 1391.46 42.2167V25.4582C1391.46 24.6662 1390.7 24.001 1389.78 24.001Z" fill="#A5A5AD"></path><path d="M1389.78 28.7012C1390.39 28.7012 1391.07 28.494 1391.66 27.9894C1392.27 27.4659 1392.8 26.5763 1392.8 25.4582H1383.4C1383.4 21.3851 1386.97 19.3008 1389.78 19.3008V28.7012ZM1392.8 25.4582V42.2167H1383.4V25.4582H1392.8ZM1392.8 42.2167C1392.8 41.0494 1392.24 40.181 1391.68 39.6965C1391.13 39.2123 1390.45 38.9737 1389.78 38.9737V48.3741C1386.9 48.3741 1383.4 46.1972 1383.4 42.2167H1392.8ZM1389.78 38.9737C1389.18 38.9737 1388.5 39.1809 1387.91 39.6855C1387.3 40.209 1386.76 41.0986 1386.76 42.2167H1396.16C1396.16 46.2898 1392.59 48.3741 1389.78 48.3741V38.9737ZM1386.76 42.2167V25.4582H1396.16V42.2167H1386.76ZM1386.76 25.4582C1386.76 26.6255 1387.32 27.4938 1387.88 27.9784C1388.44 28.4626 1389.12 28.7012 1389.78 28.7012V19.3008C1392.66 19.3008 1396.16 21.4777 1396.16 25.4582H1386.76Z" fill="#E9E9EF" mask="url(#path-13-inside-4_2793_1107)"></path><mask id="path-15-inside-5_2793_1107" fill="white"><path d="M1377.55 24.001C1376.63 24.001 1375.87 24.6346 1375.87 25.4582V42.2167C1375.87 43.0086 1376.63 43.6739 1377.55 43.6739C1378.47 43.6739 1379.23 43.0403 1379.23 42.2167V25.4582C1379.23 24.6662 1378.47 24.001 1377.55 24.001Z"></path></mask><path d="M1377.55 24.001C1376.63 24.001 1375.87 24.6346 1375.87 25.4582V42.2167C1375.87 43.0086 1376.63 43.6739 1377.55 43.6739C1378.47 43.6739 1379.23 43.0403 1379.23 42.2167V25.4582C1379.23 24.6662 1378.47 24.001 1377.55 24.001Z" fill="#A5A5AD"></path><path d="M1377.55 28.7012C1378.15 28.7012 1378.83 28.494 1379.42 27.9894C1380.03 27.4659 1380.57 26.5764 1380.57 25.4582H1371.17C1371.17 21.3851 1374.74 19.3008 1377.55 19.3008V28.7012ZM1380.57 25.4582V42.2167H1371.17V25.4582H1380.57ZM1380.57 42.2167C1380.57 41.0493 1380.01 40.181 1379.45 39.6965C1378.89 39.2123 1378.21 38.9737 1377.55 38.9737V48.3741C1374.67 48.3741 1371.17 46.1972 1371.17 42.2167H1380.57ZM1377.55 38.9737C1376.94 38.9737 1376.26 39.1809 1375.67 39.6855C1375.06 40.209 1374.53 41.0986 1374.53 42.2167H1383.93C1383.93 46.2898 1380.36 48.3741 1377.55 48.3741V38.9737ZM1374.53 42.2167V25.4582H1383.93V42.2167H1374.53ZM1374.53 25.4582C1374.53 26.6255 1375.09 27.4938 1375.65 27.9784C1376.2 28.4626 1376.88 28.7012 1377.55 28.7012V19.3008C1380.43 19.3008 1383.93 21.4777 1383.93 25.4582H1374.53Z" fill="#E9E9EF" mask="url(#path-15-inside-5_2793_1107)"></path><mask id="path-17-inside-6_2793_1107" fill="white"><path d="M1365.29 24.001C1364.37 24.001 1363.61 24.6346 1363.61 25.4582V42.2167C1363.61 43.0086 1364.37 43.6739 1365.29 43.6739C1366.21 43.6739 1366.97 43.0403 1366.97 42.2167V25.4582C1366.97 24.6662 1366.21 24.001 1365.29 24.001Z"></path></mask><path d="M1365.29 24.001C1364.37 24.001 1363.61 24.6346 1363.61 25.4582V42.2167C1363.61 43.0086 1364.37 43.6739 1365.29 43.6739C1366.21 43.6739 1366.97 43.0403 1366.97 42.2167V25.4582C1366.97 24.6662 1366.21 24.001 1365.29 24.001Z" fill="#A5A5AD"></path><path d="M1365.29 28.7012C1365.9 28.7012 1366.58 28.494 1367.16 27.9894C1367.78 27.4659 1368.31 26.5764 1368.31 25.4582H1358.91C1358.91 21.3851 1362.48 19.3008 1365.29 19.3008V28.7012ZM1368.31 25.4582V42.2167H1358.91V25.4582H1368.31ZM1368.31 42.2167C1368.31 41.0493 1367.75 40.181 1367.19 39.6965C1366.63 39.2123 1365.96 38.9737 1365.29 38.9737V48.3741C1362.41 48.3741 1358.91 46.1972 1358.91 42.2167H1368.31ZM1365.29 38.9737C1364.68 38.9737 1364 39.1809 1363.41 39.6855C1362.8 40.209 1362.27 41.0986 1362.27 42.2167H1371.67C1371.67 46.2898 1368.1 48.3741 1365.29 48.3741V38.9737ZM1362.27 42.2167V25.4582H1371.67V42.2167H1362.27ZM1362.27 25.4582C1362.27 26.6255 1362.83 27.4938 1363.39 27.9784C1363.94 28.4626 1364.62 28.7012 1365.29 28.7012V19.3008C1368.17 19.3008 1371.67 21.4777 1371.67 25.4582H1362.27Z" fill="#E9E9EF" mask="url(#path-17-inside-6_2793_1107)"></path><mask id="path-19-inside-7_2793_1107" fill="white"><path d="M1353.06 24.001C1352.14 24.001 1351.38 24.6346 1351.38 25.4582V42.2167C1351.38 43.0086 1352.14 43.6739 1353.06 43.6739C1353.97 43.6739 1354.73 43.0403 1354.73 42.2167V25.4582C1354.73 24.6662 1353.97 24.001 1353.06 24.001Z"></path></mask><path d="M1353.06 24.001C1352.14 24.001 1351.38 24.6346 1351.38 25.4582V42.2167C1351.38 43.0086 1352.14 43.6739 1353.06 43.6739C1353.97 43.6739 1354.73 43.0403 1354.73 42.2167V25.4582C1354.73 24.6662 1353.97 24.001 1353.06 24.001Z" fill="#A5A5AD"></path><path d="M1353.06 28.7012C1353.66 28.7012 1354.34 28.494 1354.93 27.9894C1355.54 27.4659 1356.08 26.5763 1356.08 25.4582H1346.68C1346.68 21.3851 1350.25 19.3008 1353.06 19.3008V28.7012ZM1356.08 25.4582V42.2167H1346.68V25.4582H1356.08ZM1356.08 42.2167C1356.08 41.0494 1355.51 40.181 1354.96 39.6965C1354.4 39.2123 1353.72 38.9737 1353.06 38.9737V48.3741C1350.18 48.3741 1346.68 46.1972 1346.68 42.2167H1356.08ZM1353.06 38.9737C1352.45 38.9737 1351.77 39.1809 1351.18 39.6855C1350.57 40.209 1350.03 41.0985 1350.03 42.2167H1359.43C1359.43 46.2898 1355.86 48.3741 1353.06 48.3741V38.9737ZM1350.03 42.2167V25.4582H1359.43V42.2167H1350.03ZM1350.03 25.4582C1350.03 26.6256 1350.6 27.4939 1351.15 27.9784C1351.71 28.4626 1352.39 28.7012 1353.06 28.7012V19.3008C1355.93 19.3008 1359.43 21.4777 1359.43 25.4582H1350.03Z" fill="#E9E9EF" mask="url(#path-19-inside-7_2793_1107)"></path><mask id="path-21-inside-8_2793_1107" fill="white"><path d="M1340.84 24.001C1339.92 24.001 1339.16 24.6346 1339.16 25.4582V42.2167C1339.16 43.0086 1339.92 43.6739 1340.84 43.6739C1341.76 43.6739 1342.52 43.0403 1342.52 42.2167V25.4582C1342.52 24.6662 1341.76 24.001 1340.84 24.001Z"></path></mask><path d="M1340.84 24.001C1339.92 24.001 1339.16 24.6346 1339.16 25.4582V42.2167C1339.16 43.0086 1339.92 43.6739 1340.84 43.6739C1341.76 43.6739 1342.52 43.0403 1342.52 42.2167V25.4582C1342.52 24.6662 1341.76 24.001 1340.84 24.001Z" fill="#A5A5AD"></path><path d="M1340.84 28.7012C1341.44 28.7012 1342.12 28.494 1342.71 27.9894C1343.32 27.4659 1343.86 26.5764 1343.86 25.4582H1334.46C1334.46 21.3851 1338.03 19.3008 1340.84 19.3008V28.7012ZM1343.86 25.4582V42.2167H1334.46V25.4582H1343.86ZM1343.86 42.2167C1343.86 41.0493 1343.29 40.181 1342.74 39.6965C1342.18 39.2123 1341.5 38.9737 1340.84 38.9737V48.3741C1337.96 48.3741 1334.46 46.1972 1334.46 42.2167H1343.86ZM1340.84 38.9737C1340.23 38.9737 1339.55 39.1809 1338.96 39.6855C1338.35 40.209 1337.82 41.0986 1337.82 42.2167H1347.22C1347.22 46.2898 1343.65 48.3741 1340.84 48.3741V38.9737ZM1337.82 42.2167V25.4582H1347.22V42.2167H1337.82ZM1337.82 25.4582C1337.82 26.6255 1338.38 27.4938 1338.94 27.9784C1339.49 28.4626 1340.17 28.7012 1340.84 28.7012V19.3008C1343.72 19.3008 1347.22 21.4777 1347.22 25.4582H1337.82Z" fill="#E9E9EF" mask="url(#path-21-inside-8_2793_1107)"></path><mask id="path-23-inside-9_2793_1107" fill="white"><path d="M1328.57 24.001C1327.65 24.001 1326.89 24.6346 1326.89 25.4582V42.2167C1326.89 43.0086 1327.65 43.6739 1328.57 43.6739C1329.49 43.6739 1330.25 43.0403 1330.25 42.2167V25.4582C1330.25 24.6662 1329.49 24.001 1328.57 24.001Z"></path></mask><path d="M1328.57 24.001C1327.65 24.001 1326.89 24.6346 1326.89 25.4582V42.2167C1326.89 43.0086 1327.65 43.6739 1328.57 43.6739C1329.49 43.6739 1330.25 43.0403 1330.25 42.2167V25.4582C1330.25 24.6662 1329.49 24.001 1328.57 24.001Z" fill="#A5A5AD"></path><path d="M1328.57 28.7012C1329.18 28.7012 1329.86 28.494 1330.45 27.9894C1331.06 27.4659 1331.59 26.5763 1331.59 25.4582H1322.19C1322.19 21.3851 1325.76 19.3008 1328.57 19.3008V28.7012ZM1331.59 25.4582V42.2167H1322.19V25.4582H1331.59ZM1331.59 42.2167C1331.59 41.0494 1331.03 40.181 1330.47 39.6965C1329.92 39.2123 1329.24 38.9737 1328.57 38.9737V48.3741C1325.69 48.3741 1322.19 46.1972 1322.19 42.2167H1331.59ZM1328.57 38.9737C1327.96 38.9737 1327.28 39.1809 1326.7 39.6855C1326.09 40.209 1325.55 41.0986 1325.55 42.2167H1334.95C1334.95 46.2898 1331.38 48.3741 1328.57 48.3741V38.9737ZM1325.55 42.2167V25.4582H1334.95V42.2167H1325.55ZM1325.55 25.4582C1325.55 26.6255 1326.11 27.4938 1326.67 27.9784C1327.23 28.4626 1327.9 28.7012 1328.57 28.7012V19.3008C1331.45 19.3008 1334.95 21.4777 1334.95 25.4582H1325.55Z" fill="#E9E9EF" mask="url(#path-23-inside-9_2793_1107)"></path><mask id="path-25-inside-10_2793_1107" fill="white"><path d="M1316.32 24.001C1315.4 24.001 1314.64 24.6346 1314.64 25.4582V42.2167C1314.64 43.0086 1315.4 43.6739 1316.32 43.6739C1317.24 43.6739 1318 43.0403 1318 42.2167V25.4582C1318 24.6662 1317.24 24.001 1316.32 24.001Z"></path></mask><path d="M1316.32 24.001C1315.4 24.001 1314.64 24.6346 1314.64 25.4582V42.2167C1314.64 43.0086 1315.4 43.6739 1316.32 43.6739C1317.24 43.6739 1318 43.0403 1318 42.2167V25.4582C1318 24.6662 1317.24 24.001 1316.32 24.001Z" fill="#A5A5AD"></path><path d="M1316.32 28.7012C1316.93 28.7012 1317.61 28.494 1318.2 27.9894C1318.81 27.4659 1319.34 26.5763 1319.34 25.4582H1309.94C1309.94 21.3851 1313.51 19.3008 1316.32 19.3008V28.7012ZM1319.34 25.4582V42.2167H1309.94V25.4582H1319.34ZM1319.34 42.2167C1319.34 41.0494 1318.78 40.181 1318.22 39.6965C1317.67 39.2123 1316.99 38.9737 1316.32 38.9737V48.3741C1313.44 48.3741 1309.94 46.1972 1309.94 42.2167H1319.34ZM1316.32 38.9737C1315.71 38.9737 1315.03 39.1809 1314.45 39.6855C1313.84 40.209 1313.3 41.0986 1313.3 42.2167H1322.7C1322.7 46.2898 1319.13 48.3741 1316.32 48.3741V38.9737ZM1313.3 42.2167V25.4582H1322.7V42.2167H1313.3ZM1313.3 25.4582C1313.3 26.6255 1313.86 27.4938 1314.42 27.9784C1314.98 28.4626 1315.65 28.7012 1316.32 28.7012V19.3008C1319.2 19.3008 1322.7 21.4777 1322.7 25.4582H1313.3Z" fill="#E9E9EF" mask="url(#path-25-inside-10_2793_1107)"></path><mask id="path-27-inside-11_2793_1107" fill="white"><path d="M1304.1 24.001C1303.18 24.001 1302.42 24.6346 1302.42 25.4582V42.2167C1302.42 43.0086 1303.18 43.6739 1304.1 43.6739C1305.02 43.6739 1305.78 43.0403 1305.78 42.2167V25.4582C1305.78 24.6662 1305.02 24.001 1304.1 24.001Z"></path></mask><path d="M1304.1 24.001C1303.18 24.001 1302.42 24.6346 1302.42 25.4582V42.2167C1302.42 43.0086 1303.18 43.6739 1304.1 43.6739C1305.02 43.6739 1305.78 43.0403 1305.78 42.2167V25.4582C1305.78 24.6662 1305.02 24.001 1304.1 24.001Z" fill="#A5A5AD"></path><path d="M1304.1 28.7012C1304.71 28.7012 1305.39 28.494 1305.98 27.9894C1306.59 27.4659 1307.12 26.5763 1307.12 25.4582H1297.72C1297.72 21.3851 1301.29 19.3008 1304.1 19.3008V28.7012ZM1307.12 25.4582V42.2167H1297.72V25.4582H1307.12ZM1307.12 42.2167C1307.12 41.0494 1306.56 40.181 1306 39.6965C1305.45 39.2123 1304.77 38.9737 1304.1 38.9737V48.3741C1301.22 48.3741 1297.72 46.1972 1297.72 42.2167H1307.12ZM1304.1 38.9737C1303.5 38.9737 1302.82 39.1809 1302.23 39.6855C1301.62 40.209 1301.08 41.0986 1301.08 42.2167H1310.48C1310.48 46.2898 1306.91 48.3741 1304.1 48.3741V38.9737ZM1301.08 42.2167V25.4582H1310.48V42.2167H1301.08ZM1301.08 25.4582C1301.08 26.6255 1301.64 27.4938 1302.2 27.9784C1302.76 28.4626 1303.44 28.7012 1304.1 28.7012V19.3008C1306.98 19.3008 1310.48 21.4777 1310.48 25.4582H1301.08Z" fill="#E9E9EF" mask="url(#path-27-inside-11_2793_1107)"></path><mask id="path-29-inside-12_2793_1107" fill="white"><path d="M1291.84 24.001C1290.93 24.001 1290.17 24.6346 1290.17 25.4582V42.2167C1290.17 43.0086 1290.93 43.6739 1291.84 43.6739C1292.76 43.6739 1293.52 43.0403 1293.52 42.2167V25.4582C1293.52 24.6662 1292.76 24.001 1291.84 24.001Z"></path></mask><path d="M1291.84 24.001C1290.93 24.001 1290.17 24.6346 1290.17 25.4582V42.2167C1290.17 43.0086 1290.93 43.6739 1291.84 43.6739C1292.76 43.6739 1293.52 43.0403 1293.52 42.2167V25.4582C1293.52 24.6662 1292.76 24.001 1291.84 24.001Z" fill="#A5A5AD"></path><path d="M1291.84 28.7012C1292.45 28.7012 1293.13 28.494 1293.72 27.9894C1294.33 27.4659 1294.87 26.5763 1294.87 25.4582H1285.47C1285.47 21.3851 1289.04 19.3008 1291.84 19.3008V28.7012ZM1294.87 25.4582V42.2167H1285.47V25.4582H1294.87ZM1294.87 42.2167C1294.87 41.0494 1294.3 40.181 1293.75 39.6965C1293.19 39.2123 1292.51 38.9737 1291.84 38.9737V48.3741C1288.97 48.3741 1285.47 46.1972 1285.47 42.2167H1294.87ZM1291.84 38.9737C1291.24 38.9737 1290.56 39.1809 1289.97 39.6855C1289.36 40.209 1288.82 41.0985 1288.82 42.2167H1298.22C1298.22 46.2899 1294.65 48.3741 1291.84 48.3741V38.9737ZM1288.82 42.2167V25.4582H1298.22V42.2167H1288.82ZM1288.82 25.4582C1288.82 26.6256 1289.39 27.4939 1289.94 27.9784C1290.5 28.4626 1291.18 28.7012 1291.84 28.7012V19.3008C1294.72 19.3008 1298.22 21.4776 1298.22 25.4582H1288.82Z" fill="#E9E9EF" mask="url(#path-29-inside-12_2793_1107)"></path><mask id="path-31-inside-13_2793_1107" fill="white"><path d="M1279.65 24.001C1278.73 24.001 1277.97 24.6346 1277.97 25.4582V42.2167C1277.97 43.0086 1278.73 43.6739 1279.65 43.6739C1280.57 43.6739 1281.33 43.0403 1281.33 42.2167V25.4582C1281.33 24.6662 1280.57 24.001 1279.65 24.001Z"></path></mask><path d="M1279.65 24.001C1278.73 24.001 1277.97 24.6346 1277.97 25.4582V42.2167C1277.97 43.0086 1278.73 43.6739 1279.65 43.6739C1280.57 43.6739 1281.33 43.0403 1281.33 42.2167V25.4582C1281.33 24.6662 1280.57 24.001 1279.65 24.001Z" fill="#A5A5AD"></path><path d="M1279.65 28.7012C1280.26 28.7012 1280.94 28.494 1281.52 27.9894C1282.13 27.4659 1282.67 26.5764 1282.67 25.4582H1273.27C1273.27 21.385 1276.84 19.3008 1279.65 19.3008V28.7012ZM1282.67 25.4582V42.2167H1273.27V25.4582H1282.67ZM1282.67 42.2167C1282.67 41.0493 1282.11 40.181 1281.55 39.6964C1280.99 39.2123 1280.32 38.9737 1279.65 38.9737V48.3741C1276.77 48.3741 1273.27 46.1973 1273.27 42.2167H1282.67ZM1279.65 38.9737C1279.04 38.9737 1278.36 39.1809 1277.77 39.6855C1277.16 40.209 1276.63 41.0986 1276.63 42.2167H1286.03C1286.03 46.2898 1282.46 48.3741 1279.65 48.3741V38.9737ZM1276.63 42.2167V25.4582H1286.03V42.2167H1276.63ZM1276.63 25.4582C1276.63 26.6255 1277.19 27.4938 1277.75 27.9784C1278.3 28.4626 1278.98 28.7012 1279.65 28.7012V19.3008C1282.53 19.3008 1286.03 21.4777 1286.03 25.4582H1276.63Z" fill="#E9E9EF" mask="url(#path-31-inside-13_2793_1107)"></path><path d="M376.032 203.701C376.032 262.625 381.711 298.482 384.792 315.318C387.84 332.153 395.123 344.355 406.835 353.197C418.546 362.039 437.99 362.333 455.542 362.333H1464.49C1482.01 362.333 1501.49 362.039 1513.2 353.197C1524.91 344.355 1532.16 332.153 1535.24 315.318C1538.29 298.482 1544 262.625 1544 203.701C1544 144.777 1538.32 108.92 1535.24 92.0846C1532.19 75.2492 1524.91 63.0467 1513.2 54.2049C1501.49 45.363 1482.04 45.0693 1464.49 45.0693H455.509C437.99 45.0693 418.514 45.363 406.803 54.2049C395.091 63.0467 387.84 75.2492 384.76 92.0846C381.711 108.92 376 144.777 376 203.701H376.032Z" stroke="#E9E9EF" stroke-width="4.7002" stroke-miterlimit="10"></path><path d="M657.419 10.5114C655.012 8.00957 651.718 6.58447 648.266 6.58447H504.458C501.006 6.58447 497.681 8.00957 495.306 10.5114L492.107 13.8683C490.967 15.0401 490.365 16.6235 490.365 18.2386V18.5237H662.391V18.2386C662.391 16.6235 661.757 15.0401 660.649 13.8683L657.45 10.5114H657.419Z" stroke="#E9E9EF" stroke-width="4.7002" stroke-miterlimit="10"></path><path d="M1424.96 6.58447H1281.15C1277.7 6.58447 1274.38 8.00957 1272 10.5114L1268.8 13.8683C1267.66 15.0401 1267.06 16.6235 1267.06 18.2386V18.302H1439.05V18.2386C1439.05 12.1619 1430.25 6.58447 1424.96 6.58447Z" stroke="#E9E9EF" stroke-width="4.7002" stroke-miterlimit="10"></path><path d="M1390.95 175.611H1405.82V205.357H1390.95V175.611ZM1405.82 160.738H1420.69V175.611H1405.82V160.738ZM1420.69 145.865H1435.56V160.738H1420.69V145.865ZM1435.56 130.992H1450.44V145.865H1435.56V130.992ZM1390.95 101.246H1465.31V130.992H1450.44V116.119H1390.95V101.246Z" fill="#E9E9EF"></path><path d="M1286.83 175.611H1301.7V190.484H1286.83V175.611ZM1301.7 190.484H1346.32V205.357H1301.7V190.484ZM1346.32 145.865H1361.19V190.484H1346.32V145.865ZM1286.83 101.246H1361.19V116.119H1301.7V130.992H1346.32V145.865H1286.83V101.246Z" fill="#E9E9EF"></path><path d="M1242.21 130.992H1257.08V145.865H1242.21V130.992ZM1242.21 190.484H1257.08V205.357H1242.21V190.484Z" fill="#E9E9EF"></path><path d="M1138.11 116.119H1152.98V145.865H1138.11V116.119ZM1152.98 101.246H1197.6V116.119H1152.98V101.246ZM1197.6 116.119H1212.47V190.484H1197.6V160.738H1152.98V145.865H1197.6V116.119ZM1152.98 190.484H1197.6V205.357H1152.98V190.484ZM1138.11 175.611H1152.98V190.484H1138.11V175.611Z" fill="#E9E9EF"></path><path d="M1048.87 190.484H1093.48V205.357H1048.87V190.484ZM1093.48 116.119H1108.36V190.484H1093.48V145.865H1078.61V130.992H1093.48V116.119ZM1063.74 145.865H1078.61V160.738H1063.74V145.865ZM1033.99 116.119H1048.87V160.738H1063.74V175.611H1048.87V190.484H1033.99V116.119ZM1048.87 101.246H1093.48V116.119H1048.87V101.246Z" fill="#E9E9EF"></path><path d="M1227.46 294.595V249.976H1212.59V235.103H1257.21V249.976H1242.33V294.595H1227.46Z" fill="#E9E9EF"></path><path d="M1153.05 294.595V235.103H1197.67V249.976H1167.92V264.849H1182.79V279.722H1167.92V294.595H1153.05Z" fill="#E9E9EF"></path><path d="M1093.48 294.595V235.103H1138.1V249.976H1123.23L1108.36 249.976L1108.36 264.849H1123.23L1123.23 279.722H1138.1V294.595H1093.48Z" fill="#E9E9EF"></path><path d="M1033.99 294.595V235.103H1048.87V279.722H1078.61V294.595H1033.99Z" fill="#E9E9EF"></path><rect x="424.195" y="86.3726" width="580.048" height="208.222" rx="44.6191" fill="#E9E9EF"></rect><path fill-rule="evenodd" clip-rule="evenodd" d="M510.874 116.204H480.781V266.667H510.874V266.667H571.054V236.575H571.059V251.621H586.106V236.575H586.104V191.436H571.054V176.389L510.874 176.389V146.297L556.012 146.297V161.342V161.343V176.388H586.104V161.343V161.342V131.25L571.054 131.25V116.204L510.874 116.204V116.204ZM556.012 236.574V206.482H510.874V236.574L556.012 236.574ZM631.247 116.204H601.154V236.574H616.209V266.667H691.44V236.574H706.47V116.204H676.378V236.574H631.247V116.204ZM826.857 191.435H811.806V176.389H751.613V146.297L796.765 146.297V161.342H826.857V131.25H811.806V116.204L736.575 116.204V131.25H721.52V191.435H736.575V206.482H796.765V236.574H751.613V221.528H721.52V251.621H736.575V266.667H811.806V251.621H826.857V191.435ZM871.979 116.205H841.887V191.436H856.927V206.482L917.117 206.482V236.575L871.979 236.575V221.528H841.887V251.621H856.927V266.668H932.159V251.622H947.21V191.436V116.205H917.117V176.39L871.979 176.39V116.205Z" fill="white"></path><rect x="424.195" y="86.3726" width="580.048" height="208.222" rx="44.6191" fill="#F17C7E"></rect><path fill-rule="evenodd" clip-rule="evenodd" d="M510.874 116.204H480.781V266.667H510.874V266.667H571.054V236.575H571.059V251.621H586.106V236.575H586.104V191.436H571.054V176.389L510.874 176.389V146.297L556.012 146.297V161.342V161.343V176.388H586.104V161.343V161.342V131.25L571.054 131.25V116.204L510.874 116.204V116.204ZM556.012 236.574V206.482H510.874V236.574L556.012 236.574ZM631.247 116.204H601.154V236.574H616.209V266.667H691.44V236.574H706.47V116.204H676.378V236.574H631.247V116.204ZM826.857 191.435H811.806V176.389H751.613V146.297L796.765 146.297V161.342H826.857V131.25H811.806V116.204L736.575 116.204V131.25H721.52V191.435H736.575V206.482H796.765V236.574H751.613V221.528H721.52V251.621H736.575V266.667H811.806V251.621H826.857V191.435ZM871.979 116.205H841.887V191.436H856.927V206.482L917.117 206.482V236.575L871.979 236.575V221.528H841.887V251.621H856.927V266.668H932.159V251.622H947.21V191.436V116.205H917.117V176.39L871.979 176.39V116.205Z" fill="white"></path><path d="M138.457 199H135.673L131.761 182.2H133.969L137.401 197.08H137.041L140.833 182.2H143.257L147.001 197.08H146.665L150.073 182.2H152.233L148.249 199H145.561L141.817 184.528H142.201L138.457 199ZM161.705 199.36C160.393 199.36 159.241 199.152 158.249 198.736C157.273 198.32 156.457 197.736 155.801 196.984C155.145 196.232 154.649 195.32 154.313 194.248C153.993 193.176 153.833 191.984 153.833 190.672V190.528C153.833 189.28 154.001 188.128 154.337 187.072C154.673 186 155.161 185.08 155.801 184.312C156.457 183.544 157.265 182.944 158.225 182.512C159.185 182.064 160.305 181.84 161.585 181.84C162.913 181.84 164.065 182.056 165.041 182.488C166.033 182.904 166.857 183.496 167.513 184.264C168.169 185.032 168.657 185.952 168.977 187.024C169.297 188.08 169.457 189.248 169.457 190.528V190.672C169.457 191.952 169.289 193.128 168.953 194.2C168.633 195.256 168.145 196.168 167.489 196.936C166.849 197.704 166.041 198.304 165.065 198.736C164.105 199.152 162.985 199.36 161.705 199.36ZM161.681 197.392C162.673 197.392 163.513 197.224 164.201 196.888C164.905 196.536 165.473 196.064 165.905 195.472C166.353 194.864 166.673 194.152 166.865 193.336C167.073 192.52 167.177 191.648 167.177 190.72V190.576C167.177 189.616 167.065 188.728 166.841 187.912C166.633 187.096 166.305 186.384 165.857 185.776C165.425 185.152 164.857 184.672 164.153 184.336C163.465 183.984 162.641 183.808 161.681 183.808C160.689 183.808 159.841 183.984 159.137 184.336C158.449 184.672 157.881 185.152 157.433 185.776C156.985 186.384 156.649 187.104 156.425 187.936C156.217 188.752 156.113 189.648 156.113 190.624V190.768C156.113 191.712 156.225 192.592 156.449 193.408C156.673 194.208 157.009 194.912 157.457 195.52C157.905 196.112 158.473 196.576 159.161 196.912C159.865 197.232 160.705 197.392 161.681 197.392ZM172.792 199V182.2H180.088C180.888 182.2 181.632 182.272 182.32 182.416C183.024 182.544 183.632 182.784 184.144 183.136C184.656 183.488 185.056 183.968 185.344 184.576C185.648 185.168 185.8 185.928 185.8 186.856V187C185.8 187.496 185.736 187.992 185.608 188.488C185.48 188.968 185.28 189.416 185.008 189.832C184.736 190.232 184.392 190.592 183.976 190.912C183.576 191.216 183.096 191.456 182.536 191.632L185.992 199H183.592L180.328 191.896C180.248 191.896 180.176 191.896 180.112 191.896C180.064 191.896 180 191.896 179.92 191.896H174.976V199H172.792ZM174.952 190.048H179.824C180.368 190.048 180.864 189.992 181.312 189.88C181.76 189.768 182.144 189.592 182.464 189.352C182.784 189.096 183.032 188.784 183.208 188.416C183.384 188.032 183.472 187.576 183.472 187.048V186.904C183.472 186.328 183.376 185.856 183.184 185.488C182.992 185.12 182.728 184.84 182.392 184.648C182.056 184.44 181.656 184.304 181.192 184.24C180.744 184.16 180.256 184.12 179.728 184.12H174.952V190.048ZM189.151 199V182.2H191.335V199H189.151ZM191.023 193.264L190.807 191.104L199.735 182.2H202.519L194.695 189.904L193.999 190.264L191.023 193.264ZM200.167 199L193.135 190.432L194.719 189.064L202.975 199H200.167ZM215.798 199.288C214.838 199.288 213.982 199.136 213.23 198.832C212.494 198.512 211.87 198.072 211.358 197.512C210.862 196.936 210.486 196.248 210.23 195.448C209.974 194.648 209.846 193.768 209.846 192.808V192.664C209.846 191.72 209.974 190.848 210.23 190.048C210.486 189.248 210.862 188.568 211.358 188.008C211.87 187.432 212.494 186.984 213.23 186.664C213.966 186.344 214.814 186.184 215.774 186.184C216.718 186.184 217.558 186.344 218.294 186.664C219.03 186.984 219.646 187.432 220.142 188.008C220.654 188.568 221.038 189.248 221.294 190.048C221.55 190.848 221.678 191.72 221.678 192.664V192.808C221.678 193.736 221.558 194.6 221.318 195.4C221.094 196.2 220.742 196.888 220.262 197.464C219.782 198.04 219.166 198.488 218.414 198.808C217.678 199.128 216.806 199.288 215.798 199.288ZM215.87 197.56C216.494 197.56 217.03 197.448 217.478 197.224C217.942 196.984 218.326 196.656 218.63 196.24C218.934 195.824 219.166 195.32 219.326 194.728C219.486 194.136 219.566 193.488 219.566 192.784V192.64C219.566 192 219.486 191.392 219.326 190.816C219.166 190.224 218.926 189.712 218.606 189.28C218.302 188.848 217.91 188.512 217.43 188.272C216.966 188.032 216.414 187.912 215.774 187.912C215.102 187.912 214.526 188.032 214.046 188.272C213.566 188.512 213.166 188.848 212.846 189.28C212.542 189.696 212.318 190.2 212.174 190.792C212.046 191.368 211.982 191.984 211.982 192.64V192.784C211.982 193.456 212.054 194.088 212.198 194.68C212.358 195.272 212.598 195.784 212.918 196.216C213.238 196.632 213.638 196.96 214.118 197.2C214.614 197.44 215.198 197.56 215.87 197.56ZM224.582 199V186.472H226.622V188.896H226.646C226.822 188.432 227.054 188.04 227.342 187.72C227.63 187.4 227.958 187.136 228.326 186.928C228.71 186.72 229.126 186.576 229.574 186.496C230.022 186.4 230.486 186.352 230.966 186.352C231.03 186.352 231.086 186.352 231.134 186.352C231.182 186.352 231.23 186.352 231.278 186.352V188.224H231.014C230.246 188.224 229.582 188.312 229.022 188.488C228.462 188.664 228.006 188.928 227.654 189.28C227.302 189.632 227.038 190.072 226.862 190.6C226.702 191.128 226.622 191.76 226.622 192.496V199H224.582ZM239.425 199V182.2H246.721C247.521 182.2 248.265 182.272 248.953 182.416C249.657 182.544 250.265 182.784 250.777 183.136C251.289 183.488 251.689 183.968 251.977 184.576C252.281 185.168 252.433 185.928 252.433 186.856V187C252.433 187.496 252.369 187.992 252.241 188.488C252.113 188.968 251.913 189.416 251.641 189.832C251.369 190.232 251.025 190.592 250.609 190.912C250.209 191.216 249.729 191.456 249.169 191.632L252.625 199H250.225L246.961 191.896C246.881 191.896 246.809 191.896 246.745 191.896C246.697 191.896 246.633 191.896 246.553 191.896H241.609V199H239.425ZM241.585 190.048H246.457C247.001 190.048 247.497 189.992 247.945 189.88C248.393 189.768 248.777 189.592 249.097 189.352C249.417 189.096 249.665 188.784 249.841 188.416C250.017 188.032 250.105 187.576 250.105 187.048V186.904C250.105 186.328 250.009 185.856 249.817 185.488C249.625 185.12 249.361 184.84 249.025 184.648C248.689 184.44 248.289 184.304 247.825 184.24C247.377 184.16 246.889 184.12 246.361 184.12H241.585V190.048ZM255.784 199V182.2H267.64V184.168H257.968V189.4H266.68V191.272H257.968V197.032H267.904V199H255.784ZM276.614 199.36C275.606 199.36 274.67 199.24 273.806 199C272.958 198.776 272.23 198.424 271.622 197.944C271.014 197.464 270.534 196.856 270.182 196.12C269.846 195.368 269.678 194.48 269.678 193.456V193.288H271.91V193.432C271.91 194.088 272.038 194.672 272.294 195.184C272.55 195.68 272.894 196.096 273.326 196.432C273.758 196.768 274.262 197.024 274.838 197.2C275.414 197.36 276.022 197.44 276.662 197.44C277.27 197.44 277.83 197.392 278.342 197.296C278.87 197.2 279.318 197.04 279.686 196.816C280.07 196.592 280.366 196.296 280.574 195.928C280.782 195.544 280.886 195.072 280.886 194.512V194.224C280.886 193.68 280.734 193.24 280.43 192.904C280.126 192.552 279.726 192.272 279.23 192.064C278.734 191.84 278.166 191.664 277.526 191.536C276.886 191.408 276.23 191.28 275.558 191.152C274.902 191.008 274.254 190.84 273.614 190.648C272.974 190.456 272.406 190.2 271.91 189.88C271.414 189.544 271.014 189.128 270.71 188.632C270.406 188.12 270.254 187.472 270.254 186.688V186.544C270.254 185.632 270.438 184.88 270.806 184.288C271.174 183.696 271.662 183.216 272.27 182.848C272.878 182.48 273.558 182.224 274.31 182.08C275.078 181.92 275.854 181.84 276.638 181.84C277.566 181.84 278.406 181.96 279.158 182.2C279.926 182.44 280.582 182.792 281.126 183.256C281.67 183.72 282.094 184.28 282.398 184.936C282.702 185.592 282.854 186.344 282.854 187.192V187.36H280.646V187.216C280.646 186.64 280.542 186.136 280.334 185.704C280.126 185.272 279.838 184.912 279.47 184.624C279.102 184.336 278.662 184.12 278.15 183.976C277.654 183.832 277.102 183.76 276.494 183.76C276.03 183.76 275.558 183.808 275.078 183.904C274.598 184 274.174 184.152 273.806 184.36C273.438 184.552 273.134 184.816 272.894 185.152C272.67 185.472 272.558 185.864 272.558 186.328V186.592C272.558 187.12 272.71 187.544 273.014 187.864C273.318 188.168 273.718 188.424 274.214 188.632C274.726 188.824 275.302 188.984 275.942 189.112C276.582 189.24 277.23 189.376 277.886 189.52C278.542 189.648 279.19 189.808 279.83 190C280.47 190.192 281.038 190.464 281.534 190.816C282.046 191.168 282.446 191.616 282.734 192.16C283.038 192.688 283.19 193.352 283.19 194.152V194.344C283.19 195.272 283.014 196.056 282.662 196.696C282.326 197.336 281.862 197.856 281.27 198.256C280.678 198.656 279.982 198.936 279.182 199.096C278.382 199.272 277.526 199.36 276.614 199.36ZM289.665 199V184.168H284.145V182.2H297.369V184.168H291.849V199H289.665ZM305.113 203.32V186.472H307.153V188.464H307.177C307.369 188.048 307.609 187.704 307.897 187.432C308.185 187.144 308.505 186.912 308.857 186.736C309.225 186.544 309.609 186.408 310.009 186.328C310.425 186.232 310.873 186.184 311.353 186.184C312.265 186.184 313.049 186.344 313.705 186.664C314.377 186.984 314.929 187.432 315.361 188.008C315.793 188.584 316.105 189.264 316.297 190.048C316.505 190.816 316.609 191.648 316.609 192.544V192.688C316.609 193.68 316.497 194.584 316.273 195.4C316.049 196.2 315.713 196.896 315.265 197.488C314.833 198.064 314.289 198.512 313.633 198.832C312.977 199.136 312.233 199.288 311.401 199.288C310.937 199.288 310.489 199.248 310.057 199.168C309.641 199.088 309.249 198.96 308.881 198.784C308.529 198.608 308.209 198.384 307.921 198.112C307.633 197.84 307.385 197.512 307.177 197.128H307.153V203.32H305.113ZM310.969 197.56C311.641 197.56 312.201 197.416 312.649 197.128C313.113 196.84 313.481 196.472 313.753 196.024C314.025 195.56 314.209 195.04 314.305 194.464C314.417 193.888 314.473 193.312 314.473 192.736V192.592C314.473 191.984 314.409 191.4 314.281 190.84C314.169 190.264 313.969 189.768 313.681 189.352C313.393 188.92 313.009 188.576 312.529 188.32C312.065 188.048 311.489 187.912 310.801 187.912C310.097 187.912 309.513 188.056 309.049 188.344C308.585 188.616 308.209 188.984 307.921 189.448C307.633 189.912 307.433 190.44 307.321 191.032C307.209 191.608 307.153 192.2 307.153 192.808V193C307.153 193.608 307.217 194.192 307.345 194.752C307.489 195.296 307.713 195.784 308.017 196.216C308.321 196.632 308.713 196.96 309.193 197.2C309.673 197.44 310.265 197.56 310.969 197.56ZM319.504 199V182.2H321.544V188.344H321.568C321.76 187.992 321.984 187.688 322.24 187.432C322.512 187.176 322.816 186.96 323.152 186.784C323.488 186.608 323.856 186.48 324.256 186.4C324.656 186.304 325.096 186.256 325.576 186.256C326.296 186.256 326.912 186.352 327.424 186.544C327.952 186.736 328.384 187.032 328.72 187.432C329.056 187.816 329.304 188.304 329.464 188.896C329.64 189.472 329.728 190.152 329.728 190.936V199H327.712V191.56C327.712 191.032 327.656 190.552 327.544 190.12C327.448 189.688 327.288 189.32 327.064 189.016C326.856 188.696 326.576 188.456 326.224 188.296C325.872 188.12 325.44 188.032 324.928 188.032C324.32 188.032 323.8 188.128 323.368 188.32C322.952 188.512 322.608 188.784 322.336 189.136C322.064 189.472 321.864 189.88 321.736 190.36C321.608 190.824 321.544 191.336 321.544 191.896V199H319.504ZM336.503 199.288C335.959 199.288 335.439 199.216 334.943 199.072C334.447 198.928 334.007 198.712 333.623 198.424C333.255 198.12 332.959 197.744 332.735 197.296C332.511 196.832 332.399 196.296 332.399 195.688V195.544C332.399 194.872 332.519 194.328 332.759 193.912C332.999 193.48 333.311 193.144 333.695 192.904C334.095 192.648 334.543 192.464 335.039 192.352C335.551 192.24 336.063 192.152 336.575 192.088C337.103 192.024 337.615 191.968 338.111 191.92C338.623 191.856 339.079 191.76 339.479 191.632C339.879 191.504 340.199 191.32 340.439 191.08C340.679 190.824 340.799 190.48 340.799 190.048V189.904C340.799 189.552 340.735 189.248 340.607 188.992C340.479 188.736 340.295 188.528 340.055 188.368C339.815 188.192 339.511 188.072 339.143 188.008C338.791 187.928 338.391 187.888 337.943 187.888C337.495 187.888 337.079 187.928 336.695 188.008C336.327 188.072 336.007 188.2 335.735 188.392C335.463 188.584 335.247 188.84 335.087 189.16C334.943 189.464 334.871 189.872 334.871 190.384V190.528H332.903V190.384C332.903 189.632 333.039 188.992 333.311 188.464C333.599 187.936 333.975 187.504 334.439 187.168C334.919 186.816 335.471 186.568 336.095 186.424C336.719 186.264 337.383 186.184 338.087 186.184C338.791 186.184 339.431 186.264 340.007 186.424C340.583 186.568 341.079 186.816 341.495 187.168C341.911 187.504 342.231 187.944 342.455 188.488C342.679 189.032 342.791 189.688 342.791 190.456L342.767 195.88C342.767 196.184 342.775 196.448 342.791 196.672C342.823 196.896 342.863 197.08 342.911 197.224C342.975 197.368 343.055 197.48 343.151 197.56C343.263 197.624 343.391 197.656 343.535 197.656C343.615 197.656 343.687 197.648 343.751 197.632C343.831 197.616 343.927 197.592 344.039 197.56V199.024C343.959 199.04 343.871 199.048 343.775 199.048C343.679 199.064 343.583 199.072 343.487 199.072C343.407 199.088 343.311 199.096 343.199 199.096C343.103 199.112 343.007 199.12 342.911 199.12C342.623 199.12 342.359 199.08 342.119 199C341.895 198.92 341.695 198.8 341.519 198.64C341.343 198.48 341.207 198.28 341.111 198.04C341.015 197.784 340.959 197.472 340.943 197.104L340.919 196.864H340.895C340.671 197.264 340.407 197.616 340.103 197.92C339.799 198.224 339.455 198.48 339.071 198.688C338.687 198.88 338.279 199.024 337.847 199.12C337.415 199.232 336.967 199.288 336.503 199.288ZM337.079 197.608C337.655 197.608 338.167 197.52 338.615 197.344C339.063 197.168 339.447 196.92 339.767 196.6C340.103 196.264 340.359 195.856 340.535 195.376C340.711 194.896 340.799 194.352 340.799 193.744V191.728H341.279C341.167 192.064 340.983 192.336 340.727 192.544C340.471 192.736 340.175 192.896 339.839 193.024C339.503 193.136 339.135 193.216 338.735 193.264C338.351 193.312 337.959 193.36 337.559 193.408C337.159 193.44 336.775 193.488 336.407 193.552C336.055 193.616 335.735 193.72 335.447 193.864C335.159 194.008 334.927 194.208 334.751 194.464C334.591 194.704 334.511 195.032 334.511 195.448V195.544C334.511 195.864 334.567 196.152 334.679 196.408C334.807 196.664 334.983 196.888 335.207 197.08C335.431 197.256 335.703 197.392 336.023 197.488C336.343 197.568 336.695 197.608 337.079 197.608ZM350.965 199.288C350.245 199.288 349.557 199.2 348.901 199.024C348.261 198.864 347.709 198.616 347.245 198.28C346.781 197.928 346.405 197.504 346.117 197.008C345.845 196.496 345.701 195.912 345.685 195.256V195.112H347.725V195.256C347.725 195.656 347.813 196.008 347.989 196.312C348.181 196.6 348.429 196.848 348.733 197.056C349.037 197.248 349.389 197.392 349.789 197.488C350.205 197.584 350.629 197.632 351.061 197.632C351.445 197.632 351.813 197.608 352.165 197.56C352.517 197.496 352.821 197.384 353.077 197.224C353.349 197.064 353.557 196.864 353.701 196.624C353.861 196.368 353.941 196.04 353.941 195.64V195.496C353.941 195.08 353.829 194.76 353.605 194.536C353.381 194.296 353.085 194.104 352.717 193.96C352.349 193.8 351.933 193.672 351.469 193.576C351.005 193.464 350.525 193.36 350.029 193.264C349.549 193.152 349.077 193.024 348.613 192.88C348.149 192.736 347.733 192.536 347.365 192.28C346.997 192.008 346.701 191.672 346.477 191.272C346.253 190.872 346.141 190.368 346.141 189.76V189.616C346.141 188.976 346.277 188.44 346.549 188.008C346.837 187.56 347.205 187.2 347.653 186.928C348.117 186.656 348.637 186.464 349.213 186.352C349.789 186.24 350.373 186.184 350.965 186.184C351.605 186.184 352.213 186.256 352.789 186.4C353.381 186.544 353.901 186.768 354.349 187.072C354.797 187.36 355.157 187.736 355.429 188.2C355.701 188.664 355.837 189.224 355.837 189.88L355.861 190.048H353.845V189.904C353.845 189.552 353.765 189.248 353.605 188.992C353.445 188.736 353.229 188.52 352.957 188.344C352.701 188.168 352.397 188.04 352.045 187.96C351.709 187.88 351.341 187.84 350.941 187.84C350.589 187.84 350.253 187.864 349.933 187.912C349.613 187.96 349.325 188.056 349.069 188.2C348.813 188.328 348.613 188.504 348.469 188.728C348.325 188.952 348.253 189.232 348.253 189.568V189.712C348.253 190.08 348.365 190.384 348.589 190.624C348.813 190.864 349.101 191.056 349.453 191.2C349.821 191.344 350.237 191.472 350.701 191.584C351.181 191.68 351.661 191.784 352.141 191.896C352.621 192.008 353.093 192.136 353.557 192.28C354.037 192.424 354.453 192.624 354.805 192.88C355.173 193.136 355.469 193.464 355.693 193.864C355.917 194.248 356.029 194.744 356.029 195.352V195.496C356.029 196.2 355.893 196.8 355.621 197.296C355.349 197.776 354.981 198.168 354.517 198.472C354.053 198.76 353.517 198.968 352.909 199.096C352.301 199.224 351.653 199.288 350.965 199.288ZM364.207 199.288C363.167 199.288 362.271 199.136 361.519 198.832C360.767 198.512 360.135 198.064 359.623 197.488C359.111 196.912 358.735 196.224 358.495 195.424C358.255 194.608 358.135 193.712 358.135 192.736V192.592C358.135 191.664 358.255 190.808 358.495 190.024C358.735 189.224 359.095 188.544 359.575 187.984C360.071 187.424 360.687 186.984 361.423 186.664C362.159 186.344 363.015 186.184 363.991 186.184C364.823 186.184 365.583 186.328 366.271 186.616C366.975 186.888 367.567 187.28 368.047 187.792C368.543 188.288 368.927 188.888 369.199 189.592C369.471 190.296 369.607 191.08 369.607 191.944V193.24H359.551V191.704H367.543V191.584C367.543 191.008 367.455 190.488 367.279 190.024C367.103 189.56 366.855 189.176 366.535 188.872C366.215 188.552 365.839 188.304 365.407 188.128C364.975 187.952 364.503 187.864 363.991 187.864C363.319 187.864 362.743 187.976 362.263 188.2C361.783 188.424 361.391 188.736 361.087 189.136C360.799 189.52 360.583 189.976 360.439 190.504C360.311 191.032 360.247 191.6 360.247 192.208V192.952C360.247 193.56 360.319 194.152 360.463 194.728C360.607 195.288 360.831 195.784 361.135 196.216C361.455 196.632 361.863 196.968 362.359 197.224C362.871 197.48 363.495 197.608 364.231 197.608C364.743 197.608 365.199 197.544 365.599 197.416C365.999 197.288 366.335 197.12 366.607 196.912C366.879 196.704 367.087 196.472 367.231 196.216C367.375 195.944 367.447 195.672 367.447 195.4L367.471 195.256H369.391V195.4C369.375 195.96 369.239 196.48 368.983 196.96C368.743 197.424 368.399 197.832 367.951 198.184C367.503 198.52 366.959 198.792 366.319 199C365.695 199.192 364.991 199.288 364.207 199.288Z" fill="black"></path><path d="M251 162L251 94C251 89.5817 254.582 86 259 86L420 86" stroke="#9292A9" stroke-width="3" stroke-dasharray="6 6"></path><path d="M251 219L251 287C251 291.418 254.582 295 259 295L420 295" stroke="#9292A9" stroke-width="3" stroke-dasharray="6 6"></path><rect x="425.82" y="310.425" width="364.601" height="16.5728" fill="#E9E9EF"></rect><rect x="823.57" y="310.425" width="120.153" height="16.5728" fill="#E9E9EF"></rect><rect x="976.867" y="310.425" width="364.601" height="16.5728" fill="#E9E9EF"></rect><rect x="1374.61" y="310.425" width="120.153" height="16.5728" fill="#E9E9EF"></rect><rect x="426" y="310" width="364.601" height="16.5728" fill="#E9E9EF"></rect><rect x="823.75" y="310" width="120.153" height="16.5728" fill="#E9E9EF"></rect><rect x="977.047" y="310" width="364.601" height="16.5728" fill="#E9E9EF"></rect><rect x="1374.79" y="310" width="120.153" height="16.5728" fill="#E9E9EF"></rect></svg> 