<?xml version="1.0" encoding="UTF-8"?> <svg xmlns="http://www.w3.org/2000/svg" width="1920" height="457" viewBox="0 0 1920 457" fill="none"><rect width="1920" height="457" fill="white"></rect><path opacity="0.9" d="M459.74 347.203C445.831 347.203 426.766 347.203 417.504 340.375C407.797 333.231 402.068 323.59 399.522 309.998C393.792 279.336 391.023 244.723 391.023 204.167C391.023 163.611 393.792 128.998 399.522 98.336C402.068 84.7437 407.765 75.1026 417.504 67.9587C426.798 61.1309 445.831 61.1309 459.74 61.1309H1460.44C1474.35 61.1309 1493.42 61.1309 1502.68 67.9587C1512.39 75.1026 1518.12 84.7437 1520.66 98.336C1526.39 128.998 1529.19 163.611 1529.19 204.167C1529.19 244.723 1526.42 279.336 1520.66 309.998C1518.12 323.59 1512.42 333.231 1502.68 340.375C1493.39 347.203 1474.35 347.203 1460.44 347.203H459.74Z" stroke="#E9E9EF" stroke-width="4.69863" stroke-miterlimit="10"></path><path d="M657.419 10.5114C655.012 8.00957 651.718 6.58447 648.266 6.58447H504.458C501.006 6.58447 497.681 8.00957 495.306 10.5114L492.107 13.8683C490.967 15.0401 490.365 16.6235 490.365 18.2386V43.6688H662.391V18.207C662.391 16.5918 661.757 15.0084 660.649 13.8366L657.45 10.4797L657.419 10.5114Z" stroke="#E9E9EF" stroke-width="4.7002" stroke-miterlimit="10"></path><path d="M1245.92 9.30211V8.41538C1245.92 7.71867 1245.8 7.11696 1245.48 6.57859C1243.83 3.66505 1237.88 3 1229.36 3H691.811C683.292 3 677.338 3.66505 675.692 6.57859C675.388 6.89477 674.781 9.9416 674.781 13.5633" stroke="#E9E9EF" stroke-width="4.7002" stroke-miterlimit="10"></path><path d="M1245.92 9.33398V30.3621C1245.92 30.3621 1234.29 30.3621 1232.46 30.3621H688.739H674.75V12.797" stroke="#E9E9EF" stroke-width="4.7002" stroke-miterlimit="10"></path><path d="M688.89 43.2201V30.3861H1232.33L1232.33 46.0687" stroke="#E9E9EF" stroke-width="4.7002" stroke-miterlimit="10"></path><path d="M1424.96 6.58447H1281.15C1277.7 6.58447 1274.38 8.00957 1272 10.5114L1268.8 13.8683C1267.66 15.0401 1267.06 16.6235 1267.06 18.2386V43.6687H1439.05V18.207C1439.05 12.1403 1430.35 6.58447 1424.96 6.58447Z" stroke="#E9E9EF" stroke-width="4.7002" stroke-miterlimit="10"></path><mask id="path-7-inside-1_2793_960" fill="white"><path d="M1426.48 24.0012C1425.56 24.0012 1424.8 24.6348 1424.8 25.4585V42.2169C1424.8 43.0089 1425.56 43.6742 1426.48 43.6742C1427.4 43.6742 1428.16 43.0406 1428.16 42.2169V25.4585C1428.16 24.6665 1427.4 24.0012 1426.48 24.0012Z"></path></mask><path d="M1426.48 24.0012C1425.56 24.0012 1424.8 24.6348 1424.8 25.4585V42.2169C1424.8 43.0089 1425.56 43.6742 1426.48 43.6742C1427.4 43.6742 1428.16 43.0406 1428.16 42.2169V25.4585C1428.16 24.6665 1427.4 24.0012 1426.48 24.0012Z" fill="#A5A5AD"></path><path d="M1426.48 28.7014C1427.08 28.7014 1427.76 28.4942 1428.35 27.9896C1428.96 27.4661 1429.5 26.5766 1429.5 25.4585H1420.1C1420.1 21.3853 1423.67 19.301 1426.48 19.301V28.7014ZM1429.5 25.4585V42.2169H1420.1V25.4585H1429.5ZM1429.5 42.2169C1429.5 41.0496 1428.94 40.1813 1428.38 39.6967C1427.82 39.2126 1427.14 38.974 1426.48 38.974V48.3744C1423.6 48.3744 1420.1 46.1974 1420.1 42.2169H1429.5ZM1426.48 38.974C1425.87 38.974 1425.19 39.1811 1424.6 39.6857C1423.99 40.2093 1423.46 41.0988 1423.46 42.2169H1432.86C1432.86 46.29 1429.29 48.3744 1426.48 48.3744V38.974ZM1423.46 42.2169V25.4585H1432.86V42.2169H1423.46ZM1423.46 25.4585C1423.46 26.6258 1424.02 27.4941 1424.58 27.9787C1425.13 28.4628 1425.81 28.7014 1426.48 28.7014V19.301C1429.36 19.301 1432.86 21.478 1432.86 25.4585H1423.46Z" fill="#E9E9EF" mask="url(#path-7-inside-1_2793_960)"></path><mask id="path-9-inside-2_2793_960" fill="white"><path d="M1414.27 24.0012C1413.36 24.0012 1412.6 24.6348 1412.6 25.4585V42.2169C1412.6 43.0089 1413.36 43.6742 1414.27 43.6742C1415.19 43.6742 1415.95 43.0406 1415.95 42.2169V25.4585C1415.95 24.6665 1415.19 24.0012 1414.27 24.0012Z"></path></mask><path d="M1414.27 24.0012C1413.36 24.0012 1412.6 24.6348 1412.6 25.4585V42.2169C1412.6 43.0089 1413.36 43.6742 1414.27 43.6742C1415.19 43.6742 1415.95 43.0406 1415.95 42.2169V25.4585C1415.95 24.6665 1415.19 24.0012 1414.27 24.0012Z" fill="#A5A5AD"></path><path d="M1414.27 28.7014C1414.88 28.7014 1415.56 28.4942 1416.15 27.9896C1416.76 27.4661 1417.3 26.5766 1417.3 25.4585H1407.89C1407.89 21.3853 1411.47 19.301 1414.27 19.301V28.7014ZM1417.3 25.4585V42.2169H1407.89V25.4585H1417.3ZM1417.3 42.2169C1417.3 41.0496 1416.73 40.1813 1416.18 39.6967C1415.62 39.2126 1414.94 38.974 1414.27 38.974V48.3744C1411.39 48.3744 1407.89 46.1974 1407.89 42.2169H1417.3ZM1414.27 38.974C1413.67 38.974 1412.99 39.1811 1412.4 39.6857C1411.79 40.2093 1411.25 41.0988 1411.25 42.2169H1420.65C1420.65 46.29 1417.08 48.3744 1414.27 48.3744V38.974ZM1411.25 42.2169V25.4585H1420.65V42.2169H1411.25ZM1411.25 25.4585C1411.25 26.6258 1411.82 27.4941 1412.37 27.9787C1412.93 28.4628 1413.61 28.7014 1414.27 28.7014V19.301C1417.15 19.301 1420.65 21.478 1420.65 25.4585H1411.25Z" fill="#E9E9EF" mask="url(#path-9-inside-2_2793_960)"></path><mask id="path-11-inside-3_2793_960" fill="white"><path d="M1402.04 24.0012C1401.12 24.0012 1400.36 24.6348 1400.36 25.4585V42.2169C1400.36 43.0089 1401.12 43.6742 1402.04 43.6742C1402.96 43.6742 1403.72 43.0406 1403.72 42.2169V25.4585C1403.72 24.6665 1402.96 24.0012 1402.04 24.0012Z"></path></mask><path d="M1402.04 24.0012C1401.12 24.0012 1400.36 24.6348 1400.36 25.4585V42.2169C1400.36 43.0089 1401.12 43.6742 1402.04 43.6742C1402.96 43.6742 1403.72 43.0406 1403.72 42.2169V25.4585C1403.72 24.6665 1402.96 24.0012 1402.04 24.0012Z" fill="#A5A5AD"></path><path d="M1402.04 28.7014C1402.65 28.7014 1403.33 28.4942 1403.91 27.9896C1404.53 27.4661 1405.06 26.5766 1405.06 25.4585H1395.66C1395.66 21.3853 1399.23 19.301 1402.04 19.301V28.7014ZM1405.06 25.4585V42.2169H1395.66V25.4585H1405.06ZM1405.06 42.2169C1405.06 41.0496 1404.5 40.1813 1403.94 39.6967C1403.38 39.2126 1402.71 38.974 1402.04 38.974V48.3744C1399.16 48.3744 1395.66 46.1975 1395.66 42.2169H1405.06ZM1402.04 38.974C1401.43 38.974 1400.75 39.1811 1400.16 39.6858C1399.55 40.2093 1399.02 41.0988 1399.02 42.2169H1408.42C1408.42 46.29 1404.85 48.3744 1402.04 48.3744V38.974ZM1399.02 42.2169V25.4585H1408.42V42.2169H1399.02ZM1399.02 25.4585C1399.02 26.6258 1399.58 27.4941 1400.14 27.9787C1400.69 28.4628 1401.37 28.7014 1402.04 28.7014V19.301C1404.92 19.301 1408.42 21.478 1408.42 25.4585H1399.02Z" fill="#E9E9EF" mask="url(#path-11-inside-3_2793_960)"></path><mask id="path-13-inside-4_2793_960" fill="white"><path d="M1389.78 24.0012C1388.86 24.0012 1388.1 24.6348 1388.1 25.4585V42.2169C1388.1 43.0089 1388.86 43.6742 1389.78 43.6742C1390.7 43.6742 1391.46 43.0406 1391.46 42.2169V25.4585C1391.46 24.6665 1390.7 24.0012 1389.78 24.0012Z"></path></mask><path d="M1389.78 24.0012C1388.86 24.0012 1388.1 24.6348 1388.1 25.4585V42.2169C1388.1 43.0089 1388.86 43.6742 1389.78 43.6742C1390.7 43.6742 1391.46 43.0406 1391.46 42.2169V25.4585C1391.46 24.6665 1390.7 24.0012 1389.78 24.0012Z" fill="#A5A5AD"></path><path d="M1389.78 28.7014C1390.39 28.7014 1391.07 28.4942 1391.66 27.9896C1392.27 27.4661 1392.8 26.5766 1392.8 25.4585H1383.4C1383.4 21.3853 1386.97 19.301 1389.78 19.301V28.7014ZM1392.8 25.4585V42.2169H1383.4V25.4585H1392.8ZM1392.8 42.2169C1392.8 41.0496 1392.24 40.1813 1391.68 39.6967C1391.13 39.2126 1390.45 38.974 1389.78 38.974V48.3744C1386.9 48.3744 1383.4 46.1974 1383.4 42.2169H1392.8ZM1389.78 38.974C1389.18 38.974 1388.5 39.1811 1387.91 39.6857C1387.3 40.2093 1386.76 41.0988 1386.76 42.2169H1396.16C1396.16 46.29 1392.59 48.3744 1389.78 48.3744V38.974ZM1386.76 42.2169V25.4585H1396.16V42.2169H1386.76ZM1386.76 25.4585C1386.76 26.6258 1387.32 27.4941 1387.88 27.9787C1388.44 28.4628 1389.12 28.7014 1389.78 28.7014V19.301C1392.66 19.301 1396.16 21.478 1396.16 25.4585H1386.76Z" fill="#E9E9EF" mask="url(#path-13-inside-4_2793_960)"></path><mask id="path-15-inside-5_2793_960" fill="white"><path d="M1377.55 24.0012C1376.63 24.0012 1375.87 24.6348 1375.87 25.4585V42.2169C1375.87 43.0089 1376.63 43.6742 1377.55 43.6742C1378.47 43.6742 1379.23 43.0406 1379.23 42.2169V25.4585C1379.23 24.6665 1378.47 24.0012 1377.55 24.0012Z"></path></mask><path d="M1377.55 24.0012C1376.63 24.0012 1375.87 24.6348 1375.87 25.4585V42.2169C1375.87 43.0089 1376.63 43.6742 1377.55 43.6742C1378.47 43.6742 1379.23 43.0406 1379.23 42.2169V25.4585C1379.23 24.6665 1378.47 24.0012 1377.55 24.0012Z" fill="#A5A5AD"></path><path d="M1377.55 28.7014C1378.15 28.7014 1378.83 28.4942 1379.42 27.9896C1380.03 27.4661 1380.57 26.5766 1380.57 25.4585H1371.17C1371.17 21.3853 1374.74 19.301 1377.55 19.301V28.7014ZM1380.57 25.4585V42.2169H1371.17V25.4585H1380.57ZM1380.57 42.2169C1380.57 41.0496 1380.01 40.1813 1379.45 39.6967C1378.89 39.2126 1378.21 38.974 1377.55 38.974V48.3744C1374.67 48.3744 1371.17 46.1975 1371.17 42.2169H1380.57ZM1377.55 38.974C1376.94 38.974 1376.26 39.1811 1375.67 39.6858C1375.06 40.2093 1374.53 41.0988 1374.53 42.2169H1383.93C1383.93 46.29 1380.36 48.3744 1377.55 48.3744V38.974ZM1374.53 42.2169V25.4585H1383.93V42.2169H1374.53ZM1374.53 25.4585C1374.53 26.6258 1375.09 27.4941 1375.65 27.9787C1376.2 28.4628 1376.88 28.7014 1377.55 28.7014V19.301C1380.43 19.301 1383.93 21.478 1383.93 25.4585H1374.53Z" fill="#E9E9EF" mask="url(#path-15-inside-5_2793_960)"></path><mask id="path-17-inside-6_2793_960" fill="white"><path d="M1365.29 24.0012C1364.37 24.0012 1363.61 24.6348 1363.61 25.4585V42.2169C1363.61 43.0089 1364.37 43.6742 1365.29 43.6742C1366.21 43.6742 1366.97 43.0406 1366.97 42.2169V25.4585C1366.97 24.6665 1366.21 24.0012 1365.29 24.0012Z"></path></mask><path d="M1365.29 24.0012C1364.37 24.0012 1363.61 24.6348 1363.61 25.4585V42.2169C1363.61 43.0089 1364.37 43.6742 1365.29 43.6742C1366.21 43.6742 1366.97 43.0406 1366.97 42.2169V25.4585C1366.97 24.6665 1366.21 24.0012 1365.29 24.0012Z" fill="#A5A5AD"></path><path d="M1365.29 28.7014C1365.9 28.7014 1366.58 28.4942 1367.16 27.9896C1367.78 27.4661 1368.31 26.5766 1368.31 25.4585H1358.91C1358.91 21.3853 1362.48 19.301 1365.29 19.301V28.7014ZM1368.31 25.4585V42.2169H1358.91V25.4585H1368.31ZM1368.31 42.2169C1368.31 41.0496 1367.75 40.1813 1367.19 39.6967C1366.63 39.2126 1365.96 38.974 1365.29 38.974V48.3744C1362.41 48.3744 1358.91 46.1975 1358.91 42.2169H1368.31ZM1365.29 38.974C1364.68 38.974 1364 39.1811 1363.41 39.6858C1362.8 40.2093 1362.27 41.0988 1362.27 42.2169H1371.67C1371.67 46.29 1368.1 48.3744 1365.29 48.3744V38.974ZM1362.27 42.2169V25.4585H1371.67V42.2169H1362.27ZM1362.27 25.4585C1362.27 26.6258 1362.83 27.4941 1363.39 27.9787C1363.94 28.4628 1364.62 28.7014 1365.29 28.7014V19.301C1368.17 19.301 1371.67 21.478 1371.67 25.4585H1362.27Z" fill="#E9E9EF" mask="url(#path-17-inside-6_2793_960)"></path><mask id="path-19-inside-7_2793_960" fill="white"><path d="M1353.06 24.0012C1352.14 24.0012 1351.38 24.6348 1351.38 25.4585V42.2169C1351.38 43.0089 1352.14 43.6742 1353.06 43.6742C1353.97 43.6742 1354.73 43.0406 1354.73 42.2169V25.4585C1354.73 24.6665 1353.97 24.0012 1353.06 24.0012Z"></path></mask><path d="M1353.06 24.0012C1352.14 24.0012 1351.38 24.6348 1351.38 25.4585V42.2169C1351.38 43.0089 1352.14 43.6742 1353.06 43.6742C1353.97 43.6742 1354.73 43.0406 1354.73 42.2169V25.4585C1354.73 24.6665 1353.97 24.0012 1353.06 24.0012Z" fill="#A5A5AD"></path><path d="M1353.06 28.7014C1353.66 28.7014 1354.34 28.4942 1354.93 27.9896C1355.54 27.4661 1356.08 26.5766 1356.08 25.4585H1346.68C1346.68 21.3853 1350.25 19.301 1353.06 19.301V28.7014ZM1356.08 25.4585V42.2169H1346.68V25.4585H1356.08ZM1356.08 42.2169C1356.08 41.0496 1355.51 40.1813 1354.96 39.6967C1354.4 39.2126 1353.72 38.974 1353.06 38.974V48.3744C1350.18 48.3744 1346.68 46.1974 1346.68 42.2169H1356.08ZM1353.06 38.974C1352.45 38.974 1351.77 39.1811 1351.18 39.6857C1350.57 40.2092 1350.03 41.0988 1350.03 42.2169H1359.43C1359.43 46.2901 1355.86 48.3744 1353.06 48.3744V38.974ZM1350.03 42.2169V25.4585H1359.43V42.2169H1350.03ZM1350.03 25.4585C1350.03 26.6258 1350.6 27.4941 1351.15 27.9787C1351.71 28.4628 1352.39 28.7014 1353.06 28.7014V19.301C1355.93 19.301 1359.43 21.4779 1359.43 25.4585H1350.03Z" fill="#E9E9EF" mask="url(#path-19-inside-7_2793_960)"></path><mask id="path-21-inside-8_2793_960" fill="white"><path d="M1340.84 24.0012C1339.92 24.0012 1339.16 24.6348 1339.16 25.4585V42.2169C1339.16 43.0089 1339.92 43.6742 1340.84 43.6742C1341.76 43.6742 1342.52 43.0406 1342.52 42.2169V25.4585C1342.52 24.6665 1341.76 24.0012 1340.84 24.0012Z"></path></mask><path d="M1340.84 24.0012C1339.92 24.0012 1339.16 24.6348 1339.16 25.4585V42.2169C1339.16 43.0089 1339.92 43.6742 1340.84 43.6742C1341.76 43.6742 1342.52 43.0406 1342.52 42.2169V25.4585C1342.52 24.6665 1341.76 24.0012 1340.84 24.0012Z" fill="#A5A5AD"></path><path d="M1340.84 28.7014C1341.44 28.7014 1342.12 28.4942 1342.71 27.9896C1343.32 27.4661 1343.86 26.5766 1343.86 25.4585H1334.46C1334.46 21.3853 1338.03 19.301 1340.84 19.301V28.7014ZM1343.86 25.4585V42.2169H1334.46V25.4585H1343.86ZM1343.86 42.2169C1343.86 41.0496 1343.29 40.1813 1342.74 39.6967C1342.18 39.2126 1341.5 38.974 1340.84 38.974V48.3744C1337.96 48.3744 1334.46 46.1975 1334.46 42.2169H1343.86ZM1340.84 38.974C1340.23 38.974 1339.55 39.1811 1338.96 39.6858C1338.35 40.2093 1337.82 41.0988 1337.82 42.2169H1347.22C1347.22 46.29 1343.65 48.3744 1340.84 48.3744V38.974ZM1337.82 42.2169V25.4585H1347.22V42.2169H1337.82ZM1337.82 25.4585C1337.82 26.6258 1338.38 27.4941 1338.94 27.9787C1339.49 28.4628 1340.17 28.7014 1340.84 28.7014V19.301C1343.72 19.301 1347.22 21.478 1347.22 25.4585H1337.82Z" fill="#E9E9EF" mask="url(#path-21-inside-8_2793_960)"></path><mask id="path-23-inside-9_2793_960" fill="white"><path d="M1328.57 24.0012C1327.65 24.0012 1326.89 24.6348 1326.89 25.4585V42.2169C1326.89 43.0089 1327.65 43.6742 1328.57 43.6742C1329.49 43.6742 1330.25 43.0406 1330.25 42.2169V25.4585C1330.25 24.6665 1329.49 24.0012 1328.57 24.0012Z"></path></mask><path d="M1328.57 24.0012C1327.65 24.0012 1326.89 24.6348 1326.89 25.4585V42.2169C1326.89 43.0089 1327.65 43.6742 1328.57 43.6742C1329.49 43.6742 1330.25 43.0406 1330.25 42.2169V25.4585C1330.25 24.6665 1329.49 24.0012 1328.57 24.0012Z" fill="#A5A5AD"></path><path d="M1328.57 28.7014C1329.18 28.7014 1329.86 28.4942 1330.45 27.9896C1331.06 27.4661 1331.59 26.5766 1331.59 25.4585H1322.19C1322.19 21.3853 1325.76 19.301 1328.57 19.301V28.7014ZM1331.59 25.4585V42.2169H1322.19V25.4585H1331.59ZM1331.59 42.2169C1331.59 41.0496 1331.03 40.1813 1330.47 39.6967C1329.92 39.2126 1329.24 38.974 1328.57 38.974V48.3744C1325.69 48.3744 1322.19 46.1974 1322.19 42.2169H1331.59ZM1328.57 38.974C1327.96 38.974 1327.28 39.1811 1326.7 39.6857C1326.09 40.2093 1325.55 41.0988 1325.55 42.2169H1334.95C1334.95 46.29 1331.38 48.3744 1328.57 48.3744V38.974ZM1325.55 42.2169V25.4585H1334.95V42.2169H1325.55ZM1325.55 25.4585C1325.55 26.6258 1326.11 27.4941 1326.67 27.9787C1327.23 28.4628 1327.9 28.7014 1328.57 28.7014V19.301C1331.45 19.301 1334.95 21.478 1334.95 25.4585H1325.55Z" fill="#E9E9EF" mask="url(#path-23-inside-9_2793_960)"></path><mask id="path-25-inside-10_2793_960" fill="white"><path d="M1316.32 24.0012C1315.4 24.0012 1314.64 24.6348 1314.64 25.4585V42.2169C1314.64 43.0089 1315.4 43.6742 1316.32 43.6742C1317.24 43.6742 1318 43.0406 1318 42.2169V25.4585C1318 24.6665 1317.24 24.0012 1316.32 24.0012Z"></path></mask><path d="M1316.32 24.0012C1315.4 24.0012 1314.64 24.6348 1314.64 25.4585V42.2169C1314.64 43.0089 1315.4 43.6742 1316.32 43.6742C1317.24 43.6742 1318 43.0406 1318 42.2169V25.4585C1318 24.6665 1317.24 24.0012 1316.32 24.0012Z" fill="#A5A5AD"></path><path d="M1316.32 28.7014C1316.93 28.7014 1317.61 28.4942 1318.2 27.9896C1318.81 27.4661 1319.34 26.5766 1319.34 25.4585H1309.94C1309.94 21.3853 1313.51 19.301 1316.32 19.301V28.7014ZM1319.34 25.4585V42.2169H1309.94V25.4585H1319.34ZM1319.34 42.2169C1319.34 41.0496 1318.78 40.1813 1318.22 39.6967C1317.67 39.2126 1316.99 38.974 1316.32 38.974V48.3744C1313.44 48.3744 1309.94 46.1974 1309.94 42.2169H1319.34ZM1316.32 38.974C1315.71 38.974 1315.03 39.1811 1314.45 39.6857C1313.84 40.2093 1313.3 41.0988 1313.3 42.2169H1322.7C1322.7 46.29 1319.13 48.3744 1316.32 48.3744V38.974ZM1313.3 42.2169V25.4585H1322.7V42.2169H1313.3ZM1313.3 25.4585C1313.3 26.6258 1313.86 27.4941 1314.42 27.9787C1314.98 28.4628 1315.65 28.7014 1316.32 28.7014V19.301C1319.2 19.301 1322.7 21.478 1322.7 25.4585H1313.3Z" fill="#E9E9EF" mask="url(#path-25-inside-10_2793_960)"></path><mask id="path-27-inside-11_2793_960" fill="white"><path d="M1304.1 24.0012C1303.18 24.0012 1302.42 24.6348 1302.42 25.4585V42.2169C1302.42 43.0089 1303.18 43.6742 1304.1 43.6742C1305.02 43.6742 1305.78 43.0406 1305.78 42.2169V25.4585C1305.78 24.6665 1305.02 24.0012 1304.1 24.0012Z"></path></mask><path d="M1304.1 24.0012C1303.18 24.0012 1302.42 24.6348 1302.42 25.4585V42.2169C1302.42 43.0089 1303.18 43.6742 1304.1 43.6742C1305.02 43.6742 1305.78 43.0406 1305.78 42.2169V25.4585C1305.78 24.6665 1305.02 24.0012 1304.1 24.0012Z" fill="#A5A5AD"></path><path d="M1304.1 28.7014C1304.71 28.7014 1305.39 28.4942 1305.98 27.9896C1306.59 27.4661 1307.12 26.5766 1307.12 25.4585H1297.72C1297.72 21.3853 1301.29 19.301 1304.1 19.301V28.7014ZM1307.12 25.4585V42.2169H1297.72V25.4585H1307.12ZM1307.12 42.2169C1307.12 41.0496 1306.56 40.1813 1306 39.6967C1305.45 39.2126 1304.77 38.974 1304.1 38.974V48.3744C1301.22 48.3744 1297.72 46.1974 1297.72 42.2169H1307.12ZM1304.1 38.974C1303.5 38.974 1302.82 39.1811 1302.23 39.6857C1301.62 40.2093 1301.08 41.0988 1301.08 42.2169H1310.48C1310.48 46.29 1306.91 48.3744 1304.1 48.3744V38.974ZM1301.08 42.2169V25.4585H1310.48V42.2169H1301.08ZM1301.08 25.4585C1301.08 26.6258 1301.64 27.4941 1302.2 27.9787C1302.76 28.4628 1303.44 28.7014 1304.1 28.7014V19.301C1306.98 19.301 1310.48 21.478 1310.48 25.4585H1301.08Z" fill="#E9E9EF" mask="url(#path-27-inside-11_2793_960)"></path><mask id="path-29-inside-12_2793_960" fill="white"><path d="M1291.84 24.0012C1290.93 24.0012 1290.17 24.6348 1290.17 25.4585V42.2169C1290.17 43.0089 1290.93 43.6742 1291.84 43.6742C1292.76 43.6742 1293.52 43.0406 1293.52 42.2169V25.4585C1293.52 24.6665 1292.76 24.0012 1291.84 24.0012Z"></path></mask><path d="M1291.84 24.0012C1290.93 24.0012 1290.17 24.6348 1290.17 25.4585V42.2169C1290.17 43.0089 1290.93 43.6742 1291.84 43.6742C1292.76 43.6742 1293.52 43.0406 1293.52 42.2169V25.4585C1293.52 24.6665 1292.76 24.0012 1291.84 24.0012Z" fill="#A5A5AD"></path><path d="M1291.84 28.7014C1292.45 28.7014 1293.13 28.4942 1293.72 27.9896C1294.33 27.4661 1294.87 26.5766 1294.87 25.4585H1285.47C1285.47 21.3853 1289.04 19.301 1291.84 19.301V28.7014ZM1294.87 25.4585V42.2169H1285.47V25.4585H1294.87ZM1294.87 42.2169C1294.87 41.0496 1294.3 40.1813 1293.75 39.6967C1293.19 39.2126 1292.51 38.974 1291.84 38.974V48.3744C1288.97 48.3744 1285.47 46.1974 1285.47 42.2169H1294.87ZM1291.84 38.974C1291.24 38.974 1290.56 39.1811 1289.97 39.6857C1289.36 40.2092 1288.82 41.0988 1288.82 42.2169H1298.22C1298.22 46.2901 1294.65 48.3744 1291.84 48.3744V38.974ZM1288.82 42.2169V25.4585H1298.22V42.2169H1288.82ZM1288.82 25.4585C1288.82 26.6258 1289.39 27.4941 1289.94 27.9787C1290.5 28.4628 1291.18 28.7014 1291.84 28.7014V19.301C1294.72 19.301 1298.22 21.4779 1298.22 25.4585H1288.82Z" fill="#E9E9EF" mask="url(#path-29-inside-12_2793_960)"></path><mask id="path-31-inside-13_2793_960" fill="white"><path d="M1279.65 24.0012C1278.73 24.0012 1277.97 24.6348 1277.97 25.4585V42.2169C1277.97 43.0089 1278.73 43.6742 1279.65 43.6742C1280.57 43.6742 1281.33 43.0406 1281.33 42.2169V25.4585C1281.33 24.6665 1280.57 24.0012 1279.65 24.0012Z"></path></mask><path d="M1279.65 24.0012C1278.73 24.0012 1277.97 24.6348 1277.97 25.4585V42.2169C1277.97 43.0089 1278.73 43.6742 1279.65 43.6742C1280.57 43.6742 1281.33 43.0406 1281.33 42.2169V25.4585C1281.33 24.6665 1280.57 24.0012 1279.65 24.0012Z" fill="#A5A5AD"></path><path d="M1279.65 28.7014C1280.26 28.7014 1280.94 28.4942 1281.52 27.9897C1282.13 27.4662 1282.67 26.5766 1282.67 25.4585H1273.27C1273.27 21.3853 1276.84 19.301 1279.65 19.301V28.7014ZM1282.67 25.4585V42.2169H1273.27V25.4585H1282.67ZM1282.67 42.2169C1282.67 41.0496 1282.11 40.1812 1281.55 39.6967C1280.99 39.2126 1280.32 38.974 1279.65 38.974V48.3744C1276.77 48.3744 1273.27 46.1975 1273.27 42.2169H1282.67ZM1279.65 38.974C1279.04 38.974 1278.36 39.1811 1277.77 39.6857C1277.16 40.2093 1276.63 41.0988 1276.63 42.2169H1286.03C1286.03 46.29 1282.46 48.3744 1279.65 48.3744V38.974ZM1276.63 42.2169V25.4585H1286.03V42.2169H1276.63ZM1276.63 25.4585C1276.63 26.6258 1277.19 27.4941 1277.75 27.9787C1278.3 28.4628 1278.98 28.7014 1279.65 28.7014V19.301C1282.53 19.301 1286.03 21.478 1286.03 25.4585H1276.63Z" fill="#E9E9EF" mask="url(#path-31-inside-13_2793_960)"></path><path d="M376.032 203.701C376.032 262.625 381.711 298.482 384.792 315.318C387.84 332.153 395.123 344.355 406.835 353.197C418.546 362.039 437.99 362.333 455.542 362.333H1464.49C1482.01 362.333 1501.49 362.039 1513.2 353.197C1524.91 344.355 1532.16 332.153 1535.24 315.318C1538.29 298.482 1544 262.625 1544 203.701C1544 144.777 1538.32 108.92 1535.24 92.0846C1532.19 75.2492 1524.91 63.0467 1513.2 54.2049C1501.49 45.363 1482.04 45.0693 1464.49 45.0693H455.509C437.99 45.0693 418.514 45.363 406.803 54.2049C395.091 63.0467 387.84 75.2492 384.76 92.0846C381.711 108.92 376 144.777 376 203.701H376.032Z" stroke="#E9E9EF" stroke-width="4.7002" stroke-miterlimit="10"></path><path d="M657.419 10.5114C655.012 8.00957 651.718 6.58447 648.266 6.58447H504.458C501.006 6.58447 497.681 8.00957 495.306 10.5114L492.107 13.8683C490.967 15.0401 490.365 16.6235 490.365 18.2386V18.5237H662.391V18.2386C662.391 16.6235 661.757 15.0401 660.649 13.8683L657.45 10.5114H657.419Z" stroke="#E9E9EF" stroke-width="4.7002" stroke-miterlimit="10"></path><path d="M1424.96 6.58447H1281.15C1277.7 6.58447 1274.38 8.00957 1272 10.5114L1268.8 13.8683C1267.66 15.0401 1267.06 16.6235 1267.06 18.2386V18.302H1439.05V18.2386C1439.05 12.1619 1430.25 6.58447 1424.96 6.58447Z" stroke="#E9E9EF" stroke-width="4.7002" stroke-miterlimit="10"></path><path d="M1390.95 175.611H1405.82V205.357H1390.95V175.611ZM1405.82 160.738H1420.69V175.611H1405.82V160.738ZM1420.69 145.865H1435.56V160.738H1420.69V145.865ZM1435.56 130.992H1450.44V145.865H1435.56V130.992ZM1390.95 101.246H1465.31V130.992H1450.44V116.119H1390.95V101.246Z" fill="#E9E9EF"></path><path d="M1286.83 175.611H1301.7V190.484H1286.83V175.611ZM1301.7 190.484H1346.32V205.357H1301.7V190.484ZM1346.32 145.865H1361.19V190.484H1346.32V145.865ZM1286.83 101.246H1361.19V116.119H1301.7V130.992H1346.32V145.865H1286.83V101.246Z" fill="#E9E9EF"></path><path d="M1242.21 130.992H1257.08V145.865H1242.21V130.992ZM1242.21 190.484H1257.08V205.357H1242.21V190.484Z" fill="#E9E9EF"></path><path d="M1138.11 116.119H1152.98V145.865H1138.11V116.119ZM1152.98 101.246H1197.6V116.119H1152.98V101.246ZM1197.6 116.119H1212.47V190.484H1197.6V160.738H1152.98V145.865H1197.6V116.119ZM1152.98 190.484H1197.6V205.357H1152.98V190.484ZM1138.11 175.611H1152.98V190.484H1138.11V175.611Z" fill="#E9E9EF"></path><path d="M1048.87 190.484H1093.48V205.357H1048.87V190.484ZM1093.48 116.119H1108.36V190.484H1093.48V145.865H1078.61V130.992H1093.48V116.119ZM1063.74 145.865H1078.61V160.738H1063.74V145.865ZM1033.99 116.119H1048.87V160.738H1063.74V175.611H1048.87V190.484H1033.99V116.119ZM1048.87 101.246H1093.48V116.119H1048.87V101.246Z" fill="#E9E9EF"></path><path d="M1227.46 294.595V249.976H1212.59V235.103H1257.21V249.976H1242.33V294.595H1227.46Z" fill="#E9E9EF"></path><path d="M1153.05 294.595V235.103H1197.67V249.976H1167.92V264.849H1182.79V279.722H1167.92V294.595H1153.05Z" fill="#E9E9EF"></path><path d="M1093.48 294.595V235.103H1138.1V249.976H1123.23L1108.36 249.976L1108.36 264.849H1123.23L1123.23 279.722H1138.1V294.595H1093.48Z" fill="#E9E9EF"></path><path d="M1033.99 294.595V235.103H1048.87V279.722H1078.61V294.595H1033.99Z" fill="#E9E9EF"></path><rect x="424.195" y="86.3728" width="580.048" height="208.222" rx="44.6191" fill="#E9E9EF"></rect><path fill-rule="evenodd" clip-rule="evenodd" d="M510.874 116.203H480.781V266.667H510.874V266.666H571.054V236.575H571.059V251.621H586.106V236.574H586.104V191.436H571.054V176.389L510.874 176.389V146.297L556.012 146.297V161.342V161.343V176.388H586.104V161.343V161.342V131.25L571.054 131.25V116.204L510.874 116.204V116.203ZM556.012 236.574V206.481H510.874V236.574L556.012 236.574ZM631.247 116.203H601.154V236.574H616.209V266.666H691.44V236.574H706.47V116.203H676.378V236.574H631.247V116.203ZM826.857 191.435H811.806V176.389H751.613V146.297L796.765 146.297V161.342H826.857V131.25H811.806V116.204L736.575 116.204V131.25H721.52V191.435H736.575V206.481H796.765V236.574H751.613V221.528H721.52V251.621H736.575V266.666H811.806V251.62H826.857V191.435ZM871.979 116.204H841.887V191.436H856.927V206.482L917.117 206.482V236.575L871.979 236.575V221.528H841.887V251.621H856.927V266.667H932.159V251.621H947.21V191.436V116.204H917.117V176.39L871.979 176.39V116.204Z" fill="white"></path><rect x="425.82" y="310.425" width="364.601" height="16.5728" fill="#E9E9EF"></rect><rect x="823.57" y="310.425" width="120.153" height="16.5728" fill="#E9E9EF"></rect><rect x="976.867" y="310.425" width="364.601" height="16.5728" fill="#E9E9EF"></rect><rect x="1374.61" y="310.425" width="120.153" height="16.5728" fill="#E9E9EF"></rect><rect x="425.82" y="310.425" width="364.601" height="16.5728" fill="#F07C7E"></rect><rect x="823.57" y="310.425" width="120.153" height="16.5728" fill="#8DD1AC"></rect><rect x="976.867" y="310.425" width="364.601" height="16.5728" fill="#F07C7E"></rect><rect x="1374.61" y="310.425" width="120.153" height="16.5728" fill="#8DD1AC"></rect><path d="M848.464 435V418.2H859.648V420.168H850.648V425.616H858.568V427.536H850.648V435H848.464ZM865.284 435.216C864.58 435.216 863.964 435.112 863.436 434.904C862.924 434.68 862.492 434.376 862.14 433.992C861.804 433.592 861.548 433.12 861.372 432.576C861.196 432.032 861.108 431.424 861.108 430.752V422.472H863.124V430.008C863.124 430.536 863.164 431.016 863.244 431.448C863.34 431.864 863.492 432.224 863.7 432.528C863.908 432.832 864.196 433.064 864.564 433.224C864.932 433.368 865.388 433.44 865.932 433.44C866.524 433.44 867.02 433.352 867.42 433.176C867.82 432.984 868.148 432.736 868.404 432.432C868.66 432.112 868.844 431.736 868.956 431.304C869.084 430.872 869.148 430.408 869.148 429.912V422.472H871.164V435H869.148V433.032H869.124C868.948 433.448 868.716 433.8 868.428 434.088C868.156 434.36 867.852 434.584 867.516 434.76C867.196 434.92 866.836 435.032 866.436 435.096C866.052 435.176 865.668 435.216 865.284 435.216ZM874.801 435V418.2H876.841V435H874.801ZM880.496 435V418.2H882.536V435H880.496ZM896.301 435.288C895.581 435.288 894.893 435.2 894.237 435.024C893.597 434.864 893.045 434.616 892.581 434.28C892.117 433.928 891.741 433.504 891.453 433.008C891.181 432.496 891.037 431.912 891.021 431.256V431.112H893.061V431.256C893.061 431.656 893.149 432.008 893.325 432.312C893.517 432.6 893.765 432.848 894.069 433.056C894.373 433.248 894.725 433.392 895.125 433.488C895.541 433.584 895.965 433.632 896.397 433.632C896.781 433.632 897.149 433.608 897.501 433.56C897.853 433.496 898.157 433.384 898.413 433.224C898.685 433.064 898.893 432.864 899.037 432.624C899.197 432.368 899.277 432.04 899.277 431.64V431.496C899.277 431.08 899.165 430.76 898.941 430.536C898.717 430.296 898.421 430.104 898.053 429.96C897.685 429.8 897.269 429.672 896.805 429.576C896.341 429.464 895.861 429.36 895.365 429.264C894.885 429.152 894.413 429.024 893.949 428.88C893.485 428.736 893.069 428.536 892.701 428.28C892.333 428.008 892.037 427.672 891.813 427.272C891.589 426.872 891.477 426.368 891.477 425.76V425.616C891.477 424.976 891.613 424.44 891.885 424.008C892.173 423.56 892.541 423.2 892.989 422.928C893.453 422.656 893.973 422.464 894.549 422.352C895.125 422.24 895.709 422.184 896.301 422.184C896.941 422.184 897.549 422.256 898.125 422.4C898.717 422.544 899.237 422.768 899.685 423.072C900.133 423.36 900.493 423.736 900.765 424.2C901.037 424.664 901.173 425.224 901.173 425.88L901.197 426.048H899.181V425.904C899.181 425.552 899.101 425.248 898.941 424.992C898.781 424.736 898.565 424.52 898.293 424.344C898.037 424.168 897.733 424.04 897.381 423.96C897.045 423.88 896.677 423.84 896.277 423.84C895.925 423.84 895.589 423.864 895.269 423.912C894.949 423.96 894.661 424.056 894.405 424.2C894.149 424.328 893.949 424.504 893.805 424.728C893.661 424.952 893.589 425.232 893.589 425.568V425.712C893.589 426.08 893.701 426.384 893.925 426.624C894.149 426.864 894.437 427.056 894.789 427.2C895.157 427.344 895.573 427.472 896.037 427.584C896.517 427.68 896.997 427.784 897.477 427.896C897.957 428.008 898.429 428.136 898.893 428.28C899.373 428.424 899.789 428.624 900.141 428.88C900.509 429.136 900.805 429.464 901.029 429.864C901.253 430.248 901.365 430.744 901.365 431.352V431.496C901.365 432.2 901.229 432.8 900.957 433.296C900.685 433.776 900.317 434.168 899.853 434.472C899.389 434.76 898.853 434.968 898.245 435.096C897.637 435.224 896.989 435.288 896.301 435.288ZM909.543 435.288C908.503 435.288 907.607 435.136 906.855 434.832C906.103 434.512 905.471 434.064 904.959 433.488C904.447 432.912 904.071 432.224 903.831 431.424C903.591 430.608 903.471 429.712 903.471 428.736V428.592C903.471 427.664 903.591 426.808 903.831 426.024C904.071 425.224 904.431 424.544 904.911 423.984C905.407 423.424 906.023 422.984 906.759 422.664C907.495 422.344 908.351 422.184 909.327 422.184C910.159 422.184 910.919 422.328 911.607 422.616C912.311 422.888 912.903 423.28 913.383 423.792C913.879 424.288 914.263 424.888 914.535 425.592C914.807 426.296 914.943 427.08 914.943 427.944V429.24H904.887V427.704H912.879V427.584C912.879 427.008 912.791 426.488 912.615 426.024C912.439 425.56 912.191 425.176 911.871 424.872C911.551 424.552 911.175 424.304 910.743 424.128C910.311 423.952 909.839 423.864 909.327 423.864C908.655 423.864 908.079 423.976 907.599 424.2C907.119 424.424 906.727 424.736 906.423 425.136C906.135 425.52 905.919 425.976 905.775 426.504C905.647 427.032 905.583 427.6 905.583 428.208V428.952C905.583 429.56 905.655 430.152 905.799 430.728C905.943 431.288 906.167 431.784 906.471 432.216C906.791 432.632 907.199 432.968 907.695 433.224C908.207 433.48 908.831 433.608 909.567 433.608C910.079 433.608 910.535 433.544 910.935 433.416C911.335 433.288 911.671 433.12 911.943 432.912C912.215 432.704 912.423 432.472 912.567 432.216C912.711 431.944 912.783 431.672 912.783 431.4L912.807 431.256H914.727V431.4C914.711 431.96 914.575 432.48 914.319 432.96C914.079 433.424 913.735 433.832 913.287 434.184C912.839 434.52 912.295 434.792 911.655 435C911.031 435.192 910.327 435.288 909.543 435.288ZM922.199 435.288C921.479 435.288 920.791 435.2 920.135 435.024C919.495 434.864 918.943 434.616 918.479 434.28C918.015 433.928 917.639 433.504 917.351 433.008C917.079 432.496 916.935 431.912 916.919 431.256V431.112H918.959V431.256C918.959 431.656 919.047 432.008 919.223 432.312C919.415 432.6 919.663 432.848 919.967 433.056C920.271 433.248 920.623 433.392 921.023 433.488C921.439 433.584 921.863 433.632 922.295 433.632C922.679 433.632 923.047 433.608 923.399 433.56C923.751 433.496 924.055 433.384 924.311 433.224C924.583 433.064 924.791 432.864 924.935 432.624C925.095 432.368 925.175 432.04 925.175 431.64V431.496C925.175 431.08 925.063 430.76 924.839 430.536C924.615 430.296 924.319 430.104 923.951 429.96C923.583 429.8 923.167 429.672 922.703 429.576C922.239 429.464 921.759 429.36 921.263 429.264C920.783 429.152 920.311 429.024 919.847 428.88C919.383 428.736 918.967 428.536 918.599 428.28C918.231 428.008 917.935 427.672 917.711 427.272C917.487 426.872 917.375 426.368 917.375 425.76V425.616C917.375 424.976 917.511 424.44 917.783 424.008C918.071 423.56 918.439 423.2 918.887 422.928C919.351 422.656 919.871 422.464 920.447 422.352C921.023 422.24 921.607 422.184 922.199 422.184C922.839 422.184 923.447 422.256 924.023 422.4C924.615 422.544 925.135 422.768 925.583 423.072C926.031 423.36 926.391 423.736 926.663 424.2C926.935 424.664 927.071 425.224 927.071 425.88L927.095 426.048H925.079V425.904C925.079 425.552 924.999 425.248 924.839 424.992C924.679 424.736 924.463 424.52 924.191 424.344C923.935 424.168 923.631 424.04 923.279 423.96C922.943 423.88 922.575 423.84 922.175 423.84C921.823 423.84 921.487 423.864 921.167 423.912C920.847 423.96 920.559 424.056 920.303 424.2C920.047 424.328 919.847 424.504 919.703 424.728C919.559 424.952 919.487 425.232 919.487 425.568V425.712C919.487 426.08 919.599 426.384 919.823 426.624C920.047 426.864 920.335 427.056 920.687 427.2C921.055 427.344 921.471 427.472 921.935 427.584C922.415 427.68 922.895 427.784 923.375 427.896C923.855 428.008 924.327 428.136 924.791 428.28C925.271 428.424 925.687 428.624 926.039 428.88C926.407 429.136 926.703 429.464 926.927 429.864C927.151 430.248 927.263 430.744 927.263 431.352V431.496C927.263 432.2 927.127 432.8 926.855 433.296C926.583 433.776 926.215 434.168 925.751 434.472C925.287 434.76 924.751 434.968 924.143 435.096C923.535 435.224 922.887 435.288 922.199 435.288ZM934.246 435.288C933.526 435.288 932.838 435.2 932.182 435.024C931.542 434.864 930.99 434.616 930.526 434.28C930.062 433.928 929.686 433.504 929.398 433.008C929.126 432.496 928.982 431.912 928.966 431.256V431.112H931.006V431.256C931.006 431.656 931.094 432.008 931.27 432.312C931.462 432.6 931.71 432.848 932.014 433.056C932.318 433.248 932.67 433.392 933.07 433.488C933.486 433.584 933.91 433.632 934.342 433.632C934.726 433.632 935.094 433.608 935.446 433.56C935.798 433.496 936.102 433.384 936.358 433.224C936.63 433.064 936.838 432.864 936.982 432.624C937.142 432.368 937.222 432.04 937.222 431.64V431.496C937.222 431.08 937.11 430.76 936.886 430.536C936.662 430.296 936.366 430.104 935.998 429.96C935.63 429.8 935.214 429.672 934.75 429.576C934.286 429.464 933.806 429.36 933.31 429.264C932.83 429.152 932.358 429.024 931.894 428.88C931.43 428.736 931.014 428.536 930.646 428.28C930.278 428.008 929.982 427.672 929.758 427.272C929.534 426.872 929.422 426.368 929.422 425.76V425.616C929.422 424.976 929.558 424.44 929.83 424.008C930.118 423.56 930.486 423.2 930.934 422.928C931.398 422.656 931.918 422.464 932.494 422.352C933.07 422.24 933.654 422.184 934.246 422.184C934.886 422.184 935.494 422.256 936.07 422.4C936.662 422.544 937.182 422.768 937.63 423.072C938.078 423.36 938.438 423.736 938.71 424.2C938.982 424.664 939.118 425.224 939.118 425.88L939.142 426.048H937.126V425.904C937.126 425.552 937.046 425.248 936.886 424.992C936.726 424.736 936.51 424.52 936.238 424.344C935.982 424.168 935.678 424.04 935.326 423.96C934.99 423.88 934.622 423.84 934.222 423.84C933.87 423.84 933.534 423.864 933.214 423.912C932.894 423.96 932.606 424.056 932.35 424.2C932.094 424.328 931.894 424.504 931.75 424.728C931.606 424.952 931.534 425.232 931.534 425.568V425.712C931.534 426.08 931.646 426.384 931.87 426.624C932.094 426.864 932.382 427.056 932.734 427.2C933.102 427.344 933.518 427.472 933.982 427.584C934.462 427.68 934.942 427.784 935.422 427.896C935.902 428.008 936.374 428.136 936.838 428.28C937.318 428.424 937.734 428.624 938.086 428.88C938.454 429.136 938.75 429.464 938.974 429.864C939.198 430.248 939.31 430.744 939.31 431.352V431.496C939.31 432.2 939.174 432.8 938.902 433.296C938.63 433.776 938.262 434.168 937.798 434.472C937.334 434.76 936.798 434.968 936.19 435.096C935.582 435.224 934.934 435.288 934.246 435.288ZM943.216 420.648C942.816 420.648 942.496 420.536 942.256 420.312C942.016 420.088 941.896 419.784 941.896 419.4C941.896 419.208 941.928 419.04 941.992 418.896C942.056 418.736 942.144 418.608 942.256 418.512C942.368 418.4 942.504 418.32 942.664 418.272C942.84 418.208 943.024 418.176 943.216 418.176C943.408 418.176 943.584 418.208 943.744 418.272C943.904 418.32 944.04 418.4 944.152 418.512C944.264 418.608 944.352 418.736 944.416 418.896C944.48 419.04 944.512 419.208 944.512 419.4C944.512 419.784 944.392 420.088 944.152 420.312C943.912 420.536 943.6 420.648 943.216 420.648ZM942.184 435V422.472H944.224V435H942.184ZM953.11 435.288C952.15 435.288 951.294 435.136 950.542 434.832C949.806 434.512 949.182 434.072 948.67 433.512C948.174 432.936 947.798 432.248 947.542 431.448C947.286 430.648 947.158 429.768 947.158 428.808V428.664C947.158 427.72 947.286 426.848 947.542 426.048C947.798 425.248 948.174 424.568 948.67 424.008C949.182 423.432 949.806 422.984 950.542 422.664C951.278 422.344 952.126 422.184 953.086 422.184C954.03 422.184 954.87 422.344 955.606 422.664C956.342 422.984 956.958 423.432 957.454 424.008C957.966 424.568 958.35 425.248 958.606 426.048C958.862 426.848 958.99 427.72 958.99 428.664V428.808C958.99 429.736 958.87 430.6 958.63 431.4C958.406 432.2 958.054 432.888 957.574 433.464C957.094 434.04 956.478 434.488 955.726 434.808C954.99 435.128 954.118 435.288 953.11 435.288ZM953.182 433.56C953.806 433.56 954.342 433.448 954.79 433.224C955.254 432.984 955.638 432.656 955.942 432.24C956.246 431.824 956.478 431.32 956.638 430.728C956.798 430.136 956.878 429.488 956.878 428.784V428.64C956.878 428 956.798 427.392 956.638 426.816C956.478 426.224 956.238 425.712 955.918 425.28C955.614 424.848 955.222 424.512 954.742 424.272C954.278 424.032 953.726 423.912 953.086 423.912C952.414 423.912 951.838 424.032 951.358 424.272C950.878 424.512 950.478 424.848 950.158 425.28C949.854 425.696 949.63 426.2 949.486 426.792C949.358 427.368 949.294 427.984 949.294 428.64V428.784C949.294 429.456 949.366 430.088 949.51 430.68C949.67 431.272 949.91 431.784 950.23 432.216C950.55 432.632 950.95 432.96 951.43 433.2C951.926 433.44 952.51 433.56 953.182 433.56ZM961.894 435V422.472H963.934V424.344H963.958C964.15 423.992 964.374 423.688 964.63 423.432C964.902 423.176 965.206 422.96 965.542 422.784C965.878 422.608 966.246 422.48 966.646 422.4C967.046 422.304 967.486 422.256 967.966 422.256C968.686 422.256 969.302 422.352 969.814 422.544C970.342 422.736 970.774 423.032 971.11 423.432C971.446 423.816 971.694 424.304 971.854 424.896C972.03 425.472 972.118 426.152 972.118 426.936V435H970.102V427.56C970.102 427.032 970.046 426.552 969.934 426.12C969.838 425.688 969.678 425.32 969.454 425.016C969.246 424.696 968.966 424.456 968.614 424.296C968.262 424.12 967.83 424.032 967.318 424.032C966.71 424.032 966.19 424.128 965.758 424.32C965.342 424.512 964.998 424.784 964.726 425.136C964.454 425.472 964.254 425.88 964.126 426.36C963.998 426.824 963.934 427.336 963.934 427.896V435H961.894ZM982.38 420.648C981.98 420.648 981.66 420.536 981.42 420.312C981.18 420.088 981.06 419.784 981.06 419.4C981.06 419.208 981.092 419.04 981.156 418.896C981.22 418.736 981.308 418.608 981.42 418.512C981.532 418.4 981.668 418.32 981.828 418.272C982.004 418.208 982.188 418.176 982.38 418.176C982.572 418.176 982.748 418.208 982.908 418.272C983.068 418.32 983.204 418.4 983.316 418.512C983.428 418.608 983.516 418.736 983.58 418.896C983.644 419.04 983.676 419.208 983.676 419.4C983.676 419.784 983.556 420.088 983.316 420.312C983.076 420.536 982.764 420.648 982.38 420.648ZM981.348 435V422.472H983.388V435H981.348ZM987.066 435V422.472H989.106V424.344H989.13C989.322 423.992 989.546 423.688 989.802 423.432C990.074 423.176 990.378 422.96 990.714 422.784C991.05 422.608 991.418 422.48 991.818 422.4C992.218 422.304 992.658 422.256 993.138 422.256C993.858 422.256 994.474 422.352 994.986 422.544C995.514 422.736 995.946 423.032 996.282 423.432C996.618 423.816 996.866 424.304 997.026 424.896C997.202 425.472 997.29 426.152 997.29 426.936V435H995.274V427.56C995.274 427.032 995.218 426.552 995.106 426.12C995.01 425.688 994.85 425.32 994.626 425.016C994.418 424.696 994.138 424.456 993.786 424.296C993.434 424.12 993.002 424.032 992.49 424.032C991.882 424.032 991.362 424.128 990.93 424.32C990.514 424.512 990.17 424.784 989.898 425.136C989.626 425.472 989.426 425.88 989.298 426.36C989.17 426.824 989.106 427.336 989.106 427.896V435H987.066ZM1004.38 435.192C1003.85 435.192 1003.39 435.144 1003.01 435.048C1002.63 434.952 1002.31 434.808 1002.05 434.616C1001.81 434.408 1001.63 434.144 1001.5 433.824C1001.39 433.488 1001.33 433.096 1001.33 432.648V424.296H999.05V422.472H1001.33V419.592H1003.35V422.472H1006.66V424.296H1003.35V431.928C1003.35 432.232 1003.38 432.48 1003.44 432.672C1003.51 432.864 1003.59 433.016 1003.71 433.128C1003.83 433.224 1003.99 433.288 1004.16 433.32C1004.35 433.352 1004.58 433.368 1004.83 433.368C1005.06 433.368 1005.35 433.352 1005.72 433.32C1006.09 433.288 1006.4 433.24 1006.66 433.176V434.928C1006.34 435.04 1005.95 435.112 1005.51 435.144C1005.07 435.176 1004.7 435.192 1004.38 435.192ZM1014.4 435.288C1013.36 435.288 1012.47 435.136 1011.71 434.832C1010.96 434.512 1010.33 434.064 1009.82 433.488C1009.31 432.912 1008.93 432.224 1008.69 431.424C1008.45 430.608 1008.33 429.712 1008.33 428.736V428.592C1008.33 427.664 1008.45 426.808 1008.69 426.024C1008.93 425.224 1009.29 424.544 1009.77 423.984C1010.27 423.424 1010.88 422.984 1011.62 422.664C1012.35 422.344 1013.21 422.184 1014.19 422.184C1015.02 422.184 1015.78 422.328 1016.47 422.616C1017.17 422.888 1017.76 423.28 1018.24 423.792C1018.74 424.288 1019.12 424.888 1019.39 425.592C1019.67 426.296 1019.8 427.08 1019.8 427.944V429.24H1009.75V427.704H1017.74V427.584C1017.74 427.008 1017.65 426.488 1017.47 426.024C1017.3 425.56 1017.05 425.176 1016.73 424.872C1016.41 424.552 1016.03 424.304 1015.6 424.128C1015.17 423.952 1014.7 423.864 1014.19 423.864C1013.51 423.864 1012.94 423.976 1012.46 424.2C1011.98 424.424 1011.59 424.736 1011.28 425.136C1010.99 425.52 1010.78 425.976 1010.63 426.504C1010.51 427.032 1010.44 427.6 1010.44 428.208V428.952C1010.44 429.56 1010.51 430.152 1010.66 430.728C1010.8 431.288 1011.03 431.784 1011.33 432.216C1011.65 432.632 1012.06 432.968 1012.55 433.224C1013.07 433.48 1013.69 433.608 1014.43 433.608C1014.94 433.608 1015.39 433.544 1015.79 433.416C1016.19 433.288 1016.53 433.12 1016.8 432.912C1017.07 432.704 1017.28 432.472 1017.43 432.216C1017.57 431.944 1017.64 431.672 1017.64 431.4L1017.67 431.256H1019.59V431.4C1019.57 431.96 1019.43 432.48 1019.18 432.96C1018.94 433.424 1018.59 433.832 1018.15 434.184C1017.7 434.52 1017.15 434.792 1016.51 435C1015.89 435.192 1015.19 435.288 1014.4 435.288ZM1022.71 435V422.472H1024.75V424.896H1024.78C1024.95 424.432 1025.19 424.04 1025.47 423.72C1025.76 423.4 1026.09 423.136 1026.46 422.928C1026.84 422.72 1027.26 422.576 1027.71 422.496C1028.15 422.4 1028.62 422.352 1029.1 422.352C1029.16 422.352 1029.22 422.352 1029.27 422.352C1029.31 422.352 1029.36 422.352 1029.41 422.352V424.224H1029.15C1028.38 424.224 1027.71 424.312 1027.15 424.488C1026.59 424.664 1026.14 424.928 1025.79 425.28C1025.43 425.632 1025.17 426.072 1024.99 426.6C1024.83 427.128 1024.75 427.76 1024.75 428.496V435H1022.71ZM1037.86 435H1035.48L1030.97 422.472H1033.2L1036.97 433.584H1036.49L1040.19 422.472H1042.37L1037.86 435ZM1047.4 435.288C1046.86 435.288 1046.34 435.216 1045.84 435.072C1045.35 434.928 1044.91 434.712 1044.52 434.424C1044.15 434.12 1043.86 433.744 1043.63 433.296C1043.41 432.832 1043.3 432.296 1043.3 431.688V431.544C1043.3 430.872 1043.42 430.328 1043.66 429.912C1043.9 429.48 1044.21 429.144 1044.59 428.904C1044.99 428.648 1045.44 428.464 1045.94 428.352C1046.45 428.24 1046.96 428.152 1047.47 428.088C1048 428.024 1048.51 427.968 1049.01 427.92C1049.52 427.856 1049.98 427.76 1050.38 427.632C1050.78 427.504 1051.1 427.32 1051.34 427.08C1051.58 426.824 1051.7 426.48 1051.7 426.048V425.904C1051.7 425.552 1051.63 425.248 1051.51 424.992C1051.38 424.736 1051.19 424.528 1050.95 424.368C1050.71 424.192 1050.41 424.072 1050.04 424.008C1049.69 423.928 1049.29 423.888 1048.84 423.888C1048.39 423.888 1047.98 423.928 1047.59 424.008C1047.23 424.072 1046.91 424.2 1046.63 424.392C1046.36 424.584 1046.15 424.84 1045.99 425.16C1045.84 425.464 1045.77 425.872 1045.77 426.384V426.528H1043.8V426.384C1043.8 425.632 1043.94 424.992 1044.21 424.464C1044.5 423.936 1044.87 423.504 1045.34 423.168C1045.82 422.816 1046.37 422.568 1046.99 422.424C1047.62 422.264 1048.28 422.184 1048.99 422.184C1049.69 422.184 1050.33 422.264 1050.91 422.424C1051.48 422.568 1051.98 422.816 1052.39 423.168C1052.81 423.504 1053.13 423.944 1053.35 424.488C1053.58 425.032 1053.69 425.688 1053.69 426.456L1053.67 431.88C1053.67 432.184 1053.67 432.448 1053.69 432.672C1053.72 432.896 1053.76 433.08 1053.81 433.224C1053.87 433.368 1053.95 433.48 1054.05 433.56C1054.16 433.624 1054.29 433.656 1054.43 433.656C1054.51 433.656 1054.59 433.648 1054.65 433.632C1054.73 433.616 1054.83 433.592 1054.94 433.56V435.024C1054.86 435.04 1054.77 435.048 1054.67 435.048C1054.58 435.064 1054.48 435.072 1054.39 435.072C1054.31 435.088 1054.21 435.096 1054.1 435.096C1054 435.112 1053.91 435.12 1053.81 435.12C1053.52 435.12 1053.26 435.08 1053.02 435C1052.79 434.92 1052.59 434.8 1052.42 434.64C1052.24 434.48 1052.11 434.28 1052.01 434.04C1051.91 433.784 1051.86 433.472 1051.84 433.104L1051.82 432.864H1051.79C1051.57 433.264 1051.31 433.616 1051 433.92C1050.7 434.224 1050.35 434.48 1049.97 434.688C1049.59 434.88 1049.18 435.024 1048.75 435.12C1048.31 435.232 1047.87 435.288 1047.4 435.288ZM1047.98 433.608C1048.55 433.608 1049.07 433.52 1049.51 433.344C1049.96 433.168 1050.35 432.92 1050.67 432.6C1051 432.264 1051.26 431.856 1051.43 431.376C1051.61 430.896 1051.7 430.352 1051.7 429.744V427.728H1052.18C1052.07 428.064 1051.88 428.336 1051.63 428.544C1051.37 428.736 1051.07 428.896 1050.74 429.024C1050.4 429.136 1050.03 429.216 1049.63 429.264C1049.25 429.312 1048.86 429.36 1048.46 429.408C1048.06 429.44 1047.67 429.488 1047.31 429.552C1046.95 429.616 1046.63 429.72 1046.35 429.864C1046.06 430.008 1045.83 430.208 1045.65 430.464C1045.49 430.704 1045.41 431.032 1045.41 431.448V431.544C1045.41 431.864 1045.47 432.152 1045.58 432.408C1045.71 432.664 1045.88 432.888 1046.11 433.08C1046.33 433.256 1046.6 433.392 1046.92 433.488C1047.24 433.568 1047.59 433.608 1047.98 433.608ZM1057.52 435V418.2H1059.56V435H1057.52ZM1067.56 435.288C1066.84 435.288 1066.15 435.2 1065.49 435.024C1064.85 434.864 1064.3 434.616 1063.84 434.28C1063.37 433.928 1063 433.504 1062.71 433.008C1062.44 432.496 1062.29 431.912 1062.28 431.256V431.112H1064.32V431.256C1064.32 431.656 1064.41 432.008 1064.58 432.312C1064.77 432.6 1065.02 432.848 1065.33 433.056C1065.63 433.248 1065.98 433.392 1066.38 433.488C1066.8 433.584 1067.22 433.632 1067.65 433.632C1068.04 433.632 1068.41 433.608 1068.76 433.56C1069.11 433.496 1069.41 433.384 1069.67 433.224C1069.94 433.064 1070.15 432.864 1070.29 432.624C1070.45 432.368 1070.53 432.04 1070.53 431.64V431.496C1070.53 431.08 1070.42 430.76 1070.2 430.536C1069.97 430.296 1069.68 430.104 1069.31 429.96C1068.94 429.8 1068.53 429.672 1068.06 429.576C1067.6 429.464 1067.12 429.36 1066.62 429.264C1066.14 429.152 1065.67 429.024 1065.21 428.88C1064.74 428.736 1064.33 428.536 1063.96 428.28C1063.59 428.008 1063.29 427.672 1063.07 427.272C1062.85 426.872 1062.73 426.368 1062.73 425.76V425.616C1062.73 424.976 1062.87 424.44 1063.14 424.008C1063.43 423.56 1063.8 423.2 1064.25 422.928C1064.71 422.656 1065.23 422.464 1065.81 422.352C1066.38 422.24 1066.97 422.184 1067.56 422.184C1068.2 422.184 1068.81 422.256 1069.38 422.4C1069.97 422.544 1070.49 422.768 1070.94 423.072C1071.39 423.36 1071.75 423.736 1072.02 424.2C1072.29 424.664 1072.43 425.224 1072.43 425.88L1072.45 426.048H1070.44V425.904C1070.44 425.552 1070.36 425.248 1070.2 424.992C1070.04 424.736 1069.82 424.52 1069.55 424.344C1069.29 424.168 1068.99 424.04 1068.64 423.96C1068.3 423.88 1067.93 423.84 1067.53 423.84C1067.18 423.84 1066.85 423.864 1066.53 423.912C1066.21 423.96 1065.92 424.056 1065.66 424.2C1065.41 424.328 1065.21 424.504 1065.06 424.728C1064.92 424.952 1064.85 425.232 1064.85 425.568V425.712C1064.85 426.08 1064.96 426.384 1065.18 426.624C1065.41 426.864 1065.69 427.056 1066.05 427.2C1066.41 427.344 1066.83 427.472 1067.29 427.584C1067.77 427.68 1068.25 427.784 1068.73 427.896C1069.21 428.008 1069.69 428.136 1070.15 428.28C1070.63 428.424 1071.05 428.624 1071.4 428.88C1071.77 429.136 1072.06 429.464 1072.29 429.864C1072.51 430.248 1072.62 430.744 1072.62 431.352V431.496C1072.62 432.2 1072.49 432.8 1072.21 433.296C1071.94 433.776 1071.57 434.168 1071.11 434.472C1070.65 434.76 1070.11 434.968 1069.5 435.096C1068.89 435.224 1068.25 435.288 1067.56 435.288Z" fill="black"></path><path d="M1093 426L1487 426C1491.42 426 1495 422.418 1495 418L1495 336" stroke="#9292A9" stroke-width="3" stroke-dasharray="6 6"></path><path d="M827 426L434 426C429.582 426 426 422.418 426 418L426 336" stroke="#9292A9" stroke-width="3" stroke-dasharray="6 6"></path></svg> 