<?xml version="1.0" encoding="UTF-8"?> <svg xmlns="http://www.w3.org/2000/svg" width="1920" height="457" viewBox="0 0 1920 457" fill="none"><rect width="1920" height="457" fill="white"></rect><path opacity="0.9" d="M459.74 347.203C445.831 347.203 426.766 347.203 417.504 340.375C407.797 333.231 402.068 323.59 399.522 309.998C393.792 279.336 391.023 244.723 391.023 204.167C391.023 163.611 393.792 128.998 399.522 98.336C402.068 84.7437 407.765 75.1026 417.504 67.9587C426.798 61.1309 445.831 61.1309 459.74 61.1309H1460.44C1474.35 61.1309 1493.42 61.1309 1502.68 67.9587C1512.39 75.1026 1518.12 84.7437 1520.66 98.336C1526.39 128.998 1529.19 163.611 1529.19 204.167C1529.19 244.723 1526.42 279.336 1520.66 309.998C1518.12 323.59 1512.42 333.231 1502.68 340.375C1493.39 347.203 1474.35 347.203 1460.44 347.203H459.74Z" stroke="#E9E9EF" stroke-width="4.69863" stroke-miterlimit="10"></path><path d="M657.419 10.5114C655.012 8.00957 651.718 6.58447 648.266 6.58447H504.458C501.006 6.58447 497.681 8.00957 495.306 10.5114L492.107 13.8683C490.967 15.0401 490.365 16.6235 490.365 18.2386V43.6688H662.391V18.207C662.391 16.5918 661.757 15.0084 660.649 13.8366L657.45 10.4797L657.419 10.5114Z" stroke="#E9E9EF" stroke-width="4.7002" stroke-miterlimit="10"></path><path d="M1245.92 9.30211V8.41538C1245.92 7.71867 1245.8 7.11696 1245.48 6.57859C1243.83 3.66505 1237.88 3 1229.36 3H691.811C683.292 3 677.338 3.66505 675.692 6.57859C675.388 6.89477 674.781 9.9416 674.781 13.5633" stroke="#E9E9EF" stroke-width="4.7002" stroke-miterlimit="10"></path><path d="M1245.92 9.33398V30.3621C1245.92 30.3621 1234.29 30.3621 1232.46 30.3621H688.739H674.75V12.797" stroke="#E9E9EF" stroke-width="4.7002" stroke-miterlimit="10"></path><path d="M688.89 43.2201V30.3861H1232.33L1232.33 46.0687" stroke="#E9E9EF" stroke-width="4.7002" stroke-miterlimit="10"></path><path d="M1424.96 6.58447H1281.15C1277.7 6.58447 1274.38 8.00957 1272 10.5114L1268.8 13.8683C1267.66 15.0401 1267.06 16.6235 1267.06 18.2386V43.6687H1439.05V18.207C1439.05 12.1403 1430.35 6.58447 1424.96 6.58447Z" stroke="#E9E9EF" stroke-width="4.7002" stroke-miterlimit="10"></path><mask id="path-7-inside-1_2793_1254" fill="white"><path d="M1426.48 24.0012C1425.56 24.0012 1424.8 24.6348 1424.8 25.4585V42.2169C1424.8 43.0089 1425.56 43.6742 1426.48 43.6742C1427.4 43.6742 1428.16 43.0406 1428.16 42.2169V25.4585C1428.16 24.6665 1427.4 24.0012 1426.48 24.0012Z"></path></mask><path d="M1426.48 24.0012C1425.56 24.0012 1424.8 24.6348 1424.8 25.4585V42.2169C1424.8 43.0089 1425.56 43.6742 1426.48 43.6742C1427.4 43.6742 1428.16 43.0406 1428.16 42.2169V25.4585C1428.16 24.6665 1427.4 24.0012 1426.48 24.0012Z" fill="#A5A5AD"></path><path d="M1426.48 28.7014C1427.08 28.7014 1427.76 28.4942 1428.35 27.9896C1428.96 27.4661 1429.5 26.5766 1429.5 25.4585H1420.1C1420.1 21.3853 1423.67 19.301 1426.48 19.301V28.7014ZM1429.5 25.4585V42.2169H1420.1V25.4585H1429.5ZM1429.5 42.2169C1429.5 41.0496 1428.94 40.1813 1428.38 39.6967C1427.82 39.2126 1427.14 38.974 1426.48 38.974V48.3744C1423.6 48.3744 1420.1 46.1974 1420.1 42.2169H1429.5ZM1426.48 38.974C1425.87 38.974 1425.19 39.1811 1424.6 39.6857C1423.99 40.2093 1423.46 41.0988 1423.46 42.2169H1432.86C1432.86 46.29 1429.29 48.3744 1426.48 48.3744V38.974ZM1423.46 42.2169V25.4585H1432.86V42.2169H1423.46ZM1423.46 25.4585C1423.46 26.6258 1424.02 27.4941 1424.58 27.9787C1425.13 28.4628 1425.81 28.7014 1426.48 28.7014V19.301C1429.36 19.301 1432.86 21.478 1432.86 25.4585H1423.46Z" fill="#E9E9EF" mask="url(#path-7-inside-1_2793_1254)"></path><mask id="path-9-inside-2_2793_1254" fill="white"><path d="M1414.27 24.0012C1413.36 24.0012 1412.6 24.6348 1412.6 25.4585V42.2169C1412.6 43.0089 1413.36 43.6742 1414.27 43.6742C1415.19 43.6742 1415.95 43.0406 1415.95 42.2169V25.4585C1415.95 24.6665 1415.19 24.0012 1414.27 24.0012Z"></path></mask><path d="M1414.27 24.0012C1413.36 24.0012 1412.6 24.6348 1412.6 25.4585V42.2169C1412.6 43.0089 1413.36 43.6742 1414.27 43.6742C1415.19 43.6742 1415.95 43.0406 1415.95 42.2169V25.4585C1415.95 24.6665 1415.19 24.0012 1414.27 24.0012Z" fill="#A5A5AD"></path><path d="M1414.27 28.7014C1414.88 28.7014 1415.56 28.4942 1416.15 27.9896C1416.76 27.4661 1417.3 26.5766 1417.3 25.4585H1407.89C1407.89 21.3853 1411.47 19.301 1414.27 19.301V28.7014ZM1417.3 25.4585V42.2169H1407.89V25.4585H1417.3ZM1417.3 42.2169C1417.3 41.0496 1416.73 40.1813 1416.18 39.6967C1415.62 39.2126 1414.94 38.974 1414.27 38.974V48.3744C1411.39 48.3744 1407.89 46.1974 1407.89 42.2169H1417.3ZM1414.27 38.974C1413.67 38.974 1412.99 39.1811 1412.4 39.6857C1411.79 40.2093 1411.25 41.0988 1411.25 42.2169H1420.65C1420.65 46.29 1417.08 48.3744 1414.27 48.3744V38.974ZM1411.25 42.2169V25.4585H1420.65V42.2169H1411.25ZM1411.25 25.4585C1411.25 26.6258 1411.82 27.4941 1412.37 27.9787C1412.93 28.4628 1413.61 28.7014 1414.27 28.7014V19.301C1417.15 19.301 1420.65 21.478 1420.65 25.4585H1411.25Z" fill="#E9E9EF" mask="url(#path-9-inside-2_2793_1254)"></path><mask id="path-11-inside-3_2793_1254" fill="white"><path d="M1402.04 24.0012C1401.12 24.0012 1400.36 24.6348 1400.36 25.4585V42.2169C1400.36 43.0089 1401.12 43.6742 1402.04 43.6742C1402.96 43.6742 1403.72 43.0406 1403.72 42.2169V25.4585C1403.72 24.6665 1402.96 24.0012 1402.04 24.0012Z"></path></mask><path d="M1402.04 24.0012C1401.12 24.0012 1400.36 24.6348 1400.36 25.4585V42.2169C1400.36 43.0089 1401.12 43.6742 1402.04 43.6742C1402.96 43.6742 1403.72 43.0406 1403.72 42.2169V25.4585C1403.72 24.6665 1402.96 24.0012 1402.04 24.0012Z" fill="#A5A5AD"></path><path d="M1402.04 28.7014C1402.65 28.7014 1403.33 28.4942 1403.91 27.9896C1404.53 27.4661 1405.06 26.5766 1405.06 25.4585H1395.66C1395.66 21.3853 1399.23 19.301 1402.04 19.301V28.7014ZM1405.06 25.4585V42.2169H1395.66V25.4585H1405.06ZM1405.06 42.2169C1405.06 41.0496 1404.5 40.1813 1403.94 39.6967C1403.38 39.2126 1402.71 38.974 1402.04 38.974V48.3744C1399.16 48.3744 1395.66 46.1975 1395.66 42.2169H1405.06ZM1402.04 38.974C1401.43 38.974 1400.75 39.1811 1400.16 39.6858C1399.55 40.2093 1399.02 41.0988 1399.02 42.2169H1408.42C1408.42 46.29 1404.85 48.3744 1402.04 48.3744V38.974ZM1399.02 42.2169V25.4585H1408.42V42.2169H1399.02ZM1399.02 25.4585C1399.02 26.6258 1399.58 27.4941 1400.14 27.9787C1400.69 28.4628 1401.37 28.7014 1402.04 28.7014V19.301C1404.92 19.301 1408.42 21.478 1408.42 25.4585H1399.02Z" fill="#E9E9EF" mask="url(#path-11-inside-3_2793_1254)"></path><mask id="path-13-inside-4_2793_1254" fill="white"><path d="M1389.78 24.0012C1388.86 24.0012 1388.1 24.6348 1388.1 25.4585V42.2169C1388.1 43.0089 1388.86 43.6742 1389.78 43.6742C1390.7 43.6742 1391.46 43.0406 1391.46 42.2169V25.4585C1391.46 24.6665 1390.7 24.0012 1389.78 24.0012Z"></path></mask><path d="M1389.78 24.0012C1388.86 24.0012 1388.1 24.6348 1388.1 25.4585V42.2169C1388.1 43.0089 1388.86 43.6742 1389.78 43.6742C1390.7 43.6742 1391.46 43.0406 1391.46 42.2169V25.4585C1391.46 24.6665 1390.7 24.0012 1389.78 24.0012Z" fill="#A5A5AD"></path><path d="M1389.78 28.7014C1390.39 28.7014 1391.07 28.4942 1391.66 27.9896C1392.27 27.4661 1392.8 26.5766 1392.8 25.4585H1383.4C1383.4 21.3853 1386.97 19.301 1389.78 19.301V28.7014ZM1392.8 25.4585V42.2169H1383.4V25.4585H1392.8ZM1392.8 42.2169C1392.8 41.0496 1392.24 40.1813 1391.68 39.6967C1391.13 39.2126 1390.45 38.974 1389.78 38.974V48.3744C1386.9 48.3744 1383.4 46.1974 1383.4 42.2169H1392.8ZM1389.78 38.974C1389.18 38.974 1388.5 39.1811 1387.91 39.6857C1387.3 40.2093 1386.76 41.0988 1386.76 42.2169H1396.16C1396.16 46.29 1392.59 48.3744 1389.78 48.3744V38.974ZM1386.76 42.2169V25.4585H1396.16V42.2169H1386.76ZM1386.76 25.4585C1386.76 26.6258 1387.32 27.4941 1387.88 27.9787C1388.44 28.4628 1389.12 28.7014 1389.78 28.7014V19.301C1392.66 19.301 1396.16 21.478 1396.16 25.4585H1386.76Z" fill="#E9E9EF" mask="url(#path-13-inside-4_2793_1254)"></path><mask id="path-15-inside-5_2793_1254" fill="white"><path d="M1377.55 24.0012C1376.63 24.0012 1375.87 24.6348 1375.87 25.4585V42.2169C1375.87 43.0089 1376.63 43.6742 1377.55 43.6742C1378.47 43.6742 1379.23 43.0406 1379.23 42.2169V25.4585C1379.23 24.6665 1378.47 24.0012 1377.55 24.0012Z"></path></mask><path d="M1377.55 24.0012C1376.63 24.0012 1375.87 24.6348 1375.87 25.4585V42.2169C1375.87 43.0089 1376.63 43.6742 1377.55 43.6742C1378.47 43.6742 1379.23 43.0406 1379.23 42.2169V25.4585C1379.23 24.6665 1378.47 24.0012 1377.55 24.0012Z" fill="#A5A5AD"></path><path d="M1377.55 28.7014C1378.15 28.7014 1378.83 28.4942 1379.42 27.9896C1380.03 27.4661 1380.57 26.5766 1380.57 25.4585H1371.17C1371.17 21.3853 1374.74 19.301 1377.55 19.301V28.7014ZM1380.57 25.4585V42.2169H1371.17V25.4585H1380.57ZM1380.57 42.2169C1380.57 41.0496 1380.01 40.1813 1379.45 39.6967C1378.89 39.2126 1378.21 38.974 1377.55 38.974V48.3744C1374.67 48.3744 1371.17 46.1975 1371.17 42.2169H1380.57ZM1377.55 38.974C1376.94 38.974 1376.26 39.1811 1375.67 39.6858C1375.06 40.2093 1374.53 41.0988 1374.53 42.2169H1383.93C1383.93 46.29 1380.36 48.3744 1377.55 48.3744V38.974ZM1374.53 42.2169V25.4585H1383.93V42.2169H1374.53ZM1374.53 25.4585C1374.53 26.6258 1375.09 27.4941 1375.65 27.9787C1376.2 28.4628 1376.88 28.7014 1377.55 28.7014V19.301C1380.43 19.301 1383.93 21.478 1383.93 25.4585H1374.53Z" fill="#E9E9EF" mask="url(#path-15-inside-5_2793_1254)"></path><mask id="path-17-inside-6_2793_1254" fill="white"><path d="M1365.29 24.0012C1364.37 24.0012 1363.61 24.6348 1363.61 25.4585V42.2169C1363.61 43.0089 1364.37 43.6742 1365.29 43.6742C1366.21 43.6742 1366.97 43.0406 1366.97 42.2169V25.4585C1366.97 24.6665 1366.21 24.0012 1365.29 24.0012Z"></path></mask><path d="M1365.29 24.0012C1364.37 24.0012 1363.61 24.6348 1363.61 25.4585V42.2169C1363.61 43.0089 1364.37 43.6742 1365.29 43.6742C1366.21 43.6742 1366.97 43.0406 1366.97 42.2169V25.4585C1366.97 24.6665 1366.21 24.0012 1365.29 24.0012Z" fill="#A5A5AD"></path><path d="M1365.29 28.7014C1365.9 28.7014 1366.58 28.4942 1367.16 27.9896C1367.78 27.4661 1368.31 26.5766 1368.31 25.4585H1358.91C1358.91 21.3853 1362.48 19.301 1365.29 19.301V28.7014ZM1368.31 25.4585V42.2169H1358.91V25.4585H1368.31ZM1368.31 42.2169C1368.31 41.0496 1367.75 40.1813 1367.19 39.6967C1366.63 39.2126 1365.96 38.974 1365.29 38.974V48.3744C1362.41 48.3744 1358.91 46.1975 1358.91 42.2169H1368.31ZM1365.29 38.974C1364.68 38.974 1364 39.1811 1363.41 39.6858C1362.8 40.2093 1362.27 41.0988 1362.27 42.2169H1371.67C1371.67 46.29 1368.1 48.3744 1365.29 48.3744V38.974ZM1362.27 42.2169V25.4585H1371.67V42.2169H1362.27ZM1362.27 25.4585C1362.27 26.6258 1362.83 27.4941 1363.39 27.9787C1363.94 28.4628 1364.62 28.7014 1365.29 28.7014V19.301C1368.17 19.301 1371.67 21.478 1371.67 25.4585H1362.27Z" fill="#E9E9EF" mask="url(#path-17-inside-6_2793_1254)"></path><mask id="path-19-inside-7_2793_1254" fill="white"><path d="M1353.06 24.0012C1352.14 24.0012 1351.38 24.6348 1351.38 25.4585V42.2169C1351.38 43.0089 1352.14 43.6742 1353.06 43.6742C1353.97 43.6742 1354.73 43.0406 1354.73 42.2169V25.4585C1354.73 24.6665 1353.97 24.0012 1353.06 24.0012Z"></path></mask><path d="M1353.06 24.0012C1352.14 24.0012 1351.38 24.6348 1351.38 25.4585V42.2169C1351.38 43.0089 1352.14 43.6742 1353.06 43.6742C1353.97 43.6742 1354.73 43.0406 1354.73 42.2169V25.4585C1354.73 24.6665 1353.97 24.0012 1353.06 24.0012Z" fill="#A5A5AD"></path><path d="M1353.06 28.7014C1353.66 28.7014 1354.34 28.4942 1354.93 27.9896C1355.54 27.4661 1356.08 26.5766 1356.08 25.4585H1346.68C1346.68 21.3853 1350.25 19.301 1353.06 19.301V28.7014ZM1356.08 25.4585V42.2169H1346.68V25.4585H1356.08ZM1356.08 42.2169C1356.08 41.0496 1355.51 40.1813 1354.96 39.6967C1354.4 39.2126 1353.72 38.974 1353.06 38.974V48.3744C1350.18 48.3744 1346.68 46.1974 1346.68 42.2169H1356.08ZM1353.06 38.974C1352.45 38.974 1351.77 39.1811 1351.18 39.6857C1350.57 40.2092 1350.03 41.0988 1350.03 42.2169H1359.43C1359.43 46.2901 1355.86 48.3744 1353.06 48.3744V38.974ZM1350.03 42.2169V25.4585H1359.43V42.2169H1350.03ZM1350.03 25.4585C1350.03 26.6258 1350.6 27.4941 1351.15 27.9787C1351.71 28.4628 1352.39 28.7014 1353.06 28.7014V19.301C1355.93 19.301 1359.43 21.4779 1359.43 25.4585H1350.03Z" fill="#E9E9EF" mask="url(#path-19-inside-7_2793_1254)"></path><mask id="path-21-inside-8_2793_1254" fill="white"><path d="M1340.84 24.0012C1339.92 24.0012 1339.16 24.6348 1339.16 25.4585V42.2169C1339.16 43.0089 1339.92 43.6742 1340.84 43.6742C1341.76 43.6742 1342.52 43.0406 1342.52 42.2169V25.4585C1342.52 24.6665 1341.76 24.0012 1340.84 24.0012Z"></path></mask><path d="M1340.84 24.0012C1339.92 24.0012 1339.16 24.6348 1339.16 25.4585V42.2169C1339.16 43.0089 1339.92 43.6742 1340.84 43.6742C1341.76 43.6742 1342.52 43.0406 1342.52 42.2169V25.4585C1342.52 24.6665 1341.76 24.0012 1340.84 24.0012Z" fill="#A5A5AD"></path><path d="M1340.84 28.7014C1341.44 28.7014 1342.12 28.4942 1342.71 27.9896C1343.32 27.4661 1343.86 26.5766 1343.86 25.4585H1334.46C1334.46 21.3853 1338.03 19.301 1340.84 19.301V28.7014ZM1343.86 25.4585V42.2169H1334.46V25.4585H1343.86ZM1343.86 42.2169C1343.86 41.0496 1343.29 40.1813 1342.74 39.6967C1342.18 39.2126 1341.5 38.974 1340.84 38.974V48.3744C1337.96 48.3744 1334.46 46.1975 1334.46 42.2169H1343.86ZM1340.84 38.974C1340.23 38.974 1339.55 39.1811 1338.96 39.6858C1338.35 40.2093 1337.82 41.0988 1337.82 42.2169H1347.22C1347.22 46.29 1343.65 48.3744 1340.84 48.3744V38.974ZM1337.82 42.2169V25.4585H1347.22V42.2169H1337.82ZM1337.82 25.4585C1337.82 26.6258 1338.38 27.4941 1338.94 27.9787C1339.49 28.4628 1340.17 28.7014 1340.84 28.7014V19.301C1343.72 19.301 1347.22 21.478 1347.22 25.4585H1337.82Z" fill="#E9E9EF" mask="url(#path-21-inside-8_2793_1254)"></path><mask id="path-23-inside-9_2793_1254" fill="white"><path d="M1328.57 24.0012C1327.65 24.0012 1326.89 24.6348 1326.89 25.4585V42.2169C1326.89 43.0089 1327.65 43.6742 1328.57 43.6742C1329.49 43.6742 1330.25 43.0406 1330.25 42.2169V25.4585C1330.25 24.6665 1329.49 24.0012 1328.57 24.0012Z"></path></mask><path d="M1328.57 24.0012C1327.65 24.0012 1326.89 24.6348 1326.89 25.4585V42.2169C1326.89 43.0089 1327.65 43.6742 1328.57 43.6742C1329.49 43.6742 1330.25 43.0406 1330.25 42.2169V25.4585C1330.25 24.6665 1329.49 24.0012 1328.57 24.0012Z" fill="#A5A5AD"></path><path d="M1328.57 28.7014C1329.18 28.7014 1329.86 28.4942 1330.45 27.9896C1331.06 27.4661 1331.59 26.5766 1331.59 25.4585H1322.19C1322.19 21.3853 1325.76 19.301 1328.57 19.301V28.7014ZM1331.59 25.4585V42.2169H1322.19V25.4585H1331.59ZM1331.59 42.2169C1331.59 41.0496 1331.03 40.1813 1330.47 39.6967C1329.92 39.2126 1329.24 38.974 1328.57 38.974V48.3744C1325.69 48.3744 1322.19 46.1974 1322.19 42.2169H1331.59ZM1328.57 38.974C1327.96 38.974 1327.28 39.1811 1326.7 39.6857C1326.09 40.2093 1325.55 41.0988 1325.55 42.2169H1334.95C1334.95 46.29 1331.38 48.3744 1328.57 48.3744V38.974ZM1325.55 42.2169V25.4585H1334.95V42.2169H1325.55ZM1325.55 25.4585C1325.55 26.6258 1326.11 27.4941 1326.67 27.9787C1327.23 28.4628 1327.9 28.7014 1328.57 28.7014V19.301C1331.45 19.301 1334.95 21.478 1334.95 25.4585H1325.55Z" fill="#E9E9EF" mask="url(#path-23-inside-9_2793_1254)"></path><mask id="path-25-inside-10_2793_1254" fill="white"><path d="M1316.32 24.0012C1315.4 24.0012 1314.64 24.6348 1314.64 25.4585V42.2169C1314.64 43.0089 1315.4 43.6742 1316.32 43.6742C1317.24 43.6742 1318 43.0406 1318 42.2169V25.4585C1318 24.6665 1317.24 24.0012 1316.32 24.0012Z"></path></mask><path d="M1316.32 24.0012C1315.4 24.0012 1314.64 24.6348 1314.64 25.4585V42.2169C1314.64 43.0089 1315.4 43.6742 1316.32 43.6742C1317.24 43.6742 1318 43.0406 1318 42.2169V25.4585C1318 24.6665 1317.24 24.0012 1316.32 24.0012Z" fill="#A5A5AD"></path><path d="M1316.32 28.7014C1316.93 28.7014 1317.61 28.4942 1318.2 27.9896C1318.81 27.4661 1319.34 26.5766 1319.34 25.4585H1309.94C1309.94 21.3853 1313.51 19.301 1316.32 19.301V28.7014ZM1319.34 25.4585V42.2169H1309.94V25.4585H1319.34ZM1319.34 42.2169C1319.34 41.0496 1318.78 40.1813 1318.22 39.6967C1317.67 39.2126 1316.99 38.974 1316.32 38.974V48.3744C1313.44 48.3744 1309.94 46.1974 1309.94 42.2169H1319.34ZM1316.32 38.974C1315.71 38.974 1315.03 39.1811 1314.45 39.6857C1313.84 40.2093 1313.3 41.0988 1313.3 42.2169H1322.7C1322.7 46.29 1319.13 48.3744 1316.32 48.3744V38.974ZM1313.3 42.2169V25.4585H1322.7V42.2169H1313.3ZM1313.3 25.4585C1313.3 26.6258 1313.86 27.4941 1314.42 27.9787C1314.98 28.4628 1315.65 28.7014 1316.32 28.7014V19.301C1319.2 19.301 1322.7 21.478 1322.7 25.4585H1313.3Z" fill="#E9E9EF" mask="url(#path-25-inside-10_2793_1254)"></path><mask id="path-27-inside-11_2793_1254" fill="white"><path d="M1304.1 24.0012C1303.18 24.0012 1302.42 24.6348 1302.42 25.4585V42.2169C1302.42 43.0089 1303.18 43.6742 1304.1 43.6742C1305.02 43.6742 1305.78 43.0406 1305.78 42.2169V25.4585C1305.78 24.6665 1305.02 24.0012 1304.1 24.0012Z"></path></mask><path d="M1304.1 24.0012C1303.18 24.0012 1302.42 24.6348 1302.42 25.4585V42.2169C1302.42 43.0089 1303.18 43.6742 1304.1 43.6742C1305.02 43.6742 1305.78 43.0406 1305.78 42.2169V25.4585C1305.78 24.6665 1305.02 24.0012 1304.1 24.0012Z" fill="#A5A5AD"></path><path d="M1304.1 28.7014C1304.71 28.7014 1305.39 28.4942 1305.98 27.9896C1306.59 27.4661 1307.12 26.5766 1307.12 25.4585H1297.72C1297.72 21.3853 1301.29 19.301 1304.1 19.301V28.7014ZM1307.12 25.4585V42.2169H1297.72V25.4585H1307.12ZM1307.12 42.2169C1307.12 41.0496 1306.56 40.1813 1306 39.6967C1305.45 39.2126 1304.77 38.974 1304.1 38.974V48.3744C1301.22 48.3744 1297.72 46.1974 1297.72 42.2169H1307.12ZM1304.1 38.974C1303.5 38.974 1302.82 39.1811 1302.23 39.6857C1301.62 40.2093 1301.08 41.0988 1301.08 42.2169H1310.48C1310.48 46.29 1306.91 48.3744 1304.1 48.3744V38.974ZM1301.08 42.2169V25.4585H1310.48V42.2169H1301.08ZM1301.08 25.4585C1301.08 26.6258 1301.64 27.4941 1302.2 27.9787C1302.76 28.4628 1303.44 28.7014 1304.1 28.7014V19.301C1306.98 19.301 1310.48 21.478 1310.48 25.4585H1301.08Z" fill="#E9E9EF" mask="url(#path-27-inside-11_2793_1254)"></path><mask id="path-29-inside-12_2793_1254" fill="white"><path d="M1291.84 24.0012C1290.93 24.0012 1290.17 24.6348 1290.17 25.4585V42.2169C1290.17 43.0089 1290.93 43.6742 1291.84 43.6742C1292.76 43.6742 1293.52 43.0406 1293.52 42.2169V25.4585C1293.52 24.6665 1292.76 24.0012 1291.84 24.0012Z"></path></mask><path d="M1291.84 24.0012C1290.93 24.0012 1290.17 24.6348 1290.17 25.4585V42.2169C1290.17 43.0089 1290.93 43.6742 1291.84 43.6742C1292.76 43.6742 1293.52 43.0406 1293.52 42.2169V25.4585C1293.52 24.6665 1292.76 24.0012 1291.84 24.0012Z" fill="#A5A5AD"></path><path d="M1291.84 28.7014C1292.45 28.7014 1293.13 28.4942 1293.72 27.9896C1294.33 27.4661 1294.87 26.5766 1294.87 25.4585H1285.47C1285.47 21.3853 1289.04 19.301 1291.84 19.301V28.7014ZM1294.87 25.4585V42.2169H1285.47V25.4585H1294.87ZM1294.87 42.2169C1294.87 41.0496 1294.3 40.1813 1293.75 39.6967C1293.19 39.2126 1292.51 38.974 1291.84 38.974V48.3744C1288.97 48.3744 1285.47 46.1974 1285.47 42.2169H1294.87ZM1291.84 38.974C1291.24 38.974 1290.56 39.1811 1289.97 39.6857C1289.36 40.2092 1288.82 41.0988 1288.82 42.2169H1298.22C1298.22 46.2901 1294.65 48.3744 1291.84 48.3744V38.974ZM1288.82 42.2169V25.4585H1298.22V42.2169H1288.82ZM1288.82 25.4585C1288.82 26.6258 1289.39 27.4941 1289.94 27.9787C1290.5 28.4628 1291.18 28.7014 1291.84 28.7014V19.301C1294.72 19.301 1298.22 21.4779 1298.22 25.4585H1288.82Z" fill="#E9E9EF" mask="url(#path-29-inside-12_2793_1254)"></path><mask id="path-31-inside-13_2793_1254" fill="white"><path d="M1279.65 24.0012C1278.73 24.0012 1277.97 24.6348 1277.97 25.4585V42.2169C1277.97 43.0089 1278.73 43.6742 1279.65 43.6742C1280.57 43.6742 1281.33 43.0406 1281.33 42.2169V25.4585C1281.33 24.6665 1280.57 24.0012 1279.65 24.0012Z"></path></mask><path d="M1279.65 24.0012C1278.73 24.0012 1277.97 24.6348 1277.97 25.4585V42.2169C1277.97 43.0089 1278.73 43.6742 1279.65 43.6742C1280.57 43.6742 1281.33 43.0406 1281.33 42.2169V25.4585C1281.33 24.6665 1280.57 24.0012 1279.65 24.0012Z" fill="#A5A5AD"></path><path d="M1279.65 28.7014C1280.26 28.7014 1280.94 28.4942 1281.52 27.9897C1282.13 27.4662 1282.67 26.5766 1282.67 25.4585H1273.27C1273.27 21.3853 1276.84 19.301 1279.65 19.301V28.7014ZM1282.67 25.4585V42.2169H1273.27V25.4585H1282.67ZM1282.67 42.2169C1282.67 41.0496 1282.11 40.1812 1281.55 39.6967C1280.99 39.2126 1280.32 38.974 1279.65 38.974V48.3744C1276.77 48.3744 1273.27 46.1975 1273.27 42.2169H1282.67ZM1279.65 38.974C1279.04 38.974 1278.36 39.1811 1277.77 39.6857C1277.16 40.2093 1276.63 41.0988 1276.63 42.2169H1286.03C1286.03 46.29 1282.46 48.3744 1279.65 48.3744V38.974ZM1276.63 42.2169V25.4585H1286.03V42.2169H1276.63ZM1276.63 25.4585C1276.63 26.6258 1277.19 27.4941 1277.75 27.9787C1278.3 28.4628 1278.98 28.7014 1279.65 28.7014V19.301C1282.53 19.301 1286.03 21.478 1286.03 25.4585H1276.63Z" fill="#E9E9EF" mask="url(#path-31-inside-13_2793_1254)"></path><path d="M376.032 203.701C376.032 262.625 381.711 298.482 384.792 315.318C387.84 332.153 395.123 344.355 406.835 353.197C418.546 362.039 437.99 362.333 455.542 362.333H1464.49C1482.01 362.333 1501.49 362.039 1513.2 353.197C1524.91 344.355 1532.16 332.153 1535.24 315.318C1538.29 298.482 1544 262.625 1544 203.701C1544 144.777 1538.32 108.92 1535.24 92.0846C1532.19 75.2492 1524.91 63.0467 1513.2 54.2049C1501.49 45.363 1482.04 45.0693 1464.49 45.0693H455.509C437.99 45.0693 418.514 45.363 406.803 54.2049C395.091 63.0467 387.84 75.2492 384.76 92.0846C381.711 108.92 376 144.777 376 203.701H376.032Z" stroke="#E9E9EF" stroke-width="4.7002" stroke-miterlimit="10"></path><path d="M657.419 10.5114C655.012 8.00957 651.718 6.58447 648.266 6.58447H504.458C501.006 6.58447 497.681 8.00957 495.306 10.5114L492.107 13.8683C490.967 15.0401 490.365 16.6235 490.365 18.2386V18.5237H662.391V18.2386C662.391 16.6235 661.757 15.0401 660.649 13.8683L657.45 10.5114H657.419Z" stroke="#E9E9EF" stroke-width="4.7002" stroke-miterlimit="10"></path><path d="M1424.96 6.58447H1281.15C1277.7 6.58447 1274.38 8.00957 1272 10.5114L1268.8 13.8683C1267.66 15.0401 1267.06 16.6235 1267.06 18.2386V18.302H1439.05V18.2386C1439.05 12.1619 1430.25 6.58447 1424.96 6.58447Z" stroke="#E9E9EF" stroke-width="4.7002" stroke-miterlimit="10"></path><path d="M1390.95 175.611H1405.82V205.357H1390.95V175.611ZM1405.82 160.738H1420.69V175.611H1405.82V160.738ZM1420.69 145.865H1435.56V160.738H1420.69V145.865ZM1435.56 130.992H1450.44V145.865H1435.56V130.992ZM1390.95 101.246H1465.31V130.992H1450.44V116.119H1390.95V101.246Z" fill="#E9E9EF"></path><path d="M1286.83 175.611H1301.7V190.484H1286.83V175.611ZM1301.7 190.484H1346.32V205.357H1301.7V190.484ZM1346.32 145.865H1361.19V190.484H1346.32V145.865ZM1286.83 101.246H1361.19V116.119H1301.7V130.992H1346.32V145.865H1286.83V101.246Z" fill="#E9E9EF"></path><path d="M1242.21 130.992H1257.08V145.865H1242.21V130.992ZM1242.21 190.484H1257.08V205.357H1242.21V190.484Z" fill="#E9E9EF"></path><path d="M1138.11 116.119H1152.98V145.865H1138.11V116.119ZM1152.98 101.246H1197.6V116.119H1152.98V101.246ZM1197.6 116.119H1212.47V190.484H1197.6V160.738H1152.98V145.865H1197.6V116.119ZM1152.98 190.484H1197.6V205.357H1152.98V190.484ZM1138.11 175.611H1152.98V190.484H1138.11V175.611Z" fill="#E9E9EF"></path><path d="M1048.87 190.484H1093.48V205.357H1048.87V190.484ZM1093.48 116.119H1108.36V190.484H1093.48V145.865H1078.61V130.992H1093.48V116.119ZM1063.74 145.865H1078.61V160.738H1063.74V145.865ZM1033.99 116.119H1048.87V160.738H1063.74V175.611H1048.87V190.484H1033.99V116.119ZM1048.87 101.246H1093.48V116.119H1048.87V101.246Z" fill="#E9E9EF"></path><path d="M1227.46 294.595V249.976H1212.59V235.103H1257.21V249.976H1242.33V294.595H1227.46Z" fill="#E9E9EF"></path><path d="M1153.05 294.595V235.103H1197.67V249.976H1167.92V264.849H1182.79V279.722H1167.92V294.595H1153.05Z" fill="#E9E9EF"></path><path d="M1093.48 294.595V235.103H1138.1V249.976H1123.23L1108.36 249.976L1108.36 264.849H1123.23L1123.23 279.722H1138.1V294.595H1093.48Z" fill="#E9E9EF"></path><path d="M1033.99 294.595V235.103H1048.87V279.722H1078.61V294.595H1033.99Z" fill="#E9E9EF"></path><rect x="424.195" y="86.3728" width="580.048" height="208.222" rx="44.6191" fill="#E9E9EF"></rect><path fill-rule="evenodd" clip-rule="evenodd" d="M510.874 116.203H480.781V266.667H510.874V266.666H571.054V236.575H571.059V251.621H586.106V236.574H586.104V191.436H571.054V176.389L510.874 176.389V146.297L556.012 146.297V161.342V161.343V176.388H586.104V161.343V161.342V131.25L571.054 131.25V116.204L510.874 116.204V116.203ZM556.012 236.574V206.481H510.874V236.574L556.012 236.574ZM631.247 116.203H601.154V236.574H616.209V266.666H691.44V236.574H706.47V116.203H676.378V236.574H631.247V116.203ZM826.857 191.435H811.806V176.389H751.613V146.297L796.765 146.297V161.342H826.857V131.25H811.806V116.204L736.575 116.204V131.25H721.52V191.435H736.575V206.481H796.765V236.574H751.613V221.528H721.52V251.621H736.575V266.666H811.806V251.62H826.857V191.435ZM871.979 116.204H841.887V191.436H856.927V206.482L917.117 206.482V236.575L871.979 236.575V221.528H841.887V251.621H856.927V266.667H932.159V251.621H947.21V191.436V116.204H917.117V176.39L871.979 176.39V116.204Z" fill="white"></path><rect x="425.82" y="310.425" width="364.601" height="16.5728" fill="#E9E9EF"></rect><rect x="823.57" y="310.425" width="120.153" height="16.5728" fill="#E9E9EF"></rect><rect x="976.867" y="310.425" width="364.601" height="16.5728" fill="#E9E9EF"></rect><rect x="1374.61" y="310.425" width="120.153" height="16.5728" fill="#E9E9EF"></rect><rect x="426" y="310" width="364.601" height="16.5728" fill="#E9E9EF"></rect><rect x="823.75" y="310" width="120.153" height="16.5728" fill="#E9E9EF"></rect><rect x="977.047" y="310" width="364.601" height="16.5728" fill="#E9E9EF"></rect><rect x="1374.79" y="310" width="120.153" height="16.5728" fill="#E9E9EF"></rect><rect x="426" y="310" width="364.601" height="16.5728" fill="#F07C7E"></rect><path d="M537.577 435L543.817 418.2H546.433L552.697 435H550.417L548.761 430.44H541.465L539.809 435H537.577ZM542.137 428.52H548.089L544.897 419.736H545.329L542.137 428.52ZM560.028 435.288C559.004 435.288 558.116 435.136 557.364 434.832C556.628 434.512 556.012 434.064 555.516 433.488C555.036 432.912 554.676 432.224 554.436 431.424C554.196 430.608 554.076 429.712 554.076 428.736V428.592C554.076 427.664 554.196 426.808 554.436 426.024C554.676 425.224 555.036 424.544 555.516 423.984C556.012 423.424 556.628 422.984 557.364 422.664C558.1 422.344 558.956 422.184 559.932 422.184C560.78 422.184 561.532 422.304 562.188 422.544C562.844 422.768 563.396 423.096 563.844 423.528C564.308 423.944 564.652 424.432 564.876 424.992C565.116 425.552 565.236 426.16 565.236 426.816V426.96H563.268V426.816C563.268 426.416 563.188 426.04 563.028 425.688C562.868 425.336 562.644 425.032 562.356 424.776C562.068 424.52 561.716 424.312 561.3 424.152C560.9 423.992 560.452 423.912 559.956 423.912C559.284 423.912 558.708 424.032 558.228 424.272C557.748 424.512 557.356 424.84 557.052 425.256C556.764 425.656 556.548 426.144 556.404 426.72C556.276 427.296 556.212 427.904 556.212 428.544V428.688C556.212 429.328 556.276 429.944 556.404 430.536C556.548 431.112 556.772 431.632 557.076 432.096C557.38 432.544 557.78 432.904 558.276 433.176C558.772 433.432 559.372 433.56 560.076 433.56C560.556 433.56 560.996 433.496 561.396 433.368C561.796 433.224 562.14 433.016 562.428 432.744C562.716 432.472 562.94 432.152 563.1 431.784C563.276 431.416 563.364 431 563.364 430.536V430.392H565.332V430.536C565.332 431.272 565.204 431.936 564.948 432.528C564.708 433.12 564.356 433.624 563.892 434.04C563.428 434.44 562.868 434.752 562.212 434.976C561.556 435.184 560.828 435.288 560.028 435.288ZM571.851 435.192C571.323 435.192 570.867 435.144 570.483 435.048C570.099 434.952 569.779 434.808 569.523 434.616C569.283 434.408 569.099 434.144 568.971 433.824C568.859 433.488 568.803 433.096 568.803 432.648V424.296H566.523V422.472H568.803V419.592H570.819V422.472H574.131V424.296H570.819V431.928C570.819 432.232 570.851 432.48 570.915 432.672C570.979 432.864 571.067 433.016 571.179 433.128C571.307 433.224 571.459 433.288 571.635 433.32C571.827 433.352 572.051 433.368 572.307 433.368C572.531 433.368 572.827 433.352 573.195 433.32C573.563 433.288 573.875 433.24 574.131 433.176V434.928C573.811 435.04 573.427 435.112 572.979 435.144C572.547 435.176 572.171 435.192 571.851 435.192ZM577.603 420.648C577.203 420.648 576.883 420.536 576.643 420.312C576.403 420.088 576.283 419.784 576.283 419.4C576.283 419.208 576.315 419.04 576.379 418.896C576.443 418.736 576.531 418.608 576.643 418.512C576.755 418.4 576.891 418.32 577.051 418.272C577.227 418.208 577.411 418.176 577.603 418.176C577.795 418.176 577.971 418.208 578.131 418.272C578.291 418.32 578.427 418.4 578.539 418.512C578.651 418.608 578.739 418.736 578.803 418.896C578.867 419.04 578.899 419.208 578.899 419.4C578.899 419.784 578.779 420.088 578.539 420.312C578.299 420.536 577.987 420.648 577.603 420.648ZM576.571 435V422.472H578.611V435H576.571ZM587.521 435H585.145L580.633 422.472H582.865L586.633 433.584H586.153L589.849 422.472H592.033L587.521 435ZM599.242 435.288C598.202 435.288 597.306 435.136 596.554 434.832C595.802 434.512 595.17 434.064 594.658 433.488C594.146 432.912 593.77 432.224 593.53 431.424C593.29 430.608 593.17 429.712 593.17 428.736V428.592C593.17 427.664 593.29 426.808 593.53 426.024C593.77 425.224 594.13 424.544 594.61 423.984C595.106 423.424 595.722 422.984 596.458 422.664C597.194 422.344 598.05 422.184 599.026 422.184C599.858 422.184 600.618 422.328 601.306 422.616C602.01 422.888 602.602 423.28 603.082 423.792C603.578 424.288 603.962 424.888 604.234 425.592C604.506 426.296 604.642 427.08 604.642 427.944V429.24H594.586V427.704H602.578V427.584C602.578 427.008 602.49 426.488 602.314 426.024C602.138 425.56 601.89 425.176 601.57 424.872C601.25 424.552 600.874 424.304 600.442 424.128C600.01 423.952 599.538 423.864 599.026 423.864C598.354 423.864 597.778 423.976 597.298 424.2C596.818 424.424 596.426 424.736 596.122 425.136C595.834 425.52 595.618 425.976 595.474 426.504C595.346 427.032 595.282 427.6 595.282 428.208V428.952C595.282 429.56 595.354 430.152 595.498 430.728C595.642 431.288 595.866 431.784 596.17 432.216C596.49 432.632 596.898 432.968 597.394 433.224C597.906 433.48 598.53 433.608 599.266 433.608C599.778 433.608 600.234 433.544 600.634 433.416C601.034 433.288 601.37 433.12 601.642 432.912C601.914 432.704 602.122 432.472 602.266 432.216C602.41 431.944 602.482 431.672 602.482 431.4L602.506 431.256H604.426V431.4C604.41 431.96 604.274 432.48 604.018 432.96C603.778 433.424 603.434 433.832 602.986 434.184C602.538 434.52 601.994 434.792 601.354 435C600.73 435.192 600.026 435.288 599.242 435.288ZM613.32 439.32V422.472H615.36V424.464H615.384C615.576 424.048 615.816 423.704 616.104 423.432C616.392 423.144 616.712 422.912 617.064 422.736C617.432 422.544 617.816 422.408 618.216 422.328C618.632 422.232 619.08 422.184 619.56 422.184C620.472 422.184 621.256 422.344 621.912 422.664C622.584 422.984 623.136 423.432 623.568 424.008C624 424.584 624.312 425.264 624.504 426.048C624.712 426.816 624.816 427.648 624.816 428.544V428.688C624.816 429.68 624.704 430.584 624.48 431.4C624.256 432.2 623.92 432.896 623.472 433.488C623.04 434.064 622.496 434.512 621.84 434.832C621.184 435.136 620.44 435.288 619.608 435.288C619.144 435.288 618.696 435.248 618.264 435.168C617.848 435.088 617.456 434.96 617.088 434.784C616.736 434.608 616.416 434.384 616.128 434.112C615.84 433.84 615.592 433.512 615.384 433.128H615.36V439.32H613.32ZM619.176 433.56C619.848 433.56 620.408 433.416 620.856 433.128C621.32 432.84 621.688 432.472 621.96 432.024C622.232 431.56 622.416 431.04 622.512 430.464C622.624 429.888 622.68 429.312 622.68 428.736V428.592C622.68 427.984 622.616 427.4 622.488 426.84C622.376 426.264 622.176 425.768 621.888 425.352C621.6 424.92 621.216 424.576 620.736 424.32C620.272 424.048 619.696 423.912 619.008 423.912C618.304 423.912 617.72 424.056 617.256 424.344C616.792 424.616 616.416 424.984 616.128 425.448C615.84 425.912 615.64 426.44 615.528 427.032C615.416 427.608 615.36 428.2 615.36 428.808V429C615.36 429.608 615.424 430.192 615.552 430.752C615.696 431.296 615.92 431.784 616.224 432.216C616.528 432.632 616.92 432.96 617.4 433.2C617.88 433.44 618.472 433.56 619.176 433.56ZM627.711 435V418.2H629.751V424.344H629.775C629.967 423.992 630.191 423.688 630.447 423.432C630.719 423.176 631.023 422.96 631.359 422.784C631.695 422.608 632.063 422.48 632.463 422.4C632.863 422.304 633.303 422.256 633.783 422.256C634.503 422.256 635.119 422.352 635.631 422.544C636.159 422.736 636.591 423.032 636.927 423.432C637.263 423.816 637.511 424.304 637.671 424.896C637.847 425.472 637.935 426.152 637.935 426.936V435H635.919V427.56C635.919 427.032 635.863 426.552 635.751 426.12C635.655 425.688 635.495 425.32 635.271 425.016C635.063 424.696 634.783 424.456 634.431 424.296C634.079 424.12 633.647 424.032 633.135 424.032C632.527 424.032 632.007 424.128 631.575 424.32C631.159 424.512 630.815 424.784 630.543 425.136C630.271 425.472 630.071 425.88 629.943 426.36C629.815 426.824 629.751 427.336 629.751 427.896V435H627.711ZM644.71 435.288C644.166 435.288 643.646 435.216 643.15 435.072C642.654 434.928 642.214 434.712 641.83 434.424C641.462 434.12 641.166 433.744 640.942 433.296C640.718 432.832 640.606 432.296 640.606 431.688V431.544C640.606 430.872 640.726 430.328 640.966 429.912C641.206 429.48 641.518 429.144 641.902 428.904C642.302 428.648 642.75 428.464 643.246 428.352C643.758 428.24 644.27 428.152 644.782 428.088C645.31 428.024 645.822 427.968 646.318 427.92C646.83 427.856 647.286 427.76 647.686 427.632C648.086 427.504 648.406 427.32 648.646 427.08C648.886 426.824 649.006 426.48 649.006 426.048V425.904C649.006 425.552 648.942 425.248 648.814 424.992C648.686 424.736 648.502 424.528 648.262 424.368C648.022 424.192 647.718 424.072 647.35 424.008C646.998 423.928 646.598 423.888 646.15 423.888C645.702 423.888 645.286 423.928 644.902 424.008C644.534 424.072 644.214 424.2 643.942 424.392C643.67 424.584 643.454 424.84 643.294 425.16C643.15 425.464 643.078 425.872 643.078 426.384V426.528H641.11V426.384C641.11 425.632 641.246 424.992 641.518 424.464C641.806 423.936 642.182 423.504 642.646 423.168C643.126 422.816 643.678 422.568 644.302 422.424C644.926 422.264 645.59 422.184 646.294 422.184C646.998 422.184 647.638 422.264 648.214 422.424C648.79 422.568 649.286 422.816 649.702 423.168C650.118 423.504 650.438 423.944 650.662 424.488C650.886 425.032 650.998 425.688 650.998 426.456L650.974 431.88C650.974 432.184 650.982 432.448 650.998 432.672C651.03 432.896 651.07 433.08 651.118 433.224C651.182 433.368 651.262 433.48 651.358 433.56C651.47 433.624 651.598 433.656 651.742 433.656C651.822 433.656 651.894 433.648 651.958 433.632C652.038 433.616 652.134 433.592 652.246 433.56V435.024C652.166 435.04 652.078 435.048 651.982 435.048C651.886 435.064 651.79 435.072 651.694 435.072C651.614 435.088 651.518 435.096 651.406 435.096C651.31 435.112 651.214 435.12 651.118 435.12C650.83 435.12 650.566 435.08 650.326 435C650.102 434.92 649.902 434.8 649.726 434.64C649.55 434.48 649.414 434.28 649.318 434.04C649.222 433.784 649.166 433.472 649.15 433.104L649.126 432.864H649.102C648.878 433.264 648.614 433.616 648.31 433.92C648.006 434.224 647.662 434.48 647.278 434.688C646.894 434.88 646.486 435.024 646.054 435.12C645.622 435.232 645.174 435.288 644.71 435.288ZM645.286 433.608C645.862 433.608 646.374 433.52 646.822 433.344C647.27 433.168 647.654 432.92 647.974 432.6C648.31 432.264 648.566 431.856 648.742 431.376C648.918 430.896 649.006 430.352 649.006 429.744V427.728H649.486C649.374 428.064 649.19 428.336 648.934 428.544C648.678 428.736 648.382 428.896 648.046 429.024C647.71 429.136 647.342 429.216 646.942 429.264C646.558 429.312 646.166 429.36 645.766 429.408C645.366 429.44 644.982 429.488 644.614 429.552C644.262 429.616 643.942 429.72 643.654 429.864C643.366 430.008 643.134 430.208 642.958 430.464C642.798 430.704 642.718 431.032 642.718 431.448V431.544C642.718 431.864 642.774 432.152 642.886 432.408C643.014 432.664 643.19 432.888 643.414 433.08C643.638 433.256 643.91 433.392 644.23 433.488C644.55 433.568 644.902 433.608 645.286 433.608ZM659.172 435.288C658.452 435.288 657.764 435.2 657.108 435.024C656.468 434.864 655.916 434.616 655.452 434.28C654.988 433.928 654.612 433.504 654.324 433.008C654.052 432.496 653.908 431.912 653.892 431.256V431.112H655.932V431.256C655.932 431.656 656.02 432.008 656.196 432.312C656.388 432.6 656.636 432.848 656.94 433.056C657.244 433.248 657.596 433.392 657.996 433.488C658.412 433.584 658.836 433.632 659.268 433.632C659.652 433.632 660.02 433.608 660.372 433.56C660.724 433.496 661.028 433.384 661.284 433.224C661.556 433.064 661.764 432.864 661.908 432.624C662.068 432.368 662.148 432.04 662.148 431.64V431.496C662.148 431.08 662.036 430.76 661.812 430.536C661.588 430.296 661.292 430.104 660.924 429.96C660.556 429.8 660.14 429.672 659.676 429.576C659.212 429.464 658.732 429.36 658.236 429.264C657.756 429.152 657.284 429.024 656.82 428.88C656.356 428.736 655.94 428.536 655.572 428.28C655.204 428.008 654.908 427.672 654.684 427.272C654.46 426.872 654.348 426.368 654.348 425.76V425.616C654.348 424.976 654.484 424.44 654.756 424.008C655.044 423.56 655.412 423.2 655.86 422.928C656.324 422.656 656.844 422.464 657.42 422.352C657.996 422.24 658.58 422.184 659.172 422.184C659.812 422.184 660.42 422.256 660.996 422.4C661.588 422.544 662.108 422.768 662.556 423.072C663.004 423.36 663.364 423.736 663.636 424.2C663.908 424.664 664.044 425.224 664.044 425.88L664.068 426.048H662.052V425.904C662.052 425.552 661.972 425.248 661.812 424.992C661.652 424.736 661.436 424.52 661.164 424.344C660.908 424.168 660.604 424.04 660.252 423.96C659.916 423.88 659.548 423.84 659.148 423.84C658.796 423.84 658.46 423.864 658.14 423.912C657.82 423.96 657.532 424.056 657.276 424.2C657.02 424.328 656.82 424.504 656.676 424.728C656.532 424.952 656.46 425.232 656.46 425.568V425.712C656.46 426.08 656.572 426.384 656.796 426.624C657.02 426.864 657.308 427.056 657.66 427.2C658.028 427.344 658.444 427.472 658.908 427.584C659.388 427.68 659.868 427.784 660.348 427.896C660.828 428.008 661.3 428.136 661.764 428.28C662.244 428.424 662.66 428.624 663.012 428.88C663.38 429.136 663.676 429.464 663.9 429.864C664.124 430.248 664.236 430.744 664.236 431.352V431.496C664.236 432.2 664.1 432.8 663.828 433.296C663.556 433.776 663.188 434.168 662.724 434.472C662.26 434.76 661.724 434.968 661.116 435.096C660.508 435.224 659.86 435.288 659.172 435.288ZM672.414 435.288C671.374 435.288 670.478 435.136 669.726 434.832C668.974 434.512 668.342 434.064 667.83 433.488C667.318 432.912 666.942 432.224 666.702 431.424C666.462 430.608 666.342 429.712 666.342 428.736V428.592C666.342 427.664 666.462 426.808 666.702 426.024C666.942 425.224 667.302 424.544 667.782 423.984C668.278 423.424 668.894 422.984 669.63 422.664C670.366 422.344 671.222 422.184 672.198 422.184C673.03 422.184 673.79 422.328 674.478 422.616C675.182 422.888 675.774 423.28 676.254 423.792C676.75 424.288 677.134 424.888 677.406 425.592C677.678 426.296 677.814 427.08 677.814 427.944V429.24H667.758V427.704H675.75V427.584C675.75 427.008 675.662 426.488 675.486 426.024C675.31 425.56 675.062 425.176 674.742 424.872C674.422 424.552 674.046 424.304 673.614 424.128C673.182 423.952 672.71 423.864 672.198 423.864C671.526 423.864 670.95 423.976 670.47 424.2C669.99 424.424 669.598 424.736 669.294 425.136C669.006 425.52 668.79 425.976 668.646 426.504C668.518 427.032 668.454 427.6 668.454 428.208V428.952C668.454 429.56 668.526 430.152 668.67 430.728C668.814 431.288 669.038 431.784 669.342 432.216C669.662 432.632 670.07 432.968 670.566 433.224C671.078 433.48 671.702 433.608 672.438 433.608C672.95 433.608 673.406 433.544 673.806 433.416C674.206 433.288 674.542 433.12 674.814 432.912C675.086 432.704 675.294 432.472 675.438 432.216C675.582 431.944 675.654 431.672 675.654 431.4L675.678 431.256H677.598V431.4C677.582 431.96 677.446 432.48 677.19 432.96C676.95 433.424 676.606 433.832 676.158 434.184C675.71 434.52 675.166 434.792 674.526 435C673.902 435.192 673.198 435.288 672.414 435.288Z" fill="black"></path><path d="M702 426L782 426C786.418 426 790 422.418 790 418L790 336" stroke="#9292A9" stroke-width="3" stroke-dasharray="6 6"></path><path d="M516 426L434 426C429.582 426 426 422.418 426 418L426 336" stroke="#9292A9" stroke-width="3" stroke-dasharray="6 6"></path></svg> 