<?xml version="1.0" encoding="UTF-8"?> <svg xmlns="http://www.w3.org/2000/svg" width="180" height="174" viewBox="0 0 180 174" fill="none"><path d="M95.0078 90.1587V96.2914M99.0074 89.8921C100.074 89.8921 100.341 91.2253 100.341 92.2918C100.341 93.3584 100.341 96.2914 99.0074 96.2914C97.6742 96.2914 97.4076 94.4249 97.4076 93.0918C97.4076 91.7586 97.6742 89.8921 99.0074 89.8921Z" stroke="black" stroke-width="0.693261" stroke-linecap="round" stroke-linejoin="round"></path><path d="M137.297 85.9102V92.0429M142.896 84.577L139.963 85.9102V88.0433C140.763 87.8655 142.416 87.7233 142.63 88.5765C142.843 89.4298 140.941 90.7097 139.963 91.2429M166.36 73.3781C166.805 73.1115 167.8 72.6849 168.227 73.1115C168.76 73.6448 166.894 76.8444 166.627 77.3777C166.414 77.8043 167.96 77.3777 168.76 77.1111M170.36 72.0449C171.16 72.0449 171.96 73.1115 171.96 74.178C171.96 75.2446 171.693 76.5778 170.893 76.5778C170.093 76.5778 169.56 75.7779 169.56 74.4447C169.56 73.1115 169.56 72.0449 170.36 72.0449Z" stroke="black" stroke-width="0.693261" stroke-linecap="round" stroke-linejoin="round"></path><path d="M53.6739 87.4922H50.4742V89.3587C51.5408 89.3587 53.6739 89.6254 53.6739 90.6919C53.6739 91.7585 51.5408 92.3806 50.4742 92.5584M18.2109 75.4939C18.2109 76.8271 18.2109 79.4939 18.2109 80.2934C18.2109 81.0929 21.4106 81.0933 21.4106 80.2934C21.4106 79.4935 21.4106 75.7605 21.4106 75.4939C21.4106 74.427 18.2109 74.4274 18.2109 75.4939Z" stroke="black" stroke-width="0.693261" stroke-linecap="round" stroke-linejoin="round"></path><path d="M17.637 38.82C40.4547 13.0568 62.5656 13.1353 80.0029 11.0931C114.21 6.53739 140.366 16.7877 158.942 35.0498C177.518 53.3119 184.588 90.4644 173.198 123.336C161.809 156.208 122.093 174.195 88.3177 172.938C54.5427 171.682 21.4391 150.985 10.4387 126.831C-1.42484 100.783 -5.18081 64.5833 17.637 38.82Z" stroke="black" stroke-width="1.64948" stroke-linecap="round" stroke-linejoin="round"></path><path d="M1.32031 89.2004C8.19314 95.3663 21.6392 110.847 62.4835 116.149C103.328 121.451 138.281 113.047 149.356 108.805C160.431 104.564 168.352 98.2466 178.367 87.585" stroke="black" stroke-width="1.64948" stroke-linecap="round" stroke-linejoin="round"></path><path d="M47.3281 124.121L50.3129 117.956L53.3762 125.339L47.3281 124.121Z" stroke="black" stroke-width="1.64948" stroke-linecap="round" stroke-linejoin="round"></path><line x1="5.81461" y1="77.9362" x2="5.81461" y2="84.2985" stroke="black" stroke-width="0.785466" stroke-linecap="round" stroke-linejoin="round"></line><line x1="9.4318" y1="81.7067" x2="9.4318" y2="88.069" stroke="black" stroke-width="0.785466" stroke-linecap="round" stroke-linejoin="round"></line><line x1="13.6662" y1="84.9269" x2="13.6662" y2="91.2892" stroke="black" stroke-width="0.785466" stroke-linecap="round" stroke-linejoin="round"></line><line x1="24.588" y1="91.3678" x2="24.588" y2="97.7301" stroke="black" stroke-width="0.785466" stroke-linecap="round" stroke-linejoin="round"></line><line x1="30.4787" y1="93.9596" x2="30.4787" y2="100.322" stroke="black" stroke-width="0.785466" stroke-linecap="round" stroke-linejoin="round"></line><line x1="37.3927" y1="96.3947" x2="37.3927" y2="102.757" stroke="black" stroke-width="0.785466" stroke-linecap="round" stroke-linejoin="round"></line><line x1="43.2834" y1="98.0441" x2="43.2834" y2="104.406" stroke="black" stroke-width="0.785466" stroke-linecap="round" stroke-linejoin="round"></line><line x1="59.2287" y1="101.265" x2="59.2287" y2="107.627" stroke="black" stroke-width="0.785466" stroke-linecap="round" stroke-linejoin="round"></line><line x1="68.5724" y1="102.836" x2="68.5724" y2="109.198" stroke="black" stroke-width="0.785466" stroke-linecap="round" stroke-linejoin="round"></line><line x1="77.6115" y1="103.229" x2="77.6115" y2="109.591" stroke="black" stroke-width="0.785466" stroke-linecap="round" stroke-linejoin="round"></line><line x1="87.2677" y1="103.542" x2="87.2677" y2="109.904" stroke="black" stroke-width="0.785466" stroke-linecap="round" stroke-linejoin="round"></line><line x1="104.315" y1="103.542" x2="104.315" y2="109.904" stroke="black" stroke-width="0.785466" stroke-linecap="round" stroke-linejoin="round"></line><line x1="113.111" y1="103.229" x2="113.111" y2="109.591" stroke="black" stroke-width="0.785466" stroke-linecap="round" stroke-linejoin="round"></line><line x1="122.697" y1="102.286" x2="122.697" y2="108.648" stroke="black" stroke-width="0.785466" stroke-linecap="round" stroke-linejoin="round"></line><line x1="131.721" y1="100.243" x2="131.721" y2="106.606" stroke="black" stroke-width="0.785466" stroke-linecap="round" stroke-linejoin="round"></line><line x1="148.221" y1="95.7663" x2="148.221" y2="102.129" stroke="black" stroke-width="0.785466" stroke-linecap="round" stroke-linejoin="round"></line><line x1="154.033" y1="93.1745" x2="154.033" y2="99.5367" stroke="black" stroke-width="0.785466" stroke-linecap="round" stroke-linejoin="round"></line><line x1="159.455" y1="90.2682" x2="159.455" y2="96.6305" stroke="black" stroke-width="0.785466" stroke-linecap="round" stroke-linejoin="round"></line><line x1="165.346" y1="87.2834" x2="165.346" y2="93.6456" stroke="black" stroke-width="0.785466" stroke-linecap="round" stroke-linejoin="round"></line><line x1="173.822" y1="79.4284" x2="173.822" y2="85.7906" stroke="black" stroke-width="0.785466" stroke-linecap="round" stroke-linejoin="round"></line><line x1="19.1294" y1="84.4165" x2="19.1294" y2="94.392" stroke="black" stroke-width="1.64948" stroke-linecap="round" stroke-linejoin="round"></line><line x1="51.2544" y1="96.5127" x2="51.2544" y2="106.488" stroke="black" stroke-width="1.64948" stroke-linecap="round" stroke-linejoin="round"></line><line x1="96.4185" y1="99.8116" x2="96.4185" y2="109.787" stroke="black" stroke-width="1.64948" stroke-linecap="round" stroke-linejoin="round"></line><line x1="140.958" y1="94.8633" x2="140.958" y2="104.839" stroke="black" stroke-width="1.64948" stroke-linecap="round" stroke-linejoin="round"></line><line x1="170.176" y1="80.4888" x2="170.176" y2="90.4642" stroke="black" stroke-width="1.64948" stroke-linecap="round" stroke-linejoin="round"></line><path d="M73.2507 18.3588C79.5658 17.2906 84.1818 20.8461 85.7003 22.7574C84.077 20.3748 80.854 14.5964 80.9483 10.5434C81.0425 6.49041 83.5272 2.49238 84.7578 1C84.7578 1.23564 85.6532 2.39027 89.2349 5.12369C93.7121 8.54047 95.5972 12.1143 95.4008 17.102C95.2437 21.0922 96.0892 22.5349 96.5315 22.7574C100.803 19.8695 108.58 17.7634 113.113 17.4948C118.415 17.1806 134.713 18.7123 139.937 15.6097C144.115 13.1276 148.93 12.4809 150.815 12.4678C147.87 13.4889 142.332 19.0264 135.892 22.7574C129.451 26.4884 118.886 25.5458 111.778 25.7029C106.091 25.8286 102.47 27.8237 101.37 28.8055C104.08 30.3502 110.12 34.5001 112.603 38.7416C115.705 44.0435 114.134 48.5992 117.315 53.744C119.86 57.8599 125.785 62.1878 128.43 63.8373C124.594 63.654 115.438 62.2742 109.5 58.2212C102.077 53.1549 98.5034 45.8501 95.9899 40.3911C93.9791 36.0239 91.2248 32.8637 90.0989 31.8295C87.7687 32.9423 82.2286 36.0161 78.7097 39.4093C74.3111 43.6508 72.0332 48.2065 65.4353 52.016C60.157 55.0636 51.0613 57.4226 47.1732 58.2212C47.9849 57.763 50.535 56.2261 54.2424 53.744C58.8767 50.6414 61.508 43.2973 64.8462 35.9925C67.5168 30.1486 72.9758 27.3524 75.3714 26.6847C69.5197 26.0956 59.3087 29.7088 50.2758 26.6847C43.0495 24.2655 36.2945 18.4504 33.8203 15.8453C38.376 17.4162 48.6656 20.6445 53.3784 20.9901C59.2694 21.4221 65.3568 19.6941 73.2507 18.3588Z" fill="white" stroke="black" stroke-width="1.64948" stroke-linecap="round" stroke-linejoin="round"></path><path d="M84.7576 25.8858C83.5606 27.3631 86.4165 29.4976 94.1182 26.515" stroke="black" stroke-width="1.64948" stroke-linecap="round"></path></svg> 