<?xml version="1.0" encoding="UTF-8"?> <svg xmlns="http://www.w3.org/2000/svg" width="1920" height="457" viewBox="0 0 1920 457" fill="none"><rect width="1920" height="457" fill="white"></rect><path opacity="0.9" d="M459.74 347.203C445.831 347.203 426.766 347.203 417.504 340.375C407.797 333.231 402.068 323.59 399.522 309.998C393.792 279.336 391.023 244.723 391.023 204.167C391.023 163.611 393.792 128.998 399.522 98.336C402.068 84.7437 407.765 75.1026 417.504 67.9587C426.798 61.1309 445.831 61.1309 459.74 61.1309H1460.44C1474.35 61.1309 1493.42 61.1309 1502.68 67.9587C1512.39 75.1026 1518.12 84.7437 1520.66 98.336C1526.39 128.998 1529.19 163.611 1529.19 204.167C1529.19 244.723 1526.42 279.336 1520.66 309.998C1518.12 323.59 1512.42 333.231 1502.68 340.375C1493.39 347.203 1474.35 347.203 1460.44 347.203H459.74Z" stroke="#E9E9EF" stroke-width="4.69863" stroke-miterlimit="10"></path><path d="M657.419 10.5114C655.012 8.00957 651.718 6.58447 648.266 6.58447H504.458C501.006 6.58447 497.681 8.00957 495.306 10.5114L492.107 13.8683C490.967 15.0401 490.365 16.6235 490.365 18.2386V43.6688H662.391V18.207C662.391 16.5918 661.757 15.0084 660.649 13.8366L657.45 10.4797L657.419 10.5114Z" stroke="#E9E9EF" stroke-width="4.7002" stroke-miterlimit="10"></path><path d="M1245.92 9.30211V8.41538C1245.92 7.71867 1245.8 7.11696 1245.48 6.57859C1243.83 3.66505 1237.88 3 1229.36 3H691.811C683.292 3 677.338 3.66505 675.692 6.57859C675.388 6.89477 674.781 9.9416 674.781 13.5633" stroke="#E9E9EF" stroke-width="4.7002" stroke-miterlimit="10"></path><path d="M1245.92 9.33398V30.3621C1245.92 30.3621 1234.29 30.3621 1232.46 30.3621H688.739H674.75V12.797" stroke="#E9E9EF" stroke-width="4.7002" stroke-miterlimit="10"></path><path d="M688.89 43.2201V30.3861H1232.33L1232.33 46.0687" stroke="#E9E9EF" stroke-width="4.7002" stroke-miterlimit="10"></path><path d="M1424.96 6.58447H1281.15C1277.7 6.58447 1274.38 8.00957 1272 10.5114L1268.8 13.8683C1267.66 15.0401 1267.06 16.6235 1267.06 18.2386V43.6687H1439.05V18.207C1439.05 12.1403 1430.35 6.58447 1424.96 6.58447Z" stroke="#E9E9EF" stroke-width="4.7002" stroke-miterlimit="10"></path><mask id="path-7-inside-1_2793_813" fill="white"><path d="M1426.48 24.0012C1425.56 24.0012 1424.8 24.6348 1424.8 25.4585V42.2169C1424.8 43.0089 1425.56 43.6742 1426.48 43.6742C1427.4 43.6742 1428.16 43.0406 1428.16 42.2169V25.4585C1428.16 24.6665 1427.4 24.0012 1426.48 24.0012Z"></path></mask><path d="M1426.48 24.0012C1425.56 24.0012 1424.8 24.6348 1424.8 25.4585V42.2169C1424.8 43.0089 1425.56 43.6742 1426.48 43.6742C1427.4 43.6742 1428.16 43.0406 1428.16 42.2169V25.4585C1428.16 24.6665 1427.4 24.0012 1426.48 24.0012Z" fill="#A5A5AD"></path><path d="M1426.48 28.7014C1427.08 28.7014 1427.76 28.4942 1428.35 27.9896C1428.96 27.4661 1429.5 26.5766 1429.5 25.4585H1420.1C1420.1 21.3853 1423.67 19.301 1426.48 19.301V28.7014ZM1429.5 25.4585V42.2169H1420.1V25.4585H1429.5ZM1429.5 42.2169C1429.5 41.0496 1428.94 40.1813 1428.38 39.6967C1427.82 39.2126 1427.14 38.974 1426.48 38.974V48.3744C1423.6 48.3744 1420.1 46.1974 1420.1 42.2169H1429.5ZM1426.48 38.974C1425.87 38.974 1425.19 39.1811 1424.6 39.6857C1423.99 40.2093 1423.46 41.0988 1423.46 42.2169H1432.86C1432.86 46.29 1429.29 48.3744 1426.48 48.3744V38.974ZM1423.46 42.2169V25.4585H1432.86V42.2169H1423.46ZM1423.46 25.4585C1423.46 26.6258 1424.02 27.4941 1424.58 27.9787C1425.13 28.4628 1425.81 28.7014 1426.48 28.7014V19.301C1429.36 19.301 1432.86 21.478 1432.86 25.4585H1423.46Z" fill="#E9E9EF" mask="url(#path-7-inside-1_2793_813)"></path><mask id="path-9-inside-2_2793_813" fill="white"><path d="M1414.27 24.0012C1413.36 24.0012 1412.6 24.6348 1412.6 25.4585V42.2169C1412.6 43.0089 1413.36 43.6742 1414.27 43.6742C1415.19 43.6742 1415.95 43.0406 1415.95 42.2169V25.4585C1415.95 24.6665 1415.19 24.0012 1414.27 24.0012Z"></path></mask><path d="M1414.27 24.0012C1413.36 24.0012 1412.6 24.6348 1412.6 25.4585V42.2169C1412.6 43.0089 1413.36 43.6742 1414.27 43.6742C1415.19 43.6742 1415.95 43.0406 1415.95 42.2169V25.4585C1415.95 24.6665 1415.19 24.0012 1414.27 24.0012Z" fill="#A5A5AD"></path><path d="M1414.27 28.7014C1414.88 28.7014 1415.56 28.4942 1416.15 27.9896C1416.76 27.4661 1417.3 26.5766 1417.3 25.4585H1407.89C1407.89 21.3853 1411.47 19.301 1414.27 19.301V28.7014ZM1417.3 25.4585V42.2169H1407.89V25.4585H1417.3ZM1417.3 42.2169C1417.3 41.0496 1416.73 40.1813 1416.18 39.6967C1415.62 39.2126 1414.94 38.974 1414.27 38.974V48.3744C1411.39 48.3744 1407.89 46.1974 1407.89 42.2169H1417.3ZM1414.27 38.974C1413.67 38.974 1412.99 39.1811 1412.4 39.6857C1411.79 40.2093 1411.25 41.0988 1411.25 42.2169H1420.65C1420.65 46.29 1417.08 48.3744 1414.27 48.3744V38.974ZM1411.25 42.2169V25.4585H1420.65V42.2169H1411.25ZM1411.25 25.4585C1411.25 26.6258 1411.82 27.4941 1412.37 27.9787C1412.93 28.4628 1413.61 28.7014 1414.27 28.7014V19.301C1417.15 19.301 1420.65 21.478 1420.65 25.4585H1411.25Z" fill="#E9E9EF" mask="url(#path-9-inside-2_2793_813)"></path><mask id="path-11-inside-3_2793_813" fill="white"><path d="M1402.04 24.0012C1401.12 24.0012 1400.36 24.6348 1400.36 25.4585V42.2169C1400.36 43.0089 1401.12 43.6742 1402.04 43.6742C1402.96 43.6742 1403.72 43.0406 1403.72 42.2169V25.4585C1403.72 24.6665 1402.96 24.0012 1402.04 24.0012Z"></path></mask><path d="M1402.04 24.0012C1401.12 24.0012 1400.36 24.6348 1400.36 25.4585V42.2169C1400.36 43.0089 1401.12 43.6742 1402.04 43.6742C1402.96 43.6742 1403.72 43.0406 1403.72 42.2169V25.4585C1403.72 24.6665 1402.96 24.0012 1402.04 24.0012Z" fill="#A5A5AD"></path><path d="M1402.04 28.7014C1402.65 28.7014 1403.33 28.4942 1403.91 27.9896C1404.53 27.4661 1405.06 26.5766 1405.06 25.4585H1395.66C1395.66 21.3853 1399.23 19.301 1402.04 19.301V28.7014ZM1405.06 25.4585V42.2169H1395.66V25.4585H1405.06ZM1405.06 42.2169C1405.06 41.0496 1404.5 40.1813 1403.94 39.6967C1403.38 39.2126 1402.71 38.974 1402.04 38.974V48.3744C1399.16 48.3744 1395.66 46.1975 1395.66 42.2169H1405.06ZM1402.04 38.974C1401.43 38.974 1400.75 39.1811 1400.16 39.6858C1399.55 40.2093 1399.02 41.0988 1399.02 42.2169H1408.42C1408.42 46.29 1404.85 48.3744 1402.04 48.3744V38.974ZM1399.02 42.2169V25.4585H1408.42V42.2169H1399.02ZM1399.02 25.4585C1399.02 26.6258 1399.58 27.4941 1400.14 27.9787C1400.69 28.4628 1401.37 28.7014 1402.04 28.7014V19.301C1404.92 19.301 1408.42 21.478 1408.42 25.4585H1399.02Z" fill="#E9E9EF" mask="url(#path-11-inside-3_2793_813)"></path><mask id="path-13-inside-4_2793_813" fill="white"><path d="M1389.78 24.0012C1388.86 24.0012 1388.1 24.6348 1388.1 25.4585V42.2169C1388.1 43.0089 1388.86 43.6742 1389.78 43.6742C1390.7 43.6742 1391.46 43.0406 1391.46 42.2169V25.4585C1391.46 24.6665 1390.7 24.0012 1389.78 24.0012Z"></path></mask><path d="M1389.78 24.0012C1388.86 24.0012 1388.1 24.6348 1388.1 25.4585V42.2169C1388.1 43.0089 1388.86 43.6742 1389.78 43.6742C1390.7 43.6742 1391.46 43.0406 1391.46 42.2169V25.4585C1391.46 24.6665 1390.7 24.0012 1389.78 24.0012Z" fill="#A5A5AD"></path><path d="M1389.78 28.7014C1390.39 28.7014 1391.07 28.4942 1391.66 27.9896C1392.27 27.4661 1392.8 26.5766 1392.8 25.4585H1383.4C1383.4 21.3853 1386.97 19.301 1389.78 19.301V28.7014ZM1392.8 25.4585V42.2169H1383.4V25.4585H1392.8ZM1392.8 42.2169C1392.8 41.0496 1392.24 40.1813 1391.68 39.6967C1391.13 39.2126 1390.45 38.974 1389.78 38.974V48.3744C1386.9 48.3744 1383.4 46.1974 1383.4 42.2169H1392.8ZM1389.78 38.974C1389.18 38.974 1388.5 39.1811 1387.91 39.6857C1387.3 40.2093 1386.76 41.0988 1386.76 42.2169H1396.16C1396.16 46.29 1392.59 48.3744 1389.78 48.3744V38.974ZM1386.76 42.2169V25.4585H1396.16V42.2169H1386.76ZM1386.76 25.4585C1386.76 26.6258 1387.32 27.4941 1387.88 27.9787C1388.44 28.4628 1389.12 28.7014 1389.78 28.7014V19.301C1392.66 19.301 1396.16 21.478 1396.16 25.4585H1386.76Z" fill="#E9E9EF" mask="url(#path-13-inside-4_2793_813)"></path><mask id="path-15-inside-5_2793_813" fill="white"><path d="M1377.55 24.0012C1376.63 24.0012 1375.87 24.6348 1375.87 25.4585V42.2169C1375.87 43.0089 1376.63 43.6742 1377.55 43.6742C1378.47 43.6742 1379.23 43.0406 1379.23 42.2169V25.4585C1379.23 24.6665 1378.47 24.0012 1377.55 24.0012Z"></path></mask><path d="M1377.55 24.0012C1376.63 24.0012 1375.87 24.6348 1375.87 25.4585V42.2169C1375.87 43.0089 1376.63 43.6742 1377.55 43.6742C1378.47 43.6742 1379.23 43.0406 1379.23 42.2169V25.4585C1379.23 24.6665 1378.47 24.0012 1377.55 24.0012Z" fill="#A5A5AD"></path><path d="M1377.55 28.7014C1378.15 28.7014 1378.83 28.4942 1379.42 27.9896C1380.03 27.4661 1380.57 26.5766 1380.57 25.4585H1371.17C1371.17 21.3853 1374.74 19.301 1377.55 19.301V28.7014ZM1380.57 25.4585V42.2169H1371.17V25.4585H1380.57ZM1380.57 42.2169C1380.57 41.0496 1380.01 40.1813 1379.45 39.6967C1378.89 39.2126 1378.21 38.974 1377.55 38.974V48.3744C1374.67 48.3744 1371.17 46.1975 1371.17 42.2169H1380.57ZM1377.55 38.974C1376.94 38.974 1376.26 39.1811 1375.67 39.6858C1375.06 40.2093 1374.53 41.0988 1374.53 42.2169H1383.93C1383.93 46.29 1380.36 48.3744 1377.55 48.3744V38.974ZM1374.53 42.2169V25.4585H1383.93V42.2169H1374.53ZM1374.53 25.4585C1374.53 26.6258 1375.09 27.4941 1375.65 27.9787C1376.2 28.4628 1376.88 28.7014 1377.55 28.7014V19.301C1380.43 19.301 1383.93 21.478 1383.93 25.4585H1374.53Z" fill="#E9E9EF" mask="url(#path-15-inside-5_2793_813)"></path><mask id="path-17-inside-6_2793_813" fill="white"><path d="M1365.29 24.0012C1364.37 24.0012 1363.61 24.6348 1363.61 25.4585V42.2169C1363.61 43.0089 1364.37 43.6742 1365.29 43.6742C1366.21 43.6742 1366.97 43.0406 1366.97 42.2169V25.4585C1366.97 24.6665 1366.21 24.0012 1365.29 24.0012Z"></path></mask><path d="M1365.29 24.0012C1364.37 24.0012 1363.61 24.6348 1363.61 25.4585V42.2169C1363.61 43.0089 1364.37 43.6742 1365.29 43.6742C1366.21 43.6742 1366.97 43.0406 1366.97 42.2169V25.4585C1366.97 24.6665 1366.21 24.0012 1365.29 24.0012Z" fill="#A5A5AD"></path><path d="M1365.29 28.7014C1365.9 28.7014 1366.58 28.4942 1367.16 27.9896C1367.78 27.4661 1368.31 26.5766 1368.31 25.4585H1358.91C1358.91 21.3853 1362.48 19.301 1365.29 19.301V28.7014ZM1368.31 25.4585V42.2169H1358.91V25.4585H1368.31ZM1368.31 42.2169C1368.31 41.0496 1367.75 40.1813 1367.19 39.6967C1366.63 39.2126 1365.96 38.974 1365.29 38.974V48.3744C1362.41 48.3744 1358.91 46.1975 1358.91 42.2169H1368.31ZM1365.29 38.974C1364.68 38.974 1364 39.1811 1363.41 39.6858C1362.8 40.2093 1362.27 41.0988 1362.27 42.2169H1371.67C1371.67 46.29 1368.1 48.3744 1365.29 48.3744V38.974ZM1362.27 42.2169V25.4585H1371.67V42.2169H1362.27ZM1362.27 25.4585C1362.27 26.6258 1362.83 27.4941 1363.39 27.9787C1363.94 28.4628 1364.62 28.7014 1365.29 28.7014V19.301C1368.17 19.301 1371.67 21.478 1371.67 25.4585H1362.27Z" fill="#E9E9EF" mask="url(#path-17-inside-6_2793_813)"></path><mask id="path-19-inside-7_2793_813" fill="white"><path d="M1353.06 24.0012C1352.14 24.0012 1351.38 24.6348 1351.38 25.4585V42.2169C1351.38 43.0089 1352.14 43.6742 1353.06 43.6742C1353.97 43.6742 1354.73 43.0406 1354.73 42.2169V25.4585C1354.73 24.6665 1353.97 24.0012 1353.06 24.0012Z"></path></mask><path d="M1353.06 24.0012C1352.14 24.0012 1351.38 24.6348 1351.38 25.4585V42.2169C1351.38 43.0089 1352.14 43.6742 1353.06 43.6742C1353.97 43.6742 1354.73 43.0406 1354.73 42.2169V25.4585C1354.73 24.6665 1353.97 24.0012 1353.06 24.0012Z" fill="#A5A5AD"></path><path d="M1353.06 28.7014C1353.66 28.7014 1354.34 28.4942 1354.93 27.9896C1355.54 27.4661 1356.08 26.5766 1356.08 25.4585H1346.68C1346.68 21.3853 1350.25 19.301 1353.06 19.301V28.7014ZM1356.08 25.4585V42.2169H1346.68V25.4585H1356.08ZM1356.08 42.2169C1356.08 41.0496 1355.51 40.1813 1354.96 39.6967C1354.4 39.2126 1353.72 38.974 1353.06 38.974V48.3744C1350.18 48.3744 1346.68 46.1974 1346.68 42.2169H1356.08ZM1353.06 38.974C1352.45 38.974 1351.77 39.1811 1351.18 39.6857C1350.57 40.2092 1350.03 41.0988 1350.03 42.2169H1359.43C1359.43 46.2901 1355.86 48.3744 1353.06 48.3744V38.974ZM1350.03 42.2169V25.4585H1359.43V42.2169H1350.03ZM1350.03 25.4585C1350.03 26.6258 1350.6 27.4941 1351.15 27.9787C1351.71 28.4628 1352.39 28.7014 1353.06 28.7014V19.301C1355.93 19.301 1359.43 21.4779 1359.43 25.4585H1350.03Z" fill="#E9E9EF" mask="url(#path-19-inside-7_2793_813)"></path><mask id="path-21-inside-8_2793_813" fill="white"><path d="M1340.84 24.0012C1339.92 24.0012 1339.16 24.6348 1339.16 25.4585V42.2169C1339.16 43.0089 1339.92 43.6742 1340.84 43.6742C1341.76 43.6742 1342.52 43.0406 1342.52 42.2169V25.4585C1342.52 24.6665 1341.76 24.0012 1340.84 24.0012Z"></path></mask><path d="M1340.84 24.0012C1339.92 24.0012 1339.16 24.6348 1339.16 25.4585V42.2169C1339.16 43.0089 1339.92 43.6742 1340.84 43.6742C1341.76 43.6742 1342.52 43.0406 1342.52 42.2169V25.4585C1342.52 24.6665 1341.76 24.0012 1340.84 24.0012Z" fill="#A5A5AD"></path><path d="M1340.84 28.7014C1341.44 28.7014 1342.12 28.4942 1342.71 27.9896C1343.32 27.4661 1343.86 26.5766 1343.86 25.4585H1334.46C1334.46 21.3853 1338.03 19.301 1340.84 19.301V28.7014ZM1343.86 25.4585V42.2169H1334.46V25.4585H1343.86ZM1343.86 42.2169C1343.86 41.0496 1343.29 40.1813 1342.74 39.6967C1342.18 39.2126 1341.5 38.974 1340.84 38.974V48.3744C1337.96 48.3744 1334.46 46.1975 1334.46 42.2169H1343.86ZM1340.84 38.974C1340.23 38.974 1339.55 39.1811 1338.96 39.6858C1338.35 40.2093 1337.82 41.0988 1337.82 42.2169H1347.22C1347.22 46.29 1343.65 48.3744 1340.84 48.3744V38.974ZM1337.82 42.2169V25.4585H1347.22V42.2169H1337.82ZM1337.82 25.4585C1337.82 26.6258 1338.38 27.4941 1338.94 27.9787C1339.49 28.4628 1340.17 28.7014 1340.84 28.7014V19.301C1343.72 19.301 1347.22 21.478 1347.22 25.4585H1337.82Z" fill="#E9E9EF" mask="url(#path-21-inside-8_2793_813)"></path><mask id="path-23-inside-9_2793_813" fill="white"><path d="M1328.57 24.0012C1327.65 24.0012 1326.89 24.6348 1326.89 25.4585V42.2169C1326.89 43.0089 1327.65 43.6742 1328.57 43.6742C1329.49 43.6742 1330.25 43.0406 1330.25 42.2169V25.4585C1330.25 24.6665 1329.49 24.0012 1328.57 24.0012Z"></path></mask><path d="M1328.57 24.0012C1327.65 24.0012 1326.89 24.6348 1326.89 25.4585V42.2169C1326.89 43.0089 1327.65 43.6742 1328.57 43.6742C1329.49 43.6742 1330.25 43.0406 1330.25 42.2169V25.4585C1330.25 24.6665 1329.49 24.0012 1328.57 24.0012Z" fill="#A5A5AD"></path><path d="M1328.57 28.7014C1329.18 28.7014 1329.86 28.4942 1330.45 27.9896C1331.06 27.4661 1331.59 26.5766 1331.59 25.4585H1322.19C1322.19 21.3853 1325.76 19.301 1328.57 19.301V28.7014ZM1331.59 25.4585V42.2169H1322.19V25.4585H1331.59ZM1331.59 42.2169C1331.59 41.0496 1331.03 40.1813 1330.47 39.6967C1329.92 39.2126 1329.24 38.974 1328.57 38.974V48.3744C1325.69 48.3744 1322.19 46.1974 1322.19 42.2169H1331.59ZM1328.57 38.974C1327.96 38.974 1327.28 39.1811 1326.7 39.6857C1326.09 40.2093 1325.55 41.0988 1325.55 42.2169H1334.95C1334.95 46.29 1331.38 48.3744 1328.57 48.3744V38.974ZM1325.55 42.2169V25.4585H1334.95V42.2169H1325.55ZM1325.55 25.4585C1325.55 26.6258 1326.11 27.4941 1326.67 27.9787C1327.23 28.4628 1327.9 28.7014 1328.57 28.7014V19.301C1331.45 19.301 1334.95 21.478 1334.95 25.4585H1325.55Z" fill="#E9E9EF" mask="url(#path-23-inside-9_2793_813)"></path><mask id="path-25-inside-10_2793_813" fill="white"><path d="M1316.32 24.0012C1315.4 24.0012 1314.64 24.6348 1314.64 25.4585V42.2169C1314.64 43.0089 1315.4 43.6742 1316.32 43.6742C1317.24 43.6742 1318 43.0406 1318 42.2169V25.4585C1318 24.6665 1317.24 24.0012 1316.32 24.0012Z"></path></mask><path d="M1316.32 24.0012C1315.4 24.0012 1314.64 24.6348 1314.64 25.4585V42.2169C1314.64 43.0089 1315.4 43.6742 1316.32 43.6742C1317.24 43.6742 1318 43.0406 1318 42.2169V25.4585C1318 24.6665 1317.24 24.0012 1316.32 24.0012Z" fill="#A5A5AD"></path><path d="M1316.32 28.7014C1316.93 28.7014 1317.61 28.4942 1318.2 27.9896C1318.81 27.4661 1319.34 26.5766 1319.34 25.4585H1309.94C1309.94 21.3853 1313.51 19.301 1316.32 19.301V28.7014ZM1319.34 25.4585V42.2169H1309.94V25.4585H1319.34ZM1319.34 42.2169C1319.34 41.0496 1318.78 40.1813 1318.22 39.6967C1317.67 39.2126 1316.99 38.974 1316.32 38.974V48.3744C1313.44 48.3744 1309.94 46.1974 1309.94 42.2169H1319.34ZM1316.32 38.974C1315.71 38.974 1315.03 39.1811 1314.45 39.6857C1313.84 40.2093 1313.3 41.0988 1313.3 42.2169H1322.7C1322.7 46.29 1319.13 48.3744 1316.32 48.3744V38.974ZM1313.3 42.2169V25.4585H1322.7V42.2169H1313.3ZM1313.3 25.4585C1313.3 26.6258 1313.86 27.4941 1314.42 27.9787C1314.98 28.4628 1315.65 28.7014 1316.32 28.7014V19.301C1319.2 19.301 1322.7 21.478 1322.7 25.4585H1313.3Z" fill="#E9E9EF" mask="url(#path-25-inside-10_2793_813)"></path><mask id="path-27-inside-11_2793_813" fill="white"><path d="M1304.1 24.0012C1303.18 24.0012 1302.42 24.6348 1302.42 25.4585V42.2169C1302.42 43.0089 1303.18 43.6742 1304.1 43.6742C1305.02 43.6742 1305.78 43.0406 1305.78 42.2169V25.4585C1305.78 24.6665 1305.02 24.0012 1304.1 24.0012Z"></path></mask><path d="M1304.1 24.0012C1303.18 24.0012 1302.42 24.6348 1302.42 25.4585V42.2169C1302.42 43.0089 1303.18 43.6742 1304.1 43.6742C1305.02 43.6742 1305.78 43.0406 1305.78 42.2169V25.4585C1305.78 24.6665 1305.02 24.0012 1304.1 24.0012Z" fill="#A5A5AD"></path><path d="M1304.1 28.7014C1304.71 28.7014 1305.39 28.4942 1305.98 27.9896C1306.59 27.4661 1307.12 26.5766 1307.12 25.4585H1297.72C1297.72 21.3853 1301.29 19.301 1304.1 19.301V28.7014ZM1307.12 25.4585V42.2169H1297.72V25.4585H1307.12ZM1307.12 42.2169C1307.12 41.0496 1306.56 40.1813 1306 39.6967C1305.45 39.2126 1304.77 38.974 1304.1 38.974V48.3744C1301.22 48.3744 1297.72 46.1974 1297.72 42.2169H1307.12ZM1304.1 38.974C1303.5 38.974 1302.82 39.1811 1302.23 39.6857C1301.62 40.2093 1301.08 41.0988 1301.08 42.2169H1310.48C1310.48 46.29 1306.91 48.3744 1304.1 48.3744V38.974ZM1301.08 42.2169V25.4585H1310.48V42.2169H1301.08ZM1301.08 25.4585C1301.08 26.6258 1301.64 27.4941 1302.2 27.9787C1302.76 28.4628 1303.44 28.7014 1304.1 28.7014V19.301C1306.98 19.301 1310.48 21.478 1310.48 25.4585H1301.08Z" fill="#E9E9EF" mask="url(#path-27-inside-11_2793_813)"></path><mask id="path-29-inside-12_2793_813" fill="white"><path d="M1291.84 24.0012C1290.93 24.0012 1290.17 24.6348 1290.17 25.4585V42.2169C1290.17 43.0089 1290.93 43.6742 1291.84 43.6742C1292.76 43.6742 1293.52 43.0406 1293.52 42.2169V25.4585C1293.52 24.6665 1292.76 24.0012 1291.84 24.0012Z"></path></mask><path d="M1291.84 24.0012C1290.93 24.0012 1290.17 24.6348 1290.17 25.4585V42.2169C1290.17 43.0089 1290.93 43.6742 1291.84 43.6742C1292.76 43.6742 1293.52 43.0406 1293.52 42.2169V25.4585C1293.52 24.6665 1292.76 24.0012 1291.84 24.0012Z" fill="#A5A5AD"></path><path d="M1291.84 28.7014C1292.45 28.7014 1293.13 28.4942 1293.72 27.9896C1294.33 27.4661 1294.87 26.5766 1294.87 25.4585H1285.47C1285.47 21.3853 1289.04 19.301 1291.84 19.301V28.7014ZM1294.87 25.4585V42.2169H1285.47V25.4585H1294.87ZM1294.87 42.2169C1294.87 41.0496 1294.3 40.1813 1293.75 39.6967C1293.19 39.2126 1292.51 38.974 1291.84 38.974V48.3744C1288.97 48.3744 1285.47 46.1974 1285.47 42.2169H1294.87ZM1291.84 38.974C1291.24 38.974 1290.56 39.1811 1289.97 39.6857C1289.36 40.2092 1288.82 41.0988 1288.82 42.2169H1298.22C1298.22 46.2901 1294.65 48.3744 1291.84 48.3744V38.974ZM1288.82 42.2169V25.4585H1298.22V42.2169H1288.82ZM1288.82 25.4585C1288.82 26.6258 1289.39 27.4941 1289.94 27.9787C1290.5 28.4628 1291.18 28.7014 1291.84 28.7014V19.301C1294.72 19.301 1298.22 21.4779 1298.22 25.4585H1288.82Z" fill="#E9E9EF" mask="url(#path-29-inside-12_2793_813)"></path><mask id="path-31-inside-13_2793_813" fill="white"><path d="M1279.65 24.0012C1278.73 24.0012 1277.97 24.6348 1277.97 25.4585V42.2169C1277.97 43.0089 1278.73 43.6742 1279.65 43.6742C1280.57 43.6742 1281.33 43.0406 1281.33 42.2169V25.4585C1281.33 24.6665 1280.57 24.0012 1279.65 24.0012Z"></path></mask><path d="M1279.65 24.0012C1278.73 24.0012 1277.97 24.6348 1277.97 25.4585V42.2169C1277.97 43.0089 1278.73 43.6742 1279.65 43.6742C1280.57 43.6742 1281.33 43.0406 1281.33 42.2169V25.4585C1281.33 24.6665 1280.57 24.0012 1279.65 24.0012Z" fill="#A5A5AD"></path><path d="M1279.65 28.7014C1280.26 28.7014 1280.94 28.4942 1281.52 27.9897C1282.13 27.4662 1282.67 26.5766 1282.67 25.4585H1273.27C1273.27 21.3853 1276.84 19.301 1279.65 19.301V28.7014ZM1282.67 25.4585V42.2169H1273.27V25.4585H1282.67ZM1282.67 42.2169C1282.67 41.0496 1282.11 40.1812 1281.55 39.6967C1280.99 39.2126 1280.32 38.974 1279.65 38.974V48.3744C1276.77 48.3744 1273.27 46.1975 1273.27 42.2169H1282.67ZM1279.65 38.974C1279.04 38.974 1278.36 39.1811 1277.77 39.6857C1277.16 40.2093 1276.63 41.0988 1276.63 42.2169H1286.03C1286.03 46.29 1282.46 48.3744 1279.65 48.3744V38.974ZM1276.63 42.2169V25.4585H1286.03V42.2169H1276.63ZM1276.63 25.4585C1276.63 26.6258 1277.19 27.4941 1277.75 27.9787C1278.3 28.4628 1278.98 28.7014 1279.65 28.7014V19.301C1282.53 19.301 1286.03 21.478 1286.03 25.4585H1276.63Z" fill="#E9E9EF" mask="url(#path-31-inside-13_2793_813)"></path><path d="M376.032 203.701C376.032 262.625 381.711 298.482 384.792 315.318C387.84 332.153 395.123 344.355 406.835 353.197C418.546 362.039 437.99 362.333 455.542 362.333H1464.49C1482.01 362.333 1501.49 362.039 1513.2 353.197C1524.91 344.355 1532.16 332.153 1535.24 315.318C1538.29 298.482 1544 262.625 1544 203.701C1544 144.777 1538.32 108.92 1535.24 92.0846C1532.19 75.2492 1524.91 63.0467 1513.2 54.2049C1501.49 45.363 1482.04 45.0693 1464.49 45.0693H455.509C437.99 45.0693 418.514 45.363 406.803 54.2049C395.091 63.0467 387.84 75.2492 384.76 92.0846C381.711 108.92 376 144.777 376 203.701H376.032Z" stroke="#E9E9EF" stroke-width="4.7002" stroke-miterlimit="10"></path><path d="M657.419 10.5114C655.012 8.00957 651.718 6.58447 648.266 6.58447H504.458C501.006 6.58447 497.681 8.00957 495.306 10.5114L492.107 13.8683C490.967 15.0401 490.365 16.6235 490.365 18.2386V18.5237H662.391V18.2386C662.391 16.6235 661.757 15.0401 660.649 13.8683L657.45 10.5114H657.419Z" stroke="#E9E9EF" stroke-width="4.7002" stroke-miterlimit="10"></path><path d="M1424.96 6.58447H1281.15C1277.7 6.58447 1274.38 8.00957 1272 10.5114L1268.8 13.8683C1267.66 15.0401 1267.06 16.6235 1267.06 18.2386V18.302H1439.05V18.2386C1439.05 12.1619 1430.25 6.58447 1424.96 6.58447Z" stroke="#E9E9EF" stroke-width="4.7002" stroke-miterlimit="10"></path><path d="M1390.95 175.611H1405.82V205.357H1390.95V175.611ZM1405.82 160.738H1420.69V175.611H1405.82V160.738ZM1420.69 145.865H1435.56V160.738H1420.69V145.865ZM1435.56 130.992H1450.44V145.865H1435.56V130.992ZM1390.95 101.246H1465.31V130.992H1450.44V116.119H1390.95V101.246Z" fill="#E9E9EF"></path><path d="M1286.83 175.611H1301.7V190.484H1286.83V175.611ZM1301.7 190.484H1346.32V205.357H1301.7V190.484ZM1346.32 145.865H1361.19V190.484H1346.32V145.865ZM1286.83 101.246H1361.19V116.119H1301.7V130.992H1346.32V145.865H1286.83V101.246Z" fill="#E9E9EF"></path><path d="M1242.21 130.992H1257.08V145.865H1242.21V130.992ZM1242.21 190.484H1257.08V205.357H1242.21V190.484Z" fill="#E9E9EF"></path><path d="M1138.11 116.119H1152.98V145.865H1138.11V116.119ZM1152.98 101.246H1197.6V116.119H1152.98V101.246ZM1197.6 116.119H1212.47V190.484H1197.6V160.738H1152.98V145.865H1197.6V116.119ZM1152.98 190.484H1197.6V205.357H1152.98V190.484ZM1138.11 175.611H1152.98V190.484H1138.11V175.611Z" fill="#E9E9EF"></path><path d="M1048.87 190.484H1093.48V205.357H1048.87V190.484ZM1093.48 116.119H1108.36V190.484H1093.48V145.865H1078.61V130.992H1093.48V116.119ZM1063.74 145.865H1078.61V160.738H1063.74V145.865ZM1033.99 116.119H1048.87V160.738H1063.74V175.611H1048.87V190.484H1033.99V116.119ZM1048.87 101.246H1093.48V116.119H1048.87V101.246Z" fill="#E9E9EF"></path><path d="M1227.46 294.595V249.976H1212.59V235.103H1257.21V249.976H1242.33V294.595H1227.46Z" fill="#E9E9EF"></path><path d="M1153.05 294.595V235.103H1197.67V249.976H1167.92V264.849H1182.79V279.722H1167.92V294.595H1153.05Z" fill="#E9E9EF"></path><path d="M1093.48 294.595V235.103H1138.1V249.976H1123.23L1108.36 249.976L1108.36 264.849H1123.23L1123.23 279.722H1138.1V294.595H1093.48Z" fill="#E9E9EF"></path><path d="M1033.99 294.595V235.103H1048.87V279.722H1078.61V294.595H1033.99Z" fill="#E9E9EF"></path><path d="M1390.95 175.611H1405.82V205.357H1390.95V175.611ZM1405.82 160.738H1420.69V175.611H1405.82V160.738ZM1420.69 145.865H1435.56V160.738H1420.69V145.865ZM1435.56 130.992H1450.44V145.865H1435.56V130.992ZM1390.95 101.246H1465.31V130.992H1450.44V116.119H1390.95V101.246Z" fill="#2D2D3A"></path><path d="M1286.83 175.611H1301.7V190.484H1286.83V175.611ZM1301.7 190.484H1346.32V205.357H1301.7V190.484ZM1346.32 145.865H1361.19V190.484H1346.32V145.865ZM1286.83 101.246H1361.19V116.119H1301.7V130.992H1346.32V145.865H1286.83V101.246Z" fill="#2D2D3A"></path><path d="M1242.21 130.992H1257.08V145.865H1242.21V130.992ZM1242.21 190.484H1257.08V205.357H1242.21V190.484Z" fill="#2D2D3A"></path><path d="M1138.11 116.119H1152.98V145.865H1138.11V116.119ZM1152.98 101.246H1197.6V116.119H1152.98V101.246ZM1197.6 116.119H1212.47V190.484H1197.6V160.738H1152.98V145.865H1197.6V116.119ZM1152.98 190.484H1197.6V205.357H1152.98V190.484ZM1138.11 175.611H1152.98V190.484H1138.11V175.611Z" fill="#2D2D3A"></path><path d="M1048.87 190.484H1093.48V205.357H1048.87V190.484ZM1093.48 116.119H1108.36V190.484H1093.48V145.865H1078.61V130.992H1093.48V116.119ZM1063.74 145.865H1078.61V160.738H1063.74V145.865ZM1033.99 116.119H1048.87V160.738H1063.74V175.611H1048.87V190.484H1033.99V116.119ZM1048.87 101.246H1093.48V116.119H1048.87V101.246Z" fill="#2D2D3A"></path><path d="M1227.46 294.595V249.976H1212.59V235.103H1257.21V249.976H1242.33V294.595H1227.46Z" fill="#2D2D3A"></path><path d="M1153.05 294.595V235.103H1197.67V249.976H1167.92V264.849H1182.79V279.722H1167.92V294.595H1153.05Z" fill="#2D2D3A"></path><path d="M1093.48 294.595V235.103H1138.1V249.976H1123.23L1108.36 249.976L1108.36 264.849H1123.23L1123.23 279.722H1138.1V294.595H1093.48Z" fill="#2D2D3A"></path><path d="M1033.99 294.595V235.103H1048.87V279.722H1078.61V294.595H1033.99Z" fill="#2D2D3A"></path><path d="M1639 199V184.168H1633.48V182.2H1646.71V184.168H1641.19V199H1639ZM1649.74 184.648C1649.34 184.648 1649.02 184.536 1648.78 184.312C1648.54 184.088 1648.42 183.784 1648.42 183.4C1648.42 183.208 1648.46 183.04 1648.52 182.896C1648.58 182.736 1648.67 182.608 1648.78 182.512C1648.9 182.4 1649.03 182.32 1649.19 182.272C1649.37 182.208 1649.55 182.176 1649.74 182.176C1649.94 182.176 1650.11 182.208 1650.27 182.272C1650.43 182.32 1650.57 182.4 1650.68 182.512C1650.79 182.608 1650.88 182.736 1650.94 182.896C1651.01 183.04 1651.04 183.208 1651.04 183.4C1651.04 183.784 1650.92 184.088 1650.68 184.312C1650.44 184.536 1650.13 184.648 1649.74 184.648ZM1648.71 199V186.472H1650.75V199H1648.71ZM1654.43 199V186.472H1656.45V188.344H1656.47C1656.68 188.008 1656.9 187.712 1657.14 187.456C1657.38 187.184 1657.65 186.96 1657.93 186.784C1658.24 186.608 1658.57 186.48 1658.94 186.4C1659.31 186.304 1659.73 186.256 1660.21 186.256C1660.71 186.256 1661.15 186.312 1661.53 186.424C1661.92 186.536 1662.25 186.696 1662.54 186.904C1662.83 187.096 1663.07 187.328 1663.26 187.6C1663.45 187.856 1663.61 188.144 1663.72 188.464C1663.93 188.096 1664.17 187.776 1664.44 187.504C1664.71 187.216 1665.01 186.984 1665.35 186.808C1665.7 186.616 1666.08 186.48 1666.48 186.4C1666.88 186.304 1667.31 186.256 1667.77 186.256C1668.46 186.256 1669.05 186.352 1669.53 186.544C1670.02 186.736 1670.42 187.024 1670.73 187.408C1671.05 187.792 1671.28 188.272 1671.42 188.848C1671.57 189.424 1671.64 190.104 1671.64 190.888V199H1669.62V191.56C1669.62 191.032 1669.58 190.552 1669.5 190.12C1669.42 189.688 1669.29 189.32 1669.09 189.016C1668.9 188.696 1668.65 188.456 1668.33 188.296C1668.01 188.12 1667.61 188.032 1667.13 188.032C1666.55 188.032 1666.06 188.12 1665.66 188.296C1665.26 188.456 1664.94 188.696 1664.7 189.016C1664.48 189.32 1664.31 189.68 1664.2 190.096C1664.1 190.496 1664.05 190.928 1664.05 191.392V199H1662.04V191.416C1662.04 190.92 1662.01 190.464 1661.94 190.048C1661.88 189.632 1661.75 189.272 1661.56 188.968C1661.38 188.664 1661.13 188.432 1660.79 188.272C1660.47 188.112 1660.05 188.032 1659.54 188.032C1658.93 188.032 1658.43 188.136 1658.03 188.344C1657.63 188.536 1657.31 188.808 1657.07 189.16C1656.85 189.512 1656.69 189.928 1656.59 190.408C1656.49 190.872 1656.45 191.368 1656.45 191.896V199H1654.43ZM1680.41 199.288C1679.37 199.288 1678.47 199.136 1677.72 198.832C1676.97 198.512 1676.33 198.064 1675.82 197.488C1675.31 196.912 1674.93 196.224 1674.69 195.424C1674.45 194.608 1674.33 193.712 1674.33 192.736V192.592C1674.33 191.664 1674.45 190.808 1674.69 190.024C1674.93 189.224 1675.29 188.544 1675.77 187.984C1676.27 187.424 1676.89 186.984 1677.62 186.664C1678.36 186.344 1679.21 186.184 1680.19 186.184C1681.02 186.184 1681.78 186.328 1682.47 186.616C1683.17 186.888 1683.77 187.28 1684.25 187.792C1684.74 188.288 1685.13 188.888 1685.4 189.592C1685.67 190.296 1685.81 191.08 1685.81 191.944V193.24H1675.75V191.704H1683.74V191.584C1683.74 191.008 1683.65 190.488 1683.48 190.024C1683.3 189.56 1683.05 189.176 1682.73 188.872C1682.41 188.552 1682.04 188.304 1681.61 188.128C1681.17 187.952 1680.7 187.864 1680.19 187.864C1679.52 187.864 1678.94 187.976 1678.46 188.2C1677.98 188.424 1677.59 188.736 1677.29 189.136C1677 189.52 1676.78 189.976 1676.64 190.504C1676.51 191.032 1676.45 191.6 1676.45 192.208V192.952C1676.45 193.56 1676.52 194.152 1676.66 194.728C1676.81 195.288 1677.03 195.784 1677.33 196.216C1677.65 196.632 1678.06 196.968 1678.56 197.224C1679.07 197.48 1679.69 197.608 1680.43 197.608C1680.94 197.608 1681.4 197.544 1681.8 197.416C1682.2 197.288 1682.53 197.12 1682.81 196.912C1683.08 196.704 1683.29 196.472 1683.43 196.216C1683.57 195.944 1683.65 195.672 1683.65 195.4L1683.67 195.256H1685.59V195.4C1685.57 195.96 1685.44 196.48 1685.18 196.96C1684.94 197.424 1684.6 197.832 1684.15 198.184C1683.7 198.52 1683.16 198.792 1682.52 199C1681.89 199.192 1681.19 199.288 1680.41 199.288ZM1688.72 199V186.472H1690.76V188.896H1690.78C1690.96 188.432 1691.19 188.04 1691.48 187.72C1691.77 187.4 1692.09 187.136 1692.46 186.928C1692.85 186.72 1693.26 186.576 1693.71 186.496C1694.16 186.4 1694.62 186.352 1695.1 186.352C1695.17 186.352 1695.22 186.352 1695.27 186.352C1695.32 186.352 1695.37 186.352 1695.41 186.352V188.224H1695.15C1694.38 188.224 1693.72 188.312 1693.16 188.488C1692.6 188.664 1692.14 188.928 1691.79 189.28C1691.44 189.632 1691.17 190.072 1691 190.6C1690.84 191.128 1690.76 191.76 1690.76 192.496V199H1688.72Z" fill="black"></path><path d="M1664 162L1664 94C1664 89.5817 1660.42 86 1656 86L1495 86" stroke="#9292A9" stroke-width="3" stroke-dasharray="6 6"></path><path d="M1664 220L1664 287C1664 291.418 1660.42 295 1656 295L1495 295" stroke="#9292A9" stroke-width="3" stroke-dasharray="6 6"></path><rect x="424.195" y="86.3728" width="580.048" height="208.222" rx="44.6191" fill="#E9E9EF"></rect><path fill-rule="evenodd" clip-rule="evenodd" d="M510.874 116.203H480.781V266.667H510.874V266.666H571.054V236.575H571.059V251.621H586.106V236.574H586.104V191.436H571.054V176.389L510.874 176.389V146.297L556.012 146.297V161.342V161.343V176.388H586.104V161.343V161.342V131.25L571.054 131.25V116.204L510.874 116.204V116.203ZM556.012 236.574V206.481H510.874V236.574L556.012 236.574ZM631.247 116.203H601.154V236.574H616.209V266.666H691.44V236.574H706.47V116.203H676.378V236.574H631.247V116.203ZM826.857 191.435H811.806V176.389H751.613V146.297L796.765 146.297V161.342H826.857V131.25H811.806V116.204L736.575 116.204V131.25H721.52V191.435H736.575V206.481H796.765V236.574H751.613V221.528H721.52V251.621H736.575V266.666H811.806V251.62H826.857V191.435ZM871.979 116.204H841.887V191.436H856.927V206.482L917.117 206.482V236.575L871.979 236.575V221.528H841.887V251.621H856.927V266.667H932.159V251.621H947.21V191.436V116.204H917.117V176.39L871.979 176.39V116.204Z" fill="white"></path><rect x="425.82" y="310.425" width="364.601" height="16.5728" fill="#E9E9EF"></rect><rect x="823.57" y="310.425" width="120.153" height="16.5728" fill="#E9E9EF"></rect><rect x="976.867" y="310.425" width="364.601" height="16.5728" fill="#E9E9EF"></rect><rect x="1374.61" y="310.425" width="120.153" height="16.5728" fill="#E9E9EF"></rect><rect x="426" y="310" width="364.601" height="16.5728" fill="#E9E9EF"></rect><rect x="823.75" y="310" width="120.153" height="16.5728" fill="#E9E9EF"></rect><rect x="977.047" y="310" width="364.601" height="16.5728" fill="#E9E9EF"></rect><rect x="1374.79" y="310" width="120.153" height="16.5728" fill="#E9E9EF"></rect></svg> 