<?xml version="1.0" encoding="UTF-8"?> <svg xmlns="http://www.w3.org/2000/svg" width="45" height="45" viewBox="0 0 45 45" fill="none"><path fill-rule="evenodd" clip-rule="evenodd" d="M8.53549 31.7881L31.6541 8.66943C25.1774 4.35195 16.3461 5.05057 10.6314 10.7653C4.91663 16.48 4.21801 25.3113 8.53549 31.7881ZM13.1862 36.4386C19.6629 40.7557 28.4939 40.057 34.2085 34.3424C39.923 28.6278 40.6218 19.7968 36.3046 13.3201L13.1862 36.4386ZM38.084 38.2179C29.4329 46.8689 15.4069 46.8689 6.75585 38.2179C-1.89518 29.5669 -1.89518 15.5408 6.75585 6.88979C15.4069 -1.76124 29.4329 -1.76124 38.084 6.88979C46.735 15.5408 46.735 29.5669 38.084 38.2179Z" fill="#F01212"></path></svg> 