<?xml version="1.0" encoding="UTF-8"?> <svg xmlns="http://www.w3.org/2000/svg" width="7" height="7" viewBox="0 0 7 7" fill="none"><path d="M4.45995 6.87999H2.29995C1.86995 6.87999 1.46995 6.64999 1.24995 6.27999L0.169951 4.39999C-0.0400488 4.02999 -0.0400488 3.56999 0.169951 3.18999L1.24995 1.30999C1.45995 0.939992 1.86995 0.709991 2.29995 0.709991H4.45995C4.88995 0.709991 5.28995 0.939992 5.50995 1.30999L6.58995 3.18999C6.79995 3.55999 6.79995 4.02999 6.58995 4.39999L5.50995 6.27999C5.29995 6.64999 4.88995 6.87999 4.45995 6.87999ZM2.29995 1.27999C2.06995 1.27999 1.85995 1.39999 1.74995 1.59999L0.669951 3.47999C0.559951 3.67999 0.559951 3.91999 0.669951 4.11999L1.74995 5.99999C1.85995 6.19999 2.07995 6.31999 2.29995 6.31999H4.45995C4.68995 6.31999 4.89995 6.19999 5.00995 5.99999L6.08995 4.11999C6.19995 3.91999 6.19995 3.67999 6.08995 3.47999L5.00995 1.59999C4.89995 1.39999 4.67995 1.27999 4.45995 1.27999H2.29995Z" fill="#656572"></path><path d="M3.37 5.04999C2.68 5.04999 2.12 4.48999 2.12 3.79999C2.12 3.10999 2.68 2.54999 3.37 2.54999C4.06 2.54999 4.62 3.10999 4.62 3.79999C4.62 4.48999 4.06 5.04999 3.37 5.04999ZM3.37 3.10999C2.99 3.10999 2.69 3.41999 2.69 3.78999C2.69 4.15999 3 4.46999 3.37 4.46999C3.74 4.46999 4.05 4.15999 4.05 3.78999C4.05 3.41999 3.74 3.10999 3.37 3.10999Z" fill="#656572"></path></svg> 